<svg width="1000" height="500" viewBox="0 0 1000 500" fill="none" xmlns="http://www.w3.org/2000/svg">
<path d="M855.052 396.953C855.436 396.953 857.545 396.377 859.463 395.8C866.941 393.496 873.844 387.734 877.104 381.204C879.021 377.363 881.322 370.45 882.281 365.072C883.24 359.503 883.24 333.384 882.281 322.053C880.939 307.841 878.062 284.987 876.337 274.616C875.953 271.927 875.378 268.854 875.186 268.086C874.994 267.126 874.611 266.166 874.419 265.973C873.844 265.397 840.863 265.397 828.591 265.973L822.072 266.166L821.113 262.132C819.962 257.331 817.47 251.762 814.977 248.497C808.074 239.662 801.554 236.782 787.365 236.398L780.654 236.205L780.078 233.325C779.12 227.947 777.394 226.411 772.025 226.411H769.149L768.765 225.066C768.382 223.722 766.272 214.504 766.272 213.735C766.272 213.543 767.039 213.351 767.998 213.543C770.874 213.928 773.751 212.775 776.435 210.086C781.037 205.477 782.188 197.987 778.928 193.378L777.777 191.842L780.654 189.537C788.132 183.199 792.35 174.941 790.816 169.948C790.241 168.027 787.94 166.107 785.256 165.53L783.146 165.146L784.297 161.689C788.132 150.743 784.489 140.564 775.285 136.339C772.6 134.994 771.833 134.802 767.998 134.802C764.738 134.61 763.013 134.802 761.095 135.378C758.027 136.147 753.042 138.451 751.124 139.988C750.357 140.564 749.782 140.948 749.59 140.948C749.398 140.948 748.631 140.372 747.673 139.604C745.755 137.875 741.537 135.762 737.51 134.226C726.772 130.385 714.692 134.994 709.898 144.597C708.556 147.286 708.364 148.054 708.172 151.511C707.98 154.968 708.172 155.544 709.131 157.464C711.432 161.882 715.267 164.57 720.636 165.338C722.553 165.53 722.745 165.723 722.553 166.299C720.828 170.716 719.102 176.862 718.91 179.742C718.718 182.623 718.718 183.199 719.485 184.736C720.252 186.464 720.444 186.656 719.869 190.305C719.102 195.875 719.485 204.517 720.636 208.166C721.978 212.775 725.046 217.961 727.539 220.649C729.84 223.146 734.825 225.835 736.743 225.835C738.277 225.835 739.619 226.603 740.003 227.371C740.386 228.715 742.495 229.484 744.221 229.292C746.714 228.908 753.233 221.802 753.233 219.689C753.233 218.537 752.466 218.729 748.248 220.649C744.605 222.378 744.221 222.57 740.77 222.57C735.592 222.57 733.1 221.61 729.84 218.345C728.114 216.424 726.964 214.888 725.43 212.007C722.553 206.245 722.17 203.941 722.17 197.027C722.17 185.504 724.471 176.669 729.456 168.603L731.374 165.53L739.619 165.723C747.481 165.915 750.549 166.299 756.11 167.259L758.602 167.643L757.068 169.372C754.767 172.06 753.425 174.749 752.85 178.014C751.891 183.391 753.617 187.808 757.26 190.497L759.369 192.034L761.479 190.305C765.505 188.385 768.765 189.537 768.765 192.802C768.765 195.683 767.615 197.219 764.93 198.179C763.588 198.755 762.246 199.332 761.862 199.524C761.095 199.908 760.903 201.252 761.479 201.636C761.862 201.828 762.246 202.981 762.437 204.517C762.629 205.861 763.396 210.471 764.163 214.696C764.93 218.921 765.697 223.146 765.697 224.49L765.889 226.795L761.67 228.139C755.534 230.252 749.974 232.364 749.974 232.941C749.974 233.133 750.165 233.517 750.357 233.901C750.741 234.477 751.124 234.285 753.425 233.133C759.561 230.252 770.683 228.139 773.751 229.1C774.901 229.484 775.668 231.02 776.243 234.093C777.202 238.894 776.435 238.318 782.571 238.318C800.212 238.318 809.224 242.543 815.552 254.258C820.921 264.053 821.113 279.801 815.936 295.357C812.101 306.88 802.513 326.47 797.528 333.192C795.61 335.688 795.61 336.264 796.952 336.072C797.911 335.88 799.253 334.344 804.622 327.238C808.266 322.437 812.292 317.059 813.826 315.139L816.511 311.682L816.703 313.218C816.894 313.986 817.278 317.059 817.661 319.94C819.195 331.655 822.647 345.675 825.715 352.973C826.29 354.317 826.674 355.47 826.674 355.47C826.674 355.47 824.181 354.701 821.113 353.741C814.21 351.436 809.608 350.284 801.171 348.748C790.625 346.827 786.214 346.251 776.627 346.059C766.081 345.675 760.712 346.251 753.233 347.98C750.549 348.748 748.248 349.132 748.056 349.132C748.056 349.132 747.289 347.595 746.522 345.867L744.988 342.794H750.357C754.767 342.794 755.918 342.602 756.493 342.218C757.068 341.642 757.068 340.49 757.068 335.688C757.068 328.774 756.877 326.47 755.918 325.317L755.151 324.357L744.605 324.549C735.976 324.549 734.058 324.549 734.058 324.165C734.058 323.781 733.867 321.668 733.675 319.364C732.524 307.457 731.949 293.053 731.949 278.265C731.949 264.629 731.757 262.325 731.374 262.325C730.99 262.325 730.607 262.901 730.415 263.669C730.032 265.397 729.648 274.808 729.456 289.788C729.265 301.503 729.265 303.808 728.498 307.073C726.772 315.331 724.471 320.9 722.17 323.205L721.019 324.357L703.57 324.549L686.121 324.741V322.821C686.121 321.861 686.313 320.9 686.504 320.9C687.271 320.9 695.517 315.139 695.325 314.755C695.133 313.986 689.572 313.986 684.779 314.755C682.478 315.139 678.643 316.099 676.15 316.867C672.89 318.019 671.356 318.404 669.439 318.212C665.029 318.02 665.604 317.635 673.082 315.139C677.109 313.794 681.136 312.45 682.094 312.066C684.012 311.298 684.203 310.337 682.669 310.337C681.327 310.337 666.562 314.563 663.303 315.907L660.426 317.059L655.058 316.675L649.689 316.291L646.237 308.417C644.32 304.192 640.485 295.357 637.608 288.828C631.089 273.656 628.98 269.046 628.213 268.278C627.637 267.51 626.87 267.51 621.31 267.51C617.858 267.51 609.421 267.318 602.71 267.318C595.999 267.318 587.945 267.126 585.069 267.126C579.892 267.126 579.892 267.126 581.042 266.358C584.685 264.437 599.067 259.252 608.846 256.563C612.297 255.603 612.873 254.642 609.613 255.219C602.135 256.179 589.863 259.828 582.96 263.285C579.125 265.205 577.782 265.589 577.207 265.205C576.057 264.629 572.797 260.02 571.455 257.139C570.112 254.258 569.729 251.762 570.112 249.457C570.496 247.537 572.605 245.232 578.549 240.239C584.11 235.437 589.479 230.06 589.479 229.484C589.479 229.292 589.287 228.908 588.904 228.908C588.329 228.908 579.892 235.629 575.29 239.854C570.112 244.464 565.894 250.417 565.894 252.914C565.894 254.45 565.319 254.835 564.552 253.874C563.401 252.53 561.292 251.378 560.525 251.57C559.758 251.762 557.073 255.219 548.445 265.781C542.309 273.656 537.707 279.993 533.872 286.523C532.721 288.444 531.762 290.172 531.571 290.172C531.571 290.172 531.379 289.404 531.379 288.444C531.187 284.795 526.585 266.934 522.942 256.755C520.066 248.497 516.039 241.775 512.204 238.702C507.027 234.669 499.357 234.669 491.111 239.086L488.619 240.431L488.427 237.934C488.235 236.59 487.852 234.285 487.468 232.941L486.701 230.252L487.852 229.484C490.536 227.755 496.097 221.61 497.823 218.729C501.082 213.159 503.192 206.053 503.192 200.292C503.192 198.947 503.383 197.795 503.575 197.795C503.767 197.795 504.342 196.835 505.109 195.683C505.876 194.146 506.26 192.802 506.451 190.689C506.643 187.232 506.068 185.12 504.534 183.967L503.383 183.007L505.301 180.511C513.546 170.332 513.93 156.696 506.068 150.358C500.124 145.557 491.303 146.709 484.784 153.239C483.633 154.391 482.675 155.16 482.675 155.16C482.675 155.16 482.291 154.392 482.099 153.623C480.949 150.935 477.305 148.63 473.662 148.63C471.553 148.63 467.335 150.166 464.842 151.895C460.048 154.968 455.446 160.729 453.912 165.53C453.529 166.875 453.145 168.027 452.953 168.027C452.953 168.027 451.995 167.835 450.652 167.451C447.776 166.491 442.024 166.683 438.764 168.027C431.477 170.908 427.067 180.511 429.368 189.153C430.71 194.338 433.778 199.14 437.613 202.404C439.339 203.749 439.531 203.941 438.956 204.709C438.189 205.861 438.38 208.934 439.339 211.431C440.873 214.696 444.708 218.345 448.543 220.265C451.036 221.418 452.186 221.802 454.679 221.994L457.555 222.186L458.706 226.795C460.432 234.285 461.39 239.662 460.623 240.239C460.24 240.623 460.048 240.623 459.281 240.239C456.213 238.318 452.57 237.358 447.968 237.358C437.23 237.358 425.341 244.848 416.137 257.139C413.836 260.212 410.193 265.589 409.043 267.702C409.043 267.702 400.797 267.894 390.635 268.278C380.664 268.47 369.926 268.854 366.858 268.854L361.297 269.046L360.913 270.967C360.722 272.119 360.722 284.795 360.722 299.198L360.913 325.317H327.932C306.648 325.317 294.76 325.125 294.568 324.933C294.185 324.357 292.842 310.914 291.884 297.662C291.117 286.715 290.733 281.338 290.35 280.185C290.158 279.417 290.35 279.033 290.733 279.033C291.884 279.033 301.088 274.232 302.813 272.695C303.772 271.927 304.539 271.159 304.347 270.967C304.155 270.775 302.046 271.735 299.554 273.079C297.061 274.232 292.651 276.152 289.966 276.92C285.364 278.457 274.434 281.338 270.791 281.914C269.257 282.106 269.065 282.106 268.874 280.954C268.682 280.185 268.682 278.649 268.682 277.497C268.682 270.967 262.738 233.709 259.094 216.424C252 183.583 245.672 160.345 238.577 141.332C232.633 125.392 229.565 118.478 228.606 118.862C228.414 118.862 228.031 120.206 227.839 121.551C227.647 122.895 227.264 124.816 226.88 125.584C225.922 128.08 223.237 130.577 220.361 131.921C218.06 132.882 217.485 133.074 213.841 133.074C210.39 133.074 209.431 132.882 207.514 131.921C200.994 128.849 196.776 122.127 191.79 106.955C190.448 102.73 188.53 96.584 187.572 93.127C186.229 87.7496 185.846 87.1734 185.079 87.1734C182.394 87.1734 177.984 84.2927 176.642 81.796C175.683 80.0675 175.875 77.3788 176.642 76.4185C177.217 75.8424 179.71 76.4185 181.244 77.5708C182.97 78.7232 183.545 78.7232 185.462 78.147C186.805 77.5708 187.188 76.4185 186.229 75.0742C185.654 74.306 185.846 74.1139 186.805 72.5775C189.681 68.3524 189.489 61.0544 186.421 56.6372C185.654 55.677 185.271 54.7167 185.271 54.7167C185.271 54.7167 187.572 54.1406 190.256 53.7565C198.118 52.22 209.431 49.3393 215.184 47.4187C218.06 46.4585 220.361 45.6903 220.553 45.6903C220.936 46.0744 223.621 56.0611 224.771 60.8624C226.689 69.3126 227.072 72.7696 226.88 79.8755C226.88 84.8688 226.689 86.7893 225.922 89.4781C224.196 96.1999 221.703 99.6568 217.101 101.961C214.8 103.114 213.841 103.306 210.39 103.498C207.13 103.69 206.171 103.882 205.788 104.458C205.404 105.034 205.596 105.226 205.98 105.802C206.747 106.763 213.65 106.763 216.909 105.61L219.402 104.842L219.594 105.802C219.977 107.723 224.196 115.213 225.155 116.173C226.113 116.941 226.113 117.133 226.497 116.365C226.689 115.981 226.305 114.829 225.73 113.677C224.388 111.18 223.045 107.723 222.662 105.034L223.429 101.961L225.155 100.041C234.167 90.0542 233.975 70.849 224.579 47.8029L223.045 43.9618L225.73 42.6175C231.866 39.3526 233.975 35.7036 232.633 30.5182C232.058 28.7897 229.948 26.4851 228.414 26.101L227.456 25.909L228.414 23.7964C229.373 22.0679 229.373 21.1077 229.373 18.0348C229.373 14.5779 229.373 14.3859 228.031 13.2336C225.73 11.121 222.278 10.7369 219.21 12.2733L218.06 12.8495L218.827 11.5051C219.402 9.96868 219.019 7.27996 218.252 5.9356C216.909 4.01508 214.033 3.43893 208.856 4.59124C196.584 7.08791 181.052 15.3461 173.382 23.7964C169.739 27.6374 168.013 30.5182 167.054 34.1672L166.096 37.24L165.712 35.7036C165.52 34.7433 165.329 33.591 165.329 33.0149C165.329 32.0546 165.137 32.0546 164.178 32.0546C163.028 32.0546 162.836 32.2467 162.452 33.591C161.685 36.0877 162.069 38.5844 163.795 40.3128L165.137 41.6572L163.795 43.1936C160.151 47.2267 159.001 51.8359 159.193 59.9021C159.384 64.3193 159.576 66.0478 160.343 68.1603C162.644 74.8821 166.287 80.4516 171.081 85.0609C174.724 88.5178 178.176 90.6304 182.394 92.1668C183.928 92.7429 185.079 93.127 185.271 93.3191C185.462 93.5111 189.873 109.451 190.256 111.372L190.448 112.716L186.805 113.1C174.724 114.637 165.712 118.862 158.234 125.968C153.057 130.961 150.947 134.034 147.879 140.18C141.743 152.663 139.251 162.266 137.717 180.318C137.141 186.272 136.95 192.226 136.95 209.51C136.95 236.59 137.333 241.967 141.36 269.046C145.195 294.589 146.345 300.159 147.304 300.159C147.879 300.159 147.879 298.622 147.304 295.357C145.195 282.874 141.935 253.298 141.168 240.047C140.593 231.02 140.593 206.053 141.168 196.067C142.702 169.179 145.195 156.696 151.714 142.676C154.399 136.915 155.933 134.994 157.467 134.61C158.234 134.418 159.384 134.226 160.151 134.034C163.219 133.458 168.397 137.299 171.656 142.484C174.533 147.286 177.025 156.12 177.025 161.113C177.025 162.266 177.217 162.65 177.601 162.65C178.176 162.65 178.176 162.074 178.176 159.193C178.176 150.358 174.341 139.604 169.164 134.418C166.671 131.921 163.411 130.001 161.302 130.001H160.151L161.877 128.08C166.479 123.279 176.258 118.478 185.079 116.557C190.448 115.405 190.831 115.405 192.174 117.133C194.091 119.438 198.885 129.425 200.611 135.186C205.021 149.206 213.074 184.544 216.718 205.861C219.402 221.61 225.922 270.007 226.497 278.649C226.689 280.377 226.88 282.106 226.88 282.682C227.072 283.642 226.88 283.834 224.963 284.218C216.526 285.947 201.761 287.099 189.681 287.099H179.518V285.179C179.518 284.026 179.518 260.596 179.326 232.941C179.326 178.974 179.135 173.213 177.601 174.941C176.834 175.709 176.45 194.53 176.067 249.457C175.875 280.185 175.683 305.344 175.683 305.344C175.491 305.536 150.947 308.609 149.989 308.609C149.989 308.609 149.605 307.265 149.03 305.728C147.496 300.351 146.154 300.543 146.921 306.112C147.112 307.841 147.496 309.377 147.879 309.761C148.263 310.145 148.071 310.337 147.496 310.722C145.578 311.682 131.964 317.635 130.43 318.212C128.129 318.98 123.527 321.284 122.952 322.053C122.76 322.437 122.377 323.205 122.185 323.781C121.993 324.741 121.61 324.933 119.884 325.125L117.775 325.317L117.583 348.364C117.008 397.721 116.816 466.475 117.2 479.343L117.583 492.786H126.404C135.799 492.786 177.409 492.979 204.829 493.363C230.907 493.747 303.772 494.131 324.097 494.131C336.369 494.131 342.697 493.939 342.889 493.747C343.464 493.171 343.656 484.72 343.848 439.204C344.039 418.847 344.231 401.178 344.231 400.026C344.231 398.873 344.423 386.198 344.423 371.602C344.423 357.198 344.615 345.099 344.806 344.907C344.998 344.715 345.957 344.331 347.107 344.331C349.025 344.139 349.217 344.139 349.408 344.907C349.408 345.483 349.408 359.119 349.217 375.635C349.025 391.959 348.833 424.224 348.641 447.078C348.45 470.124 348.258 489.906 348.066 491.058C347.874 493.171 348.258 494.323 349.408 493.747C349.6 493.555 350.175 493.555 350.559 493.363C351.326 493.363 351.326 485.489 352.093 405.979C352.285 378.708 352.668 353.741 352.86 350.284L353.052 344.139H362.831C370.884 344.139 373.185 344.331 376.637 344.907C380.855 345.675 385.841 347.788 387.375 349.324C387.758 349.708 388.142 351.244 388.525 352.781C389.101 356.43 391.018 363.344 392.744 366.993C394.661 371.41 397.921 375.635 401.948 379.476C406.358 383.893 410.001 386.198 415.562 388.31C424.574 391.959 430.519 392.92 444.133 392.728C451.995 392.728 454.487 392.536 457.939 391.959C460.623 391.383 462.157 391.383 462.157 391.575C462.157 392.343 455.254 398.873 452.57 400.41C448.351 402.906 446.434 403.29 437.23 403.675C414.028 404.443 395.237 398.297 382.965 386.006C372.61 375.635 368.008 365.84 366.474 350.86C365.899 346.059 365.515 344.331 364.748 344.907C363.023 346.635 364.94 360.271 367.816 367.761C370.501 375.059 373.569 379.668 379.513 386.582C382.198 389.463 386.224 396.184 386.224 397.529C386.224 397.913 385.457 401.946 384.307 406.363C383.348 410.78 381.814 417.886 380.855 421.919C379.897 425.953 378.171 434.019 376.829 439.78C375.486 445.542 373.569 453.608 372.61 457.449C370.693 465.515 364.365 490.29 363.981 490.866C363.79 491.058 363.214 491.25 362.447 491.25C361.297 491.25 361.105 491.25 361.489 489.906C362.064 486.641 367.816 456.105 370.501 441.701C374.719 419.999 378.554 399.257 379.13 395.416C379.513 392.536 379.513 391.383 378.938 391.959C378.554 392.343 375.678 405.595 371.651 426.145C368.008 443.813 363.406 466.283 359.955 483.184C358.612 489.906 358.229 492.786 358.804 492.979C358.996 492.979 360.53 492.979 362.447 493.171H365.899L369.926 488.753C374.336 483.76 395.045 459.946 403.865 449.575L409.618 442.853L413.645 452.264C421.89 471.469 427.259 484.912 427.259 485.489C427.259 485.873 426.684 487.601 425.725 489.33C424.958 491.25 424.383 492.786 424.574 493.171C424.766 493.747 427.642 493.747 463.5 493.555C484.784 493.363 507.218 493.363 513.163 493.363C523.709 493.363 524.092 493.363 524.859 492.594C525.626 491.826 525.626 491.442 525.435 490.29C524.284 484.72 520.641 480.111 514.697 477.23C510.862 475.31 506.451 473.965 502.808 473.581C500.891 473.389 500.315 473.389 500.507 473.965C500.699 474.35 501.466 474.734 502.233 474.926C512.971 477.23 520.066 482.416 521.6 489.138L521.791 490.29L515.655 490.482C508.561 490.866 509.328 491.058 496.864 485.681C492.262 483.76 486.893 481.455 484.975 480.687C483.058 479.919 480.373 478.767 479.031 478.191L476.538 477.038L481.907 475.886C484.784 475.31 487.468 474.542 487.66 474.35C487.852 474.157 485.934 473.965 481.907 473.965C478.456 473.965 475.772 473.965 475.772 473.773C475.772 473.581 478.264 467.628 487.66 445.734C491.495 436.707 495.713 426.721 496.864 423.84C498.398 419.999 500.507 415.774 504.342 409.244C512.012 396.185 518.532 384.085 521.983 376.019C525.243 368.529 530.995 361.807 536.173 359.119C540.199 357.198 544.61 356.43 546.719 357.582C551.513 359.887 551.129 369.297 545.952 383.509C539.432 401.178 528.311 421.151 509.136 450.343C505.684 455.721 501.849 461.482 500.891 463.018C498.973 466.283 495.905 472.429 495.905 473.005C495.905 475.886 504.342 464.171 523.325 434.211C533.105 418.847 538.282 409.628 544.801 395.8C551.704 381.012 554.964 367.569 553.047 361.231C550.17 351.052 539.049 347.595 505.684 346.443L498.59 346.251L498.781 344.715C498.973 343.946 498.973 343.178 499.165 343.178C499.165 343.178 526.777 342.986 560.333 342.794C594.081 342.602 646.045 342.41 676.15 342.218L730.799 342.026V346.059V350.092L723.896 351.821C697.242 358.542 697.051 358.734 689.572 361.231C662.919 370.45 651.223 379.476 639.526 399.834C635.883 405.979 626.679 424.8 623.611 432.098C621.118 438.052 614.023 453.992 613.831 454.184C613.831 454.184 613.256 452.648 612.489 450.535C609.996 443.045 606.161 435.939 600.984 429.217C598.683 426.145 597.916 425.376 597.149 425.376C595.999 425.376 595.999 426.721 597.341 430.37C602.518 446.502 605.394 466.283 605.011 483.568C604.819 494.899 603.86 496.435 600.025 492.786C597.341 490.29 596.19 486.257 594.081 472.237C592.739 463.211 591.588 450.727 591.588 445.734C591.588 434.211 592.739 425.184 594.273 425.184C594.848 425.184 595.04 424.608 594.465 424.224C593.122 423.456 591.205 426.529 590.246 431.33C588.712 438.628 588.329 451.687 589.479 463.595C589.671 466.475 589.671 466.667 588.712 467.244L587.753 468.012L586.986 465.131C585.069 458.409 583.151 452.648 581.426 448.423C579.316 442.853 574.331 433.635 572.413 431.522C569.729 428.641 566.853 429.986 565.51 434.595C563.976 439.972 565.894 486.257 568.003 492.402C568.387 493.747 568.578 493.747 570.304 493.747C571.455 493.747 576.057 492.402 581.809 490.29C587.178 488.369 591.972 487.025 592.547 486.833C593.314 486.833 593.698 487.025 594.465 489.33C595.615 492.594 596.957 494.323 599.45 495.859C601.559 497.204 604.052 497.396 605.203 496.243C607.312 494.131 609.996 490.674 612.489 487.025C614.023 484.912 615.365 482.8 615.557 482.608C615.749 482.416 616.708 481.071 617.666 479.919C619.009 478.191 620.351 476.846 623.994 474.542C626.487 472.813 629.938 470.893 631.472 469.932C638.184 466.475 661.577 453.8 691.874 437.284C727.155 417.886 731.757 415.582 731.949 415.582C732.333 415.582 732.908 467.244 732.716 480.495L732.524 492.21L733.483 492.402C734.058 492.594 735.401 492.594 736.551 492.594C738.277 492.402 738.66 492.402 738.66 491.634C738.66 491.058 738.66 490.674 738.469 490.674C738.277 490.674 738.085 351.821 738.277 344.139V342.026H739.811C741.345 342.026 741.345 342.218 741.728 343.37C741.92 344.139 742.112 374.099 742.304 409.82C742.687 488.945 742.879 492.979 744.221 492.594C744.796 492.402 744.988 491.826 745.18 489.33C745.372 487.601 745.755 483.76 746.33 480.687C746.714 477.614 748.056 468.396 749.015 460.33C749.974 452.264 751.508 441.125 752.275 435.939C753.042 430.754 753.809 424.608 754.192 422.496C754.384 420.383 754.767 418.27 754.767 417.694C754.959 416.542 762.437 410.396 762.629 411.165C762.629 411.549 761.287 418.847 759.561 427.489C754.959 449.191 747.289 488.753 747.289 490.098C747.289 490.866 747.481 491.058 747.864 491.058C748.44 490.866 749.59 488.945 756.301 476.654C758.986 471.661 764.93 460.714 769.532 452.648C774.134 444.389 778.736 435.747 780.078 433.443L782.379 429.025L792.159 445.35C797.528 454.376 805.965 468.396 810.758 476.654C815.552 484.912 819.962 491.826 820.538 492.21C821.305 492.979 821.305 492.979 821.305 491.634C821.305 490.29 815.936 465.899 811.717 447.654C810.183 441.509 807.307 428.641 805.198 419.039C803.088 409.628 801.171 401.562 801.171 401.178C800.979 400.794 801.171 400.602 801.554 400.794C801.938 400.986 803.664 401.37 805.581 401.946C807.499 402.522 809.224 403.098 809.224 403.29C809.224 403.867 813.635 431.906 815.744 444.966C819.962 471.277 822.647 488.369 822.839 490.098C823.222 493.363 824.181 493.363 824.948 490.098C826.098 484.72 831.084 457.257 834.344 437.668C834.919 433.827 834.919 433.827 835.686 434.787C836.645 436.131 844.698 447.654 856.97 464.939C862.531 472.813 868.859 482.032 871.159 485.104C873.46 488.177 875.378 490.866 875.761 491.058C875.953 491.058 876.337 491.442 876.528 491.634C876.72 491.826 876.912 492.018 877.295 491.826C877.871 491.442 877.679 491.058 873.844 480.495C862.531 449.383 853.135 423.84 845.082 402.138L844.123 399.449L848.341 400.986C850.834 401.754 852.56 402.714 852.752 403.098C852.943 403.482 854.861 410.396 857.353 418.655C859.654 426.913 863.489 439.204 865.599 446.118C867.708 453.032 871.543 466.091 874.419 475.31C877.104 484.336 879.596 492.018 879.788 492.21C879.98 492.402 880.363 492.402 880.555 492.402C880.939 492.018 868.283 447.846 859.846 419.231C854.477 400.986 853.518 397.337 854.285 396.761C854.094 397.145 854.669 396.953 855.052 396.953ZM572.989 490.866C572.989 490.866 572.413 491.058 572.03 491.25C571.455 491.442 571.071 491.25 570.879 490.866C570.496 489.714 569.537 478.575 568.962 470.701C568.387 461.674 568.003 435.171 568.578 437.86C568.77 439.012 569.921 451.303 571.071 465.323C572.222 479.343 573.18 490.866 572.989 490.866ZM682.669 316.867C686.121 316.099 688.805 315.523 688.805 315.523C688.805 315.523 688.805 315.715 688.614 316.291C688.422 316.675 687.655 317.443 687.08 318.212C685.929 319.364 685.737 319.364 683.053 319.172C675.958 318.404 676.15 318.404 682.669 316.867ZM627.254 269.046C627.637 269.046 628.213 269.815 628.596 270.967C629.171 272.503 640.485 299.39 646.237 312.834C647.388 315.523 647.196 316.291 645.662 315.139C645.278 314.947 642.019 307.649 638.375 299.198C634.732 290.748 630.322 280.569 628.596 276.92C625.528 269.623 625.336 269.238 627.254 269.046ZM623.227 269.238C623.611 269.43 624.761 271.735 625.912 274.424C627.062 277.113 631.281 287.483 635.307 297.278C639.334 307.073 642.786 315.139 642.594 315.331C642.594 315.331 627.829 315.523 609.805 315.715C577.974 315.907 577.207 315.907 577.015 315.139C576.248 313.026 563.401 282.874 560.333 276.344C558.416 272.311 556.882 268.854 556.882 268.662C556.882 268.47 622.46 269.046 623.227 269.238ZM644.32 317.635V320.9V324.165H610.763H577.207L576.824 321.476C576.248 318.596 576.057 318.02 575.098 318.596C574.714 318.788 574.523 319.94 574.331 321.668L574.139 324.357H560.717H547.294L548.636 322.821C552.471 318.596 557.84 309.569 561.867 300.543C563.209 297.278 564.552 294.589 564.743 294.589C564.935 294.589 565.319 295.357 565.702 296.51C568.962 304.384 574.139 316.483 574.714 317.059C575.29 317.827 577.015 317.827 609.613 317.827H644.32V317.635ZM455.83 214.696C455.063 215.464 450.652 211.431 449.502 208.934C448.735 207.206 448.735 204.709 449.502 203.941C450.077 203.365 451.995 203.365 452.762 203.941C453.337 204.517 456.213 214.312 455.83 214.696ZM394.086 323.013C394.086 320.516 395.428 312.258 396.771 307.073C400.414 292.285 405.783 279.225 413.645 266.166C422.273 251.954 431.094 243.503 440.873 240.239C447.009 238.126 453.72 238.51 457.939 241.007C460.623 242.543 462.733 243.696 463.308 243.696C463.883 243.696 463.5 238.894 462.733 234.669C462.349 232.749 461.774 229.676 461.582 227.947C460.815 222.954 457.939 210.471 456.405 205.669L455.063 201.252L456.021 200.676C467.526 192.61 475.963 180.511 475.963 172.06V169.948L479.031 173.021C480.757 174.749 483.25 176.862 484.4 177.63C487.085 179.55 491.111 180.703 493.988 180.703H496.097L496.864 182.623C503.192 197.219 499.74 214.312 488.427 223.722C485.743 226.027 478.456 230.06 477.114 230.06C476.73 230.06 476.155 230.444 475.58 230.828C474.429 231.98 475.196 232.749 477.689 232.749C478.648 232.749 480.757 232.941 482.291 232.941L484.975 233.133L485.359 235.053C485.934 237.55 485.934 242.735 485.359 245.616C484.784 248.881 482.674 252.722 480.949 253.874C479.223 255.027 476.347 255.219 474.429 254.45C472.32 253.49 469.444 251.186 467.718 248.689C466.184 246.576 465.034 245.616 465.034 246.768C465.034 247.537 468.293 251.954 470.019 253.682C474.429 257.715 479.223 258.099 483.441 254.835C485.167 253.49 487.468 248.689 487.852 245.808C488.043 244.464 488.235 243.119 488.427 242.735C488.619 242.351 490.153 241.199 492.07 240.047C494.946 238.318 495.905 237.934 498.781 237.55C501.658 237.166 502.616 237.166 504.917 237.742C512.971 239.662 516.422 245.808 523.901 272.119C527.352 284.41 527.736 286.139 526.969 289.404C526.585 290.748 526.202 293.821 526.202 296.126C525.818 302.463 526.585 304.384 527.927 300.735C529.078 297.854 533.872 289.788 537.707 283.834C541.733 277.689 545.76 272.695 553.43 263.477C556.498 259.828 559.374 256.179 559.95 255.411C560.525 254.642 560.908 254.066 561.1 254.066C561.675 254.066 574.906 264.437 575.481 265.397C575.673 265.589 572.03 265.781 564.935 265.781C555.731 265.781 554.197 265.781 554.197 266.358C554.197 266.742 554.772 268.47 555.348 270.391C556.115 272.311 557.265 276.92 558.224 280.761C559.183 284.603 560.141 289.212 560.717 290.94L561.484 294.205L558.607 299.967C554.005 309.569 548.061 317.827 542.884 321.861L540.966 323.397H525.626H510.095L509.519 321.476C508.369 318.02 508.369 315.523 509.519 309.185C510.862 301.503 511.245 297.278 511.629 288.251L511.82 280.954H512.779C514.505 280.954 514.697 279.033 513.546 273.848C512.396 269.046 511.629 267.702 510.478 267.702C509.328 267.702 509.136 268.662 509.711 272.503C510.095 274.808 510.095 278.073 509.903 281.914C509.328 293.821 508.369 300.159 505.109 314.371C503.959 319.172 503 323.397 503 323.397C503 323.397 500.315 323.589 497.056 323.589H491.111L488.81 320.9C484.4 316.099 477.689 311.298 470.978 308.417C467.143 306.688 462.924 305.536 462.349 305.92C462.157 306.112 464.267 307.457 466.951 309.185C471.936 312.066 478.648 317.251 483.058 321.476L485.359 323.589H474.621C464.65 323.589 463.883 323.589 463.883 322.821C463.883 322.437 463.308 319.364 462.541 315.907C461.774 312.45 461.007 308.609 460.815 307.265C460.432 304.576 459.665 302.847 458.706 302.271C458.322 302.079 453.529 301.311 448.16 300.927C442.791 300.351 437.422 299.775 436.271 299.583L433.97 299.198L435.504 289.98C437.422 278.265 437.613 276.152 437.23 276.152C436.655 276.152 436.463 276.728 433.587 288.251L430.902 298.814L427.259 298.622C422.273 298.43 422.273 298.43 422.082 296.126C421.698 293.629 421.123 293.245 418.63 293.629C415.946 294.205 410.001 296.51 409.234 297.47C407.892 298.814 409.043 299.198 414.412 299.775C425.15 300.927 457.364 305.92 458.131 306.496C458.514 306.881 458.322 317.635 457.939 320.708L457.555 323.205L425.917 323.397L394.278 323.589V323.013H394.086ZM364.173 270.775C364.557 270.775 366.282 271.543 368.008 272.311C372.227 274.424 377.212 278.265 380.855 282.106C385.074 286.715 387.95 292.669 389.484 299.775C390.251 303.232 390.251 304.384 390.059 313.794L389.868 324.165H377.02H364.173V306.688C364.173 297.086 363.981 285.179 363.981 279.993C363.598 272.119 363.598 270.775 364.173 270.775ZM196.584 297.854C207.322 295.549 219.21 291.9 227.072 288.444C230.715 286.715 230.907 286.523 230.14 282.49C229.565 278.457 228.606 268.662 228.798 268.47C228.99 268.278 260.628 267.702 263.313 267.894C264.08 267.894 265.039 268.086 265.039 268.278C265.422 268.662 265.806 273.079 265.997 277.881C265.997 280.377 266.189 282.874 266.381 283.258C266.764 284.026 267.34 284.026 270.983 284.026C274.626 284.026 289.007 284.795 289.199 284.987C289.199 284.987 289.391 288.252 289.774 292.285C289.966 296.126 290.35 301.119 290.541 303.232C290.925 307.457 292.075 322.053 292.075 323.397V324.357H272.9H253.534L252.958 323.205C252.767 322.629 251.808 320.132 251.041 317.827L249.699 313.602L250.657 309.377C252.575 300.927 254.492 286.331 253.917 281.914C253.534 278.073 252.767 275.192 252.383 275.384C252 275.576 251.808 278.457 251.616 284.41C251.233 294.013 250.849 299.39 249.699 306.496C248.356 313.986 248.165 313.794 247.973 304.384C247.781 299.583 247.589 295.549 247.589 295.549C246.631 294.589 246.439 296.894 246.247 310.529L246.055 324.741H222.47C209.623 324.741 196.967 324.933 194.666 324.933L190.256 325.125L190.64 324.165C190.831 323.589 191.215 322.053 191.407 320.708L191.79 318.212L190.256 316.291L188.722 314.371L188.914 311.106C189.106 308.225 190.831 300.159 191.407 299.583C191.79 298.814 194.091 298.43 196.584 297.854ZM176.642 308.609C177.217 308.609 178.176 308.225 178.751 308.033L179.71 307.457V299.39V291.324H185.079C187.955 291.324 190.448 291.324 190.448 291.516C190.448 291.516 189.873 293.629 189.106 295.934C185.271 307.265 184.887 312.258 187.572 317.251L188.53 319.172L187.763 322.053L186.996 324.933H182.203H177.409V320.9C177.409 317.827 176.642 311.49 175.875 309.377C175.683 308.801 175.875 308.609 176.642 308.609ZM125.445 322.437C126.979 321.668 134.84 319.364 140.785 318.019C144.62 317.251 148.646 315.907 152.481 314.178C156.892 312.258 159.001 311.874 163.028 312.066C166.096 312.258 167.246 312.45 169.739 313.794C171.465 314.563 173.19 315.523 173.574 315.907C174.341 316.675 174.533 319.364 173.766 322.437L173.382 324.549H169.355C160.727 324.741 147.496 324.549 147.496 324.357C147.496 323.973 150.756 323.013 156.7 321.668C166.863 319.172 168.588 318.019 161.685 318.019C157.85 318.019 153.632 318.98 150.18 320.708C148.263 321.668 145.578 322.437 141.552 323.205C136.374 324.165 135.416 324.357 130.622 324.165C124.103 323.781 123.336 323.589 125.445 322.437ZM449.502 406.555C449.885 406.363 458.322 405.595 458.322 405.787C458.322 405.787 456.597 410.204 454.679 415.39C452.57 420.575 450.077 427.297 448.927 430.37C447.776 433.25 446.817 435.747 446.817 435.555C446.626 435.363 449.31 406.747 449.502 406.555ZM441.257 415.966L441.448 410.588L443.558 409.244C445.667 407.9 446.242 407.708 446.242 408.284C446.242 408.476 445.859 414.045 445.475 420.575C444.708 432.482 444.708 432.674 442.599 440.933C441.448 445.542 440.49 449.191 440.298 448.999C440.106 448.807 440.681 428.449 441.257 415.966ZM389.484 463.018C379.321 474.926 370.117 485.681 368.967 487.025C367.816 488.369 366.858 489.522 366.858 489.33C366.858 488.753 371.076 471.085 379.321 438.436C387.375 405.787 389.676 396.953 389.868 397.145C389.868 397.145 392.744 403.867 396.004 411.933C399.455 419.999 403.482 429.794 405.208 433.635C406.933 437.476 408.084 440.933 408.084 441.125C407.892 441.317 399.647 451.111 389.484 463.018ZM410.001 439.012C409.81 439.012 408.276 435.363 406.358 430.754C404.441 426.145 400.606 417.118 397.729 410.588C394.853 404.059 392.36 398.297 392.36 397.913C392.169 397.337 392.936 397.529 396.771 399.449C399.455 400.794 403.482 402.522 405.975 403.29C413.453 405.595 420.164 406.747 430.902 407.131L437.422 407.324L423.807 423.072C416.329 431.906 410.193 439.012 410.001 439.012ZM418.822 460.33L410.768 441.509L424.958 424.992C432.628 415.966 439.147 408.668 439.147 408.668C439.147 408.668 439.147 414.429 438.764 421.151C438.572 428.065 438.189 439.588 437.997 446.886L437.613 460.138L433.395 470.701C431.094 476.462 428.985 481.647 428.793 482.032C428.601 482.8 429.368 484.72 418.822 460.33ZM485.934 441.893C484.784 444.582 481.332 453.224 478.264 460.714C475.196 468.204 472.512 474.734 472.32 474.926C471.937 475.31 465.992 473.773 465.225 473.197C464.842 472.813 467.718 468.204 472.512 461.866C474.238 459.562 478.456 452.84 481.716 447.078C485.167 441.317 488.043 436.707 488.043 436.707C488.043 436.707 487.085 439.204 485.934 441.893ZM519.299 352.397C522.175 353.933 522.75 354.893 522.75 359.119C522.75 362.191 522.558 363.344 521.216 366.801C517.189 378.324 508.752 393.88 494.179 417.31C491.687 421.535 485.551 431.33 480.757 439.396C475.963 447.27 470.019 456.873 467.718 460.33C462.733 467.82 459.856 473.005 460.24 473.389C460.432 473.581 463.691 474.542 467.526 475.886C471.361 477.23 476.155 478.959 478.072 479.919C484.017 482.992 488.043 486.641 488.619 489.33L488.81 490.674L484.208 490.866C481.716 491.058 469.636 491.25 457.555 491.442C445.475 491.634 434.162 492.018 432.244 492.21C430.327 492.402 428.793 492.402 428.793 492.21C428.793 492.018 429.752 489.522 430.902 486.641C432.053 483.76 433.011 481.263 433.011 481.071C433.011 480.303 436.463 477.806 438.38 477.23C440.106 476.654 448.543 475.31 453.912 474.734C455.638 474.542 456.597 474.35 456.597 473.965C456.405 473.581 453.337 473.581 446.434 473.581C435.121 473.581 435.888 473.773 437.613 470.508C439.147 467.244 445.859 449.575 455.063 423.456C456.788 418.462 459.665 410.396 461.582 405.787C465.609 394.84 466.951 390.615 466.568 389.655C466.376 388.887 465.992 388.887 461.582 389.271C452.186 389.847 434.929 389.655 429.56 388.887C417.671 387.158 411.152 383.893 409.618 379.284C408.276 375.251 407.892 372.754 407.892 368.913C407.892 364.88 408.659 358.158 409.234 357.966C409.426 357.966 410.768 357.966 412.302 358.158C417.288 358.734 430.135 358.542 436.271 357.966C444.325 357.006 456.597 353.741 455.638 352.781C455.446 352.589 453.912 352.781 451.995 353.165C445.475 354.701 439.914 355.278 428.985 355.278C419.781 355.278 406.933 354.509 406.358 353.933C406.166 353.741 410.001 345.291 410.385 345.099C411.152 344.715 484.4 344.139 483.825 344.523C483.441 344.907 473.087 348.94 468.869 350.284C462.349 352.397 462.157 352.397 462.733 352.973C463.116 353.357 463.883 353.165 465.801 352.973C468.677 352.397 477.114 351.629 484.4 350.86C500.891 348.94 514.121 349.708 519.299 352.397ZM625.145 466.86C621.501 471.661 618.625 475.694 618.433 475.694C618.433 475.694 618.242 474.157 618.242 472.237C618.05 468.012 617.666 464.939 616.324 460.522L615.174 457.065L618.625 448.999C634.924 410.204 649.113 387.734 664.261 376.979C673.849 370.065 692.449 362.768 712.391 357.582C718.335 356.046 731.374 353.165 731.374 353.357C731.374 353.357 731.566 358.926 731.566 365.84L731.757 378.132L726.58 380.244C702.036 390.807 678.643 407.324 656.783 429.025C646.429 439.588 638.567 448.999 625.145 466.86ZM732.141 397.145V412.317L728.689 414.237C726.772 415.39 711.815 423.648 695.708 432.674C679.41 441.701 663.495 450.727 660.235 452.648C656.975 454.568 654.099 456.105 654.099 455.913C653.715 455.528 656.783 448.231 658.893 444.389C668.097 427.105 684.779 410.012 706.446 395.608C715.842 389.271 723.512 385.046 727.539 383.701C729.073 383.125 730.415 382.741 730.799 382.549C732.141 381.397 732.141 381.397 732.141 397.145ZM743.838 340.105C738.277 340.105 732.908 340.105 732.141 340.297C731.374 340.297 703.378 340.49 670.206 340.682C636.841 340.874 602.71 341.066 594.081 341.066C585.644 341.258 547.869 341.45 510.286 341.45C421.89 341.642 376.445 341.834 225.922 342.794C154.591 343.178 134.84 343.178 123.144 342.602L119.884 342.41L120.076 334.728L120.268 327.046L127.171 326.854C131.005 326.662 136.183 326.662 139.059 326.662C141.743 326.662 188.53 326.854 242.987 327.046L342.122 327.43L342.314 332.231C342.505 334.92 342.697 337.801 342.889 338.761C343.272 342.026 344.806 340.49 346.916 334.152C347.491 332.615 348.45 330.311 349.025 329.351L349.984 327.43H552.088H754.192L754.384 333.768L754.576 340.105H743.838ZM752.658 411.741C752.083 420.767 750.357 436.131 748.248 450.535C747.864 453.992 747.097 459.946 746.714 463.979L745.947 471.277L745.563 462.442C745.372 457.641 745.372 444.005 745.372 432.098L745.563 410.588L749.015 409.244C750.932 408.476 752.466 407.9 752.658 407.9C752.85 408.092 752.85 409.628 752.658 411.741ZM757.452 403.29C754.384 404.443 750.549 405.979 748.823 406.555C747.097 407.324 745.563 407.708 745.563 407.708C745.563 407.708 745.372 400.794 745.18 392.536L744.988 377.556L746.906 376.595C747.864 376.019 753.042 373.714 758.027 371.218C763.204 368.721 767.806 366.609 768.382 366.417C769.532 366.032 770.299 365.072 769.724 364.112C769.149 363.152 760.903 364.112 757.26 365.648C755.726 366.224 755.534 367.569 756.685 368.337C757.452 368.913 757.068 369.105 752.083 370.834C749.207 371.794 746.33 372.754 745.755 372.946L744.796 373.138V362.191V351.244L746.906 350.86C748.056 350.668 751.124 350.092 753.425 349.708C755.918 349.324 758.411 348.94 759.178 348.94C762.246 348.556 782.571 349.132 787.365 349.708C793.693 350.476 804.622 352.781 810.95 354.509C814.785 355.47 815.744 355.854 815.936 356.622C816.319 357.774 815.552 362.96 814.593 366.032C812.101 374.483 803.472 382.549 789.858 389.655C785.064 391.767 764.738 400.41 757.452 403.29ZM760.712 466.475C749.207 487.793 749.207 487.793 749.398 486.833C749.59 486.449 749.974 484.336 750.357 482.416C750.741 480.303 752.85 471.277 754.959 462.25C757.068 453.224 760.136 439.012 761.862 430.754C765.314 414.814 767.615 404.827 767.806 404.827C767.806 404.827 770.874 409.82 774.518 415.774C778.161 421.727 781.229 426.913 781.229 427.297C781.421 427.873 779.311 431.714 760.712 466.475ZM781.996 425.184C781.804 424.8 779.503 420.959 777.01 416.734C770.299 405.403 768.573 402.33 768.765 402.138C768.765 402.138 770.299 401.37 772.025 400.794L775.093 399.449L781.421 399.641C784.872 399.833 789.666 399.834 792.159 399.834H796.569L795.418 401.946C794.843 403.098 791.775 409.052 788.324 415.006C783.53 423.648 782.379 425.76 781.996 425.184ZM802.705 419.423C805.006 429.217 808.457 443.813 810.375 451.879C812.292 459.946 814.977 471.277 816.511 477.038C818.045 482.8 819.195 487.601 819.004 487.793C818.812 487.985 814.785 480.879 791.392 441.317C787.173 434.211 783.722 428.257 783.722 428.065C783.722 427.681 795.61 405.403 797.336 402.522C797.719 401.754 798.103 401.37 798.103 401.562C798.295 401.562 800.404 409.628 802.705 419.423ZM795.227 395.416H784.872L790.625 392.536C801.746 386.774 808.266 381.781 812.292 376.211C814.21 373.522 816.319 368.913 816.894 366.417L817.47 364.112L821.88 362.96C828.591 361.231 830.125 360.463 830.125 358.734C830.125 358.158 829.166 354.509 827.824 350.476C822.839 334.344 820.729 322.053 819.387 302.463L819.004 295.165L820.346 289.98C821.88 283.642 822.455 279.417 822.455 273.271V268.47L825.523 268.278C827.249 268.278 828.975 268.278 829.166 268.278C829.358 268.278 839.137 268.47 850.642 268.662C869.242 268.854 871.543 269.046 871.735 269.622C872.31 271.351 873.269 279.417 873.652 285.563C874.036 293.053 873.844 301.311 872.885 309.761C870.009 335.112 858.696 357.774 845.273 364.304C840.48 366.609 839.521 366.801 832.81 367.185L826.482 367.377L826.29 377.748C826.098 383.509 826.098 389.655 826.29 391.575L826.482 395.032L815.936 395.224C810.375 395.224 800.979 395.416 795.227 395.416ZM833.768 435.171C833.577 436.323 831.851 446.502 829.742 457.833C827.632 469.164 825.715 480.303 825.331 482.608C824.948 484.912 824.564 487.025 824.373 487.217C824.181 487.409 822.455 476.27 820.538 462.442C818.62 448.615 815.744 429.409 814.402 419.807C813.059 410.204 811.909 402.138 811.909 401.754C811.909 400.794 812.101 400.986 816.319 407.324C818.428 410.396 823.222 417.31 827.057 423.072L834.152 433.25L833.768 435.171ZM834.535 429.409C834.535 429.409 830.7 424.224 826.29 417.886C821.88 411.357 817.086 404.635 815.744 402.906L813.251 399.641L814.977 399.449C816.511 399.257 832.618 398.681 837.795 398.681C840.096 398.681 840.096 398.681 839.904 399.449C839.713 400.026 838.562 406.939 837.22 414.814C835.686 422.88 834.535 429.409 834.535 429.409ZM846.232 413.853C850.259 424.8 865.407 464.171 871.926 480.687C873.46 484.528 874.611 487.601 874.419 487.601C874.419 487.601 870.776 482.608 866.557 476.27C862.147 469.932 853.518 457.257 847.382 448.231L836.069 431.714L838.754 416.734C840.288 408.476 841.63 401.754 841.63 401.754C841.63 401.946 843.739 407.323 846.232 413.853ZM848.341 394.456C845.081 394.648 840.096 394.84 837.412 394.84L832.426 395.032L832.234 382.741C832.043 376.019 832.043 370.258 832.234 370.066C832.426 369.873 833.001 369.681 833.768 369.681C836.069 369.681 842.972 367.761 846.04 366.224C862.722 357.966 875.186 332.231 876.72 302.271L876.912 296.894L877.679 302.655C878.062 305.728 878.638 311.49 879.021 315.331C880.747 333.576 880.939 356.622 879.596 363.92C877.871 373.138 874.803 380.436 870.968 384.661C868.858 386.966 864.065 390.999 861.955 391.959C859.271 393.304 854.094 394.264 848.341 394.456ZM158.426 44.1539C157.467 43.1936 157.85 42.2334 159.768 41.2731C161.302 40.5049 163.219 40.5049 163.219 41.2731C163.219 41.4651 162.261 42.4254 161.302 43.3857L159.384 45.1141L158.426 44.1539ZM219.786 62.0147C218.827 61.2465 218.827 58.9418 219.786 58.1736C220.744 57.4054 221.895 57.5975 222.662 58.5577C224.963 60.6703 222.278 63.7431 219.786 62.0147ZM215.759 73.3457C216.718 72.1934 216.718 71.8093 216.334 71.4252C215.375 70.657 212.499 65.6637 211.924 63.7431C211.54 62.7829 211.349 61.2465 211.349 60.2862C211.349 57.7895 212.307 58.3657 213.266 61.6306C213.841 63.5511 214.8 65.2795 215.951 66.6239C218.635 69.8888 219.594 71.2331 219.402 71.6173C219.21 72.3855 215.375 75.2662 215.184 75.0742C214.8 74.8821 215.184 74.1139 215.759 73.3457ZM202.72 70.2729C200.994 70.2729 199.844 67.5842 200.994 65.8557C201.378 65.0875 203.103 64.7034 204.062 65.2795C206.171 66.816 205.213 70.2729 202.72 70.2729ZM203.679 84.4847C203.679 83.5245 203.87 83.5245 207.897 84.4847C209.623 84.8688 211.54 85.2529 211.924 85.2529C213.074 85.445 213.458 86.5973 212.883 87.3655C212.691 87.7496 211.732 88.1337 210.965 88.3257C208.089 89.094 203.679 86.7893 203.679 84.4847ZM234.934 110.028C238.002 109.836 240.686 110.22 243.563 110.988C254.684 114.637 267.34 126.544 279.42 144.405C283.255 149.974 289.391 160.537 292.075 166.107C293.034 168.219 294.76 171.292 295.719 173.213L297.636 176.669L300.129 174.365C305.114 169.948 337.136 147.478 338.287 147.67C338.67 147.67 339.437 146.901 340.588 145.365C343.848 140.372 349.984 134.994 359.955 128.849C365.324 125.392 367.049 124.624 367.049 125.776C367.049 125.968 363.79 128.465 359.955 131.345C350.942 137.875 346.149 142.1 343.848 145.173C339.246 151.319 338.862 153.239 340.78 158.617C342.314 162.842 344.615 165.723 347.491 166.875C352.093 168.795 361.489 169.372 367.049 168.027C368.583 167.643 370.309 167.259 370.693 167.259C371.076 167.067 376.253 168.603 382.006 170.332C390.251 172.828 392.552 173.597 392.744 174.173C392.936 174.749 392.744 174.941 391.21 174.557C390.251 174.365 385.266 173.021 379.897 171.484C373.569 169.756 370.117 168.795 369.734 168.987C368.583 169.564 362.256 170.524 359.188 170.524C356.311 170.524 351.901 169.948 350.175 169.372C349.792 169.179 349.025 169.948 347.683 172.252C344.998 176.477 342.122 180.318 334.452 188.769C320.838 204.133 298.787 224.682 295.91 224.682C295.527 224.682 295.335 224.874 295.527 225.451C295.719 225.835 296.677 229.292 297.828 233.133C298.978 236.974 300.512 242.543 301.279 245.616C303.389 253.49 305.306 266.742 304.347 266.742C304.155 266.742 303.772 265.397 303.388 263.477C300.896 251.762 289.966 216.424 281.913 193.954C278.269 183.967 267.723 160.153 258.711 142.292C256.026 137.107 248.74 124.623 246.439 121.743C244.713 119.63 244.521 118.286 245.864 118.094C246.822 117.902 248.74 119.63 251.424 123.663C257.177 132.306 261.587 140.564 270.599 159.769C279.228 178.398 282.488 186.08 288.049 202.789C290.158 209.126 292.267 214.696 292.651 215.08C293.609 216.232 294.376 216.616 296.677 217C299.362 217.576 301.854 216.808 304.347 214.888C311.634 209.126 339.437 181.279 344.231 174.749C345.573 173.021 347.107 170.908 347.874 170.14L349.025 168.795L347.874 168.411C347.299 168.219 346.532 168.027 346.34 168.027C345.573 168.027 341.738 164.762 340.588 163.034C339.054 161.113 336.945 154.391 336.945 152.087C336.945 151.127 336.753 150.55 336.561 150.55C336.369 150.55 334.26 152.087 332.151 153.815C329.85 155.544 323.139 160.729 317.003 165.146C303.772 174.749 301.471 176.477 296.294 181.471C294.185 183.583 292.267 185.312 292.075 185.312C291.692 185.312 292.075 182.623 293.034 178.014L293.801 174.557L291.692 170.332C289.199 165.53 282.296 153.239 279.228 148.246C278.078 146.325 275.585 142.676 273.476 139.796C258.711 120.398 246.439 111.564 233.592 111.372C232.249 111.372 231.099 111.18 231.099 110.988C231.099 110.604 232.249 110.22 234.934 110.028ZM358.996 136.339C365.132 130.193 367.625 127.312 368.583 125.392C369.542 123.279 370.309 123.471 370.309 125.584C370.309 128.08 367.433 132.114 361.68 137.875C359.188 140.372 357.078 142.484 357.27 142.676C357.27 142.868 359.188 142.676 361.297 142.292C366.282 141.716 391.402 141.524 392.169 142.1C392.552 142.292 393.703 142.868 394.853 143.253C396.004 143.637 396.962 144.213 396.962 144.405C396.962 144.789 396.771 144.789 393.894 144.213C389.868 143.253 373.569 143.637 365.132 144.789C362.639 145.173 361.872 145.365 361.872 145.941C361.872 147.094 359.188 152.087 357.078 154.584C353.243 159.193 347.683 161.497 351.326 156.888C354.777 152.471 356.503 145.365 354.586 143.06C353.627 142.292 354.394 141.14 358.996 136.339ZM397.154 149.398C403.098 150.55 405.208 151.511 403.674 152.087C403.29 152.279 400.222 151.895 396.771 151.511C388.334 150.358 382.198 149.782 376.445 149.782H371.651L371.843 151.895C372.035 153.047 372.227 154.199 372.418 154.392C372.61 154.584 376.062 154.584 380.088 154.392C387.567 154.007 400.989 154.584 402.331 155.16C402.715 155.352 399.455 155.544 394.47 155.544H385.841L391.402 156.696C398.305 158.04 399.839 158.617 399.839 159.385C399.839 160.153 399.072 160.153 393.319 159.193C388.334 158.425 375.486 156.696 373.569 156.696C372.418 156.696 372.418 156.696 372.61 159.193L372.802 161.689L378.746 161.882C385.841 162.074 396.771 163.226 397.346 163.802C397.729 164.186 396.579 164.186 393.319 163.994C390.826 163.802 386.224 163.61 382.965 163.418L377.02 163.226L380.28 164.57C384.307 166.107 393.319 170.524 393.703 171.1C394.278 172.06 392.936 171.868 389.868 170.524C388.142 169.756 384.115 168.219 380.855 167.067C377.596 165.915 374.528 164.762 373.952 164.378C373.377 163.994 372.418 163.802 372.035 163.802C371.268 163.802 371.268 163.61 371.268 160.921C371.268 158.04 370.884 153.623 370.309 148.822C370.117 147.478 370.117 146.709 370.501 146.709C370.693 146.709 371.076 146.901 371.076 147.286C371.268 147.862 372.035 147.862 377.02 147.67C383.54 147.094 388.334 147.67 397.154 149.398ZM729.073 189.921C727.539 190.497 726.58 187.04 727.922 185.504C729.648 183.583 731.374 185.504 730.415 188.193C730.032 188.961 729.456 189.729 729.073 189.921ZM746.714 191.073C744.988 192.226 743.838 189.537 744.988 187.232C745.755 185.888 747.097 185.504 748.056 186.464C748.44 187.232 747.481 190.497 746.714 191.073ZM733.483 198.563L731.757 201.252L732.908 202.02C735.209 203.749 734.058 204.709 730.99 203.749C727.155 202.596 726.964 201.252 730.032 198.371C732.524 195.875 734.25 193.186 735.017 189.729C735.784 186.848 736.551 186.656 736.743 189.345C737.126 191.65 735.784 195.106 733.483 198.563ZM747.097 208.358C747.289 209.702 744.796 212.967 743.071 213.735C740.194 215.272 736.743 213.735 737.126 210.855C737.318 209.318 737.893 209.126 738.852 210.663C739.236 211.431 739.811 211.815 740.194 211.815C740.578 211.815 741.92 210.663 743.071 209.318C745.563 207.014 746.906 206.63 747.097 208.358ZM584.11 236.974C586.986 234.093 589.287 231.404 589.479 230.828C589.863 229.676 590.438 229.676 590.438 231.02C590.438 231.98 588.137 235.629 585.261 238.894L583.535 240.815L586.411 240.047C596.19 237.55 608.654 236.782 608.654 238.702C608.654 239.086 607.312 239.278 603.285 239.47C597.724 239.662 589.863 241.199 584.494 243.119L582.001 243.888V247.152C582.001 249.841 581.809 250.993 580.85 253.106C579.508 256.179 578.358 257.907 577.782 257.523C577.399 257.331 577.782 256.563 578.358 255.027C579.7 252.146 580.083 247.729 579.316 244.464L578.741 242.351L584.11 236.974ZM732.908 249.649C733.1 249.649 733.675 251.762 734.25 254.45C735.976 261.556 740.961 273.656 746.714 283.834L748.44 286.907L749.207 285.179C750.932 281.146 752.083 274.808 752.083 270.391C752.083 265.781 750.932 252.722 750.165 246.192C749.59 241.583 747.481 235.245 747.097 237.166C747.097 237.742 747.289 240.047 747.673 241.967C748.44 245.808 749.207 256.563 748.823 257.523C748.631 257.715 748.44 258.099 748.248 258.099C747.673 258.099 745.755 252.722 744.029 246.576C743.071 243.119 741.92 239.278 741.153 237.742C740.386 236.205 740.003 234.861 740.194 234.477C740.386 234.093 740.578 234.093 740.961 234.477C741.728 235.053 743.454 238.318 743.646 239.278C743.646 239.662 743.838 240.239 744.221 240.623C744.413 241.007 744.988 242.351 745.372 243.696L746.139 246.192L745.947 240.431C745.755 235.245 745.755 234.669 746.33 234.285C747.289 233.901 748.248 234.861 749.974 238.318C751.891 241.775 752.466 244.848 753.425 253.682L754.192 260.404L755.534 257.715C757.068 254.835 758.602 252.722 759.561 252.722C759.945 252.722 759.945 253.298 758.986 254.835C758.411 255.987 757.068 258.868 756.11 260.98C754.576 264.821 754.576 265.205 754.767 267.894L754.959 270.775L755.343 268.662C756.11 263.669 760.328 252.53 761.479 252.53C762.246 252.53 762.246 252.53 760.52 257.139C759.753 259.444 758.602 263.093 758.027 265.205C756.877 270.007 755.726 277.881 756.11 278.457C756.301 278.649 761.287 283.45 767.231 289.02C781.037 302.079 786.598 307.841 790.049 312.45L791.008 313.602L790.816 311.682C790.625 309.761 791.2 308.609 792.542 308.993C793.693 309.185 794.268 310.914 794.46 315.523C794.651 318.98 794.651 320.132 794.076 321.284C793.501 322.821 792.159 323.397 792.159 322.053C792.159 320.516 789.666 316.483 786.406 312.642C784.68 310.529 777.01 302.463 769.532 294.781L755.918 280.954L754.384 283.642C753.617 285.179 751.508 287.675 749.782 289.404L746.714 292.477L747.481 293.437C747.864 294.013 750.932 298.43 754.192 303.424C765.122 319.748 774.518 332.039 778.736 336.072C781.804 338.953 784.68 340.105 787.557 339.913C789.282 339.721 790.433 339.529 791.2 338.761C792.734 337.609 792.926 337.801 792.542 339.337C792.159 340.874 789.091 342.218 785.831 342.218C783.53 342.218 782.763 342.026 780.462 340.874C775.86 338.377 769.532 331.271 759.753 317.827C756.301 312.834 747.673 299.967 746.714 298.238C746.33 297.662 745.563 296.51 744.796 295.741C744.029 294.973 743.262 293.821 743.262 293.245C743.071 292.477 743.454 288.251 744.029 286.139C744.029 285.947 742.879 283.642 741.537 280.761C738.852 275.384 736.168 269.046 734.442 263.285C733.1 258.099 731.949 249.649 732.908 249.649ZM740.961 249.073C740.961 249.073 740.578 246.768 740.003 244.08C739.044 239.086 738.852 236.59 739.236 236.013C739.619 235.629 739.811 236.398 741.92 245.616C742.879 250.225 744.029 254.642 744.413 255.219C744.796 255.987 745.18 257.523 745.18 258.676C745.755 262.901 744.413 260.98 737.126 246.768C735.209 243.311 733.867 240.239 734.058 240.047C734.442 239.662 736.743 242.351 738.66 245.808C740.003 247.537 740.961 249.073 740.961 249.073ZM589.096 245.232C593.889 243.311 601.368 241.775 610.572 240.623C611.914 240.431 613.064 240.431 613.256 240.431C613.64 240.623 612.681 241.391 611.914 241.391C608.271 241.391 600.217 243.503 591.78 246.768C587.178 248.497 585.836 248.689 585.836 247.344C585.836 246.768 586.603 246.192 589.096 245.232ZM736.359 249.073C737.51 252.146 739.236 256.563 740.386 259.06C742.687 264.053 743.071 265.397 742.304 265.397C740.961 265.397 732.524 245.232 732.524 242.159C732.524 241.775 732.716 241.391 732.908 241.391C733.291 241.391 733.867 242.543 736.359 249.073ZM611.722 243.888C615.557 242.927 617.091 242.735 617.091 243.311C617.091 243.696 614.982 244.656 610.763 245.808C609.038 246.384 603.86 247.921 599.258 249.457C592.931 251.57 590.821 252.146 590.438 251.762C590.054 251.57 590.054 250.993 590.054 250.801C590.438 249.841 600.409 246.576 611.722 243.888ZM611.914 250.993C610.763 251.57 597.916 255.411 594.656 255.987C592.355 256.371 591.78 256.371 591.78 255.219C591.78 253.874 594.848 252.914 604.436 250.801C612.106 249.073 615.174 249.265 611.914 250.993ZM662.536 312.45C663.303 312.066 663.878 311.298 663.878 310.529C664.07 309.761 664.837 308.609 665.987 307.649C668.097 305.536 675.191 301.887 680.177 300.159C683.628 299.006 690.339 297.854 691.49 298.238C691.873 298.43 693.791 298.43 695.708 298.622C699.16 298.814 699.735 298.814 704.145 300.927C706.638 302.079 709.898 303.808 711.048 304.576C712.391 305.344 713.349 306.112 713.541 306.112C713.541 306.112 713.925 304.768 714.116 302.847C714.883 298.622 716.417 292.093 721.019 274.04C726.197 254.066 726.772 252.146 728.114 250.609C729.073 249.457 730.415 248.881 730.415 249.841C730.415 250.033 730.223 250.801 729.84 251.57C729.265 252.722 727.539 259.06 720.061 288.444C717.951 296.702 716.034 303.808 716.034 304C715.842 304.192 716.226 305.152 716.993 306.112C718.718 308.609 719.677 310.529 719.294 310.722C719.102 310.914 718.527 310.722 717.76 310.337C709.898 305.728 702.42 302.079 702.42 302.655C702.42 302.847 702.611 303.039 702.803 303.232C702.995 303.424 703.378 304.192 703.57 305.344C704.721 309.569 702.036 319.364 699.543 319.364C698.776 319.364 698.968 318.596 700.119 315.715C701.844 311.106 700.694 306.688 696.667 302.847C693.791 300.159 692.64 299.775 687.271 300.543C682.478 301.119 677.3 302.847 672.315 305.536C668.672 307.457 665.029 309.953 665.412 310.337C665.604 310.529 666.563 310.145 667.521 309.569C670.589 308.033 678.834 304.576 682.478 303.424C684.779 302.655 686.696 302.271 688.997 302.271C692.065 302.271 692.449 302.271 693.407 303.232C693.983 303.808 694.558 304.384 694.558 304.576C694.558 304.768 693.024 304.96 690.915 305.152C688.422 305.344 685.737 305.92 681.902 307.073C676.15 308.801 667.138 312.258 663.878 313.794C662.728 314.371 661.769 314.755 661.577 314.755C660.81 314.755 661.385 313.218 662.536 312.45ZM787.557 300.927C786.981 300.927 786.981 300.543 787.173 298.814C787.557 295.549 789.666 287.675 792.159 280.185C796.761 266.166 801.554 258.099 806.54 254.835C807.499 254.258 808.649 253.682 808.841 253.682C809.8 253.682 809.8 254.45 808.841 254.835C807.499 255.219 804.814 258.291 802.897 261.364C798.103 268.662 791.392 286.523 788.707 298.046C788.324 300.159 787.94 300.927 787.557 300.927ZM486.51 207.59C487.852 206.63 489.194 205.861 489.194 205.669C489.194 205.669 488.81 204.901 488.427 203.941C485.167 198.755 483.441 191.457 484.784 189.729C485.167 189.345 485.359 189.153 485.359 189.153C485.359 189.153 485.742 190.497 486.126 192.226C487.085 196.451 488.81 199.908 491.111 202.404C492.454 203.749 493.029 204.901 493.029 205.285C492.837 206.053 485.743 209.894 484.592 209.894C483.442 210.086 484.017 209.318 486.51 207.59ZM491.687 190.113C492.262 188.961 493.604 189.153 494.371 190.113C495.138 191.265 495.138 192.034 494.371 192.994C493.988 193.57 493.604 193.762 492.837 193.378C491.687 192.994 491.111 191.265 491.687 190.113ZM475.963 194.914C475.963 194.338 476.155 193.762 476.538 193.378C476.73 193.186 477.306 192.802 477.881 192.802C479.607 192.802 480.373 194.722 479.031 196.451C477.689 198.179 475.963 197.219 475.963 194.914ZM479.607 214.888C481.14 216.424 481.14 216.616 483.441 216.424C485.359 216.232 485.742 216.424 486.126 217C486.509 217.576 486.51 217.961 485.551 218.537C484.209 219.689 481.332 219.497 479.607 218.537C477.689 217.384 476.347 214.504 477.306 213.543C477.881 213.159 477.881 213.159 479.607 214.888ZM437.997 250.225C437.805 248.881 437.613 247.344 437.613 246.96C437.613 245.808 438.764 246.192 439.531 247.537C441.64 251.762 442.024 267.702 439.914 266.934C439.531 266.742 439.339 264.629 438.956 259.636C438.764 255.795 438.38 251.57 437.997 250.225Z" fill="#231F20"/>
</svg>
