<svg width="1000" height="500" viewBox="0 0 1000 500" fill="none" xmlns="http://www.w3.org/2000/svg">
<path d="M588.944 122.762C588.776 122.93 588.944 123.603 589.28 124.611C589.617 125.62 589.785 128.982 589.953 132.68C590.121 136.21 590.457 139.909 590.625 140.917C591.97 147.137 596.677 155.71 601.552 160.585C604.578 163.611 606.595 164.956 613.823 168.486C620.379 171.68 623.237 173.697 625.759 176.723C626.431 177.732 627.272 178.404 627.44 178.236C627.776 178.068 626.095 175.042 624.582 173.361C622.733 171.176 620.043 169.495 615.672 167.309C611.134 164.956 605.922 161.594 603.233 159.072C600.543 156.551 597.685 152.516 595.5 148.65C592.642 142.934 591.634 139.572 591.298 132.848C590.961 128.646 590.625 125.788 590.121 124.275C589.953 123.771 589.953 123.771 590.625 124.107C591.97 125.116 602.897 129.654 607.099 131.167C609.453 132.008 612.478 133.184 613.655 133.857C620.211 137.219 625.591 142.094 628.28 147.809C629.793 150.835 631.138 154.87 631.474 157.727C631.978 161.258 631.642 167.646 630.802 172.857L630.129 176.891L629.625 175.378C627.608 169.999 623.405 161.93 619.707 156.551C616.009 151.003 610.293 144.111 603.065 136.21C600.879 133.689 598.694 131.335 598.358 130.831C597.854 129.991 597.349 129.654 597.349 130.327C597.349 130.831 598.526 132.344 601.048 135.37C613.655 149.827 622.228 162.434 626.935 173.361C630.802 182.439 633.323 194.374 632.651 200.762L632.483 202.947L631.81 201.434C631.474 200.594 630.97 199.921 630.802 199.753C630.634 199.585 630.634 199.249 630.802 198.576C631.138 197.232 630.465 194.71 629.457 193.365C629.121 192.861 628.953 192.525 629.121 192.357C629.625 192.02 629.457 190.676 628.784 190.171C627.272 189.163 625.759 189.835 625.759 191.516C625.759 192.525 626.431 193.365 627.44 193.365C628.28 193.365 628.616 194.038 628.953 195.719C629.289 197.904 628.953 198.072 627.272 197.063C626.263 196.391 625.759 196.055 625.591 195.382C625.422 194.206 623.741 193.365 622.06 193.365C618.362 193.365 618.194 198.072 621.724 199.585C622.565 199.921 622.733 199.921 623.741 199.417C625.086 198.745 625.759 198.913 627.44 200.426C629.121 201.938 630.129 204.124 630.129 206.309V207.99L629.625 206.982C628.448 204.964 626.767 203.956 624.582 203.956C623.237 203.956 622.901 204.46 624.078 204.796C624.75 204.964 626.767 206.813 626.767 207.15C626.767 207.318 625.927 207.318 624.918 207.15C623.405 206.982 623.069 207.15 622.228 207.822C621.388 208.494 620.884 208.663 619.539 208.663H617.858V206.645C617.858 203.956 617.353 203.451 615.168 203.788C613.823 203.956 613.487 203.956 613.487 203.451C613.487 203.115 613.991 199.249 614.664 194.542C615.672 187.145 615.672 186.137 615.336 185.801C615 185.464 614.664 185.464 613.823 185.801C612.142 186.641 609.285 186.305 607.435 185.128L605.922 184.12H587.263C572.806 184.12 568.436 184.288 568.099 184.456C567.595 184.792 566.418 190.844 565.914 195.887L565.746 197.736L564.569 197.568C563.897 197.4 562.552 197.063 561.543 196.727C560.03 196.223 559.526 196.223 558.013 196.391C557.005 196.559 555.996 196.727 555.996 196.727C555.828 196.727 555.828 194.71 555.828 192.189V187.65L554.147 186.809C552.298 185.801 551.793 185.801 549.776 186.473C548.431 186.977 547.423 187.65 547.759 187.986C547.927 188.154 548.768 187.986 549.776 187.818C551.289 187.482 551.793 187.482 552.97 187.986C554.147 188.49 554.315 188.658 554.315 189.499C554.315 190.507 554.315 190.507 553.306 190.171C552.802 190.003 551.625 189.835 550.785 190.003C549.608 190.171 549.104 190.339 548.431 191.012C547.759 191.852 547.759 192.02 547.759 196.727C547.759 199.417 547.927 201.77 547.927 201.938C548.095 202.107 549.272 202.275 550.617 202.275C551.962 202.275 553.138 202.275 553.306 202.443C553.474 202.611 553.306 205.469 553.306 208.999L553.138 215.387H550.953C549.104 215.387 548.599 215.555 547.759 216.059C546.918 216.563 546.918 216.9 546.918 218.413V220.094L549.608 219.925C551.121 219.925 552.466 219.925 552.634 220.094C552.97 220.43 552.97 222.447 552.634 234.887C552.466 242.955 552.13 250.856 552.13 252.705L551.962 256.068H548.431H544.901L545.069 247.83C545.406 237.912 545.742 225.977 546.246 216.563C546.582 207.99 547.087 186.137 546.918 185.633C546.75 185.128 546.078 185.128 545.742 185.801C545.574 186.473 542.548 187.818 541.371 187.818C540.867 187.818 540.026 187.65 539.354 187.482C538.009 186.977 537.673 187.482 538.85 188.322L539.69 188.995L539.522 198.072C538.681 240.266 538.345 253.714 538.513 253.882C539.018 254.386 539.018 254.386 539.858 217.068C540.026 209.167 540.194 199.753 540.362 195.887L540.531 188.995H541.539H542.548L542.38 193.197C542.212 195.551 542.043 203.788 541.875 211.52C541.707 219.253 541.371 230.18 541.203 235.559C540.867 247.83 540.867 253.378 541.203 253.378C541.539 253.378 541.539 249.848 542.212 230.684C542.38 224.969 542.716 216.395 542.884 211.688C543.052 206.982 543.22 199.753 543.388 195.887L543.556 188.49L544.565 188.154L545.574 187.818L545.406 190.003C545.069 193.87 544.565 206.309 544.229 219.085C543.725 238.585 543.388 252.033 543.052 253.714L542.884 255.395H539.522C535.992 255.395 535.992 255.395 536.16 254.05C536.328 252.874 537.169 212.193 537.337 200.426L537.505 185.128L534.311 184.96C531.285 184.792 531.117 184.792 530.444 185.633C529.1 187.314 522.207 185.633 523.048 183.783C523.216 183.447 523.048 183.279 522.712 183.279C522.375 183.279 522.207 183.279 522.207 183.447C522.207 183.615 521.535 185.969 520.526 188.995C513.97 209.839 502.035 249.68 501.026 254.555L500.858 255.395L477.492 255.227C464.716 255.059 454.126 254.891 453.958 254.891C453.79 254.723 454.462 251.865 456.815 243.628C461.354 227.826 464.212 217.572 466.061 210.175C467.07 206.141 468.751 199.417 469.927 195.382C470.936 191.348 472.113 187.482 472.281 186.809L472.617 185.464H475.979C477.828 185.464 481.358 185.296 483.88 185.128C488.083 184.792 494.638 184.624 513.298 183.951C520.022 183.783 521.703 183.447 521.031 182.775C520.863 182.607 509.936 182.607 496.656 182.607C478.837 182.607 472.281 182.775 471.777 183.111C471.272 183.279 470.936 183.783 470.936 184.456C470.768 185.632 467.91 196.391 464.716 207.486C462.027 216.9 460.177 223.792 455.975 239.593C454.462 245.477 452.949 251.361 452.445 252.705L451.772 255.059L431.432 254.891C410.923 254.723 405.544 254.891 405.712 255.563C405.88 255.899 408.402 256.068 414.285 256.068C428.07 256.404 451.604 256.74 460.85 256.572C465.557 256.572 479.509 256.74 492.117 256.908C525.906 257.412 570.789 257.749 602.897 258.085C618.53 258.253 638.366 258.253 647.108 258.421C655.849 258.589 676.358 258.757 692.832 258.925C721.577 259.261 722.754 259.261 724.435 259.766C727.461 260.774 729.982 262.287 731.831 264.136C732.84 265.145 733.68 265.986 733.68 266.322C733.68 266.658 729.478 266.658 714.517 266.49C686.444 266.322 640.888 265.986 574.992 265.817C543.052 265.649 516.66 265.649 516.324 265.481C516.156 265.481 490.604 265.313 459.673 265.313H403.359V263.8C403.191 261.447 402.686 257.412 402.35 257.076C401.846 256.572 401.846 257.244 401.51 261.111C401.342 264.641 401.342 264.809 402.014 265.649C402.518 266.322 402.854 266.49 404.704 266.658L406.721 266.826L406.889 356.089C407.057 405.175 407.225 445.519 407.225 445.687C407.393 445.855 408.57 446.024 410.083 446.024H412.604V435.601C412.604 426.524 412.773 425.179 413.109 425.179C413.613 425.179 435.971 413.916 468.583 397.106C479.677 391.39 494.47 383.826 501.867 379.959C523.72 368.696 549.104 355.752 557.173 351.55C561.375 349.364 565.074 347.515 565.242 347.515C565.41 347.515 572.134 351.046 580.371 355.248C588.608 359.619 615.168 373.403 639.543 386.179C663.918 398.955 688.629 411.731 694.513 414.756C710.146 422.825 715.694 425.683 716.03 425.347C716.702 424.674 717.206 424.843 686.612 408.873C653.664 391.558 593.315 359.955 583.229 354.744C577.345 351.718 571.293 348.524 569.78 347.852L567.091 346.507L578.017 340.791C595.836 331.546 631.306 313.222 656.521 300.279C669.465 293.723 687.957 284.141 697.707 279.098L715.357 270.02L715.525 278.761C715.694 283.636 715.862 306.162 715.862 329.024C716.198 405.511 716.534 443.502 716.87 444.847C717.038 445.687 717.206 446.36 717.375 446.528C717.711 446.864 721.913 446.696 722.25 446.36C722.418 446.192 722.586 406.183 722.754 357.433C722.922 308.684 722.922 268.675 723.09 268.675C723.09 268.675 726.284 268.507 729.982 268.507L736.874 268.339V262.96C736.874 258.589 736.874 257.58 736.37 257.244C736.034 257.076 730.655 256.908 723.09 256.908H710.314L711.155 254.723C711.659 253.546 712.163 251.529 712.5 250.184C713.508 246.486 715.021 244.805 719.224 243.628C722.081 242.787 723.762 241.947 725.443 240.098C727.461 238.081 728.301 236.063 728.301 233.71C728.301 229.675 726.788 227.322 723.594 226.65C720.568 225.977 717.543 226.818 715.862 228.835C714.853 230.012 714.685 229.675 714.685 226.145C714.685 224.296 714.517 223.456 714.181 223.288C713.844 222.951 711.995 222.951 707.456 222.951H701.237L699.892 221.943C699.051 221.27 698.211 220.262 697.707 219.085L696.866 217.236L697.37 214.378C698.043 210.175 698.883 208.494 701.573 205.132C704.767 201.434 708.129 198.745 717.543 192.525C722.418 189.331 725.443 185.632 726.452 181.766C726.956 179.581 726.788 175.378 726.116 172.016C725.443 168.654 724.099 164.62 721.577 158.064C719.224 152.18 718.719 149.49 718.719 145.12C718.719 136.547 722.25 129.318 727.965 126.46C730.991 124.947 735.025 126.124 738.387 129.822C742.422 134.193 743.599 138.732 742.59 146.128C741.413 155.374 741.245 155.542 741.918 156.383C742.758 157.727 743.935 157.727 746.624 156.215C749.818 154.702 750.995 154.365 752.508 155.038C755.03 156.215 755.534 159.745 753.853 163.275C753.349 164.283 751.836 166.301 750.155 167.982C746.456 172.016 745.28 173.361 744.607 175.042C743.767 176.723 743.767 177.9 744.607 179.581C745.28 181.094 745.952 181.766 748.642 183.279C751.331 184.792 752.004 186.137 751.499 188.322C750.995 190.339 749.314 192.525 747.129 194.038C744.439 195.719 740.405 196.895 734.185 197.904C725.275 199.249 718.047 201.434 713.508 203.956C710.65 205.637 706.952 208.831 705.271 211.352C702.75 215.219 700.732 220.262 701.909 220.262C702.077 220.262 702.245 219.925 702.245 219.589C702.245 219.253 702.582 218.244 702.918 217.404C704.094 214.378 706.112 211.352 708.633 208.831C710.65 206.813 711.659 205.973 714.517 204.628C719.896 201.938 722.418 201.098 731.831 199.585C739.228 198.408 742.758 197.4 746.288 195.719C750.659 193.533 753.012 190.676 753.012 187.314C753.012 185.128 752.172 183.951 749.314 181.934C746.12 179.749 745.448 179.076 745.448 177.395C745.448 175.21 746.12 174.202 750.323 169.831C755.03 164.956 756.038 163.275 756.206 159.745C756.374 157.896 756.206 157.223 755.702 156.046C754.693 153.861 753.517 153.189 750.995 153.189C749.146 153.189 748.81 153.357 746.793 154.534C744.439 155.878 743.767 156.046 743.262 155.374C742.926 154.87 742.926 153.861 743.935 147.641C744.607 143.943 744.607 138.732 743.935 136.378C743.262 133.521 741.749 130.831 739.732 128.646C737.547 126.292 735.53 124.947 733.008 124.275C731.327 123.771 730.823 123.771 729.478 124.107C724.603 125.284 720.064 130.831 718.383 137.891C717.879 140.077 717.711 141.59 717.711 144.615C717.711 149.154 718.215 151.171 720.569 157.391C724.603 167.982 725.612 171.344 725.612 175.883C725.612 182.943 723.594 186.305 716.87 190.676C703.926 199.249 699.388 203.619 697.37 209.839C696.194 213.538 696.194 217.572 697.37 220.094L698.211 221.943L693.504 222.279C690.982 222.447 688.797 222.615 688.797 222.615C688.797 222.615 688.797 222.783 688.797 223.119C688.797 223.792 690.982 223.96 697.707 223.96C700.732 223.96 705.775 224.128 708.633 224.128L714.013 224.296V226.986C714.013 230.852 713.172 239.593 712.5 241.274C711.827 243.292 710.65 245.309 708.465 248.167C705.439 252.201 700.564 254.723 695.857 255.227C693.672 255.395 693.672 255.395 692.663 252.874C691.151 249.175 689.974 241.274 688.965 229.003C688.629 225.641 688.125 223.119 687.788 223.119C686.78 223.119 687.116 233.206 688.125 241.947C688.461 245.309 689.638 250.52 690.646 253.378L691.487 255.563H678.207C670.978 255.563 662.405 255.395 659.211 255.395L653.496 255.227L654.504 253.546C657.026 249.512 659.211 239.93 660.724 227.658C661.396 221.943 661.733 207.822 661.228 206.813L660.892 206.141L653.832 206.309C647.276 206.477 646.771 206.477 646.267 205.973C645.258 204.796 642.569 204.46 640.72 205.301C639.543 205.805 641.56 203.956 643.577 202.779C646.435 201.098 649.293 201.434 649.629 203.451C649.797 204.964 651.142 205.973 652.319 205.469C653.159 205.132 653.664 203.619 653.159 202.947C652.991 202.611 652.487 202.275 651.983 202.107C651.478 201.938 650.638 201.602 649.965 201.434C648.621 200.93 648.957 200.426 650.974 200.426C651.983 200.426 652.487 200.594 653.159 201.266C655.008 203.115 658.37 202.275 659.547 199.921C660.052 198.913 660.052 198.745 659.547 197.736C658.707 195.887 655.849 195.551 653.832 196.895C652.319 198.072 653.159 199.081 654.672 197.904C656.017 196.895 657.53 197.736 657.026 199.081C656.858 199.753 656.521 199.921 655.681 199.921C655.008 199.921 654.504 199.753 654.336 199.417C654 199.081 653.327 198.913 651.646 198.913H649.293L650.133 197.736C650.47 197.063 650.974 196.559 650.974 196.391C650.974 196.223 651.31 196.223 651.646 196.223C652.655 196.223 653.159 195.551 653.159 194.374C653.159 193.533 652.991 193.197 652.487 193.197C651.478 193.029 650.47 193.533 650.302 194.542C650.133 195.046 650.133 195.551 649.965 196.055C649.797 196.895 647.108 199.753 646.603 199.753C646.435 199.753 645.259 200.257 643.914 200.762L641.728 201.77L642.737 200.426C644.418 198.072 647.444 194.878 649.629 193.365C651.814 191.684 656.858 189.163 658.034 189.163C659.547 189.163 660.556 189.835 664.422 193.87C667.952 197.4 668.625 198.072 670.81 199.081C672.995 200.089 673.668 200.257 675.853 200.426C679.047 200.594 681.569 200.089 684.931 198.913C686.444 198.408 688.965 197.568 690.646 196.895C693.336 195.887 694.176 195.719 696.53 195.719C698.715 195.719 699.219 195.719 698.883 195.382C698.547 195.046 697.37 195.046 695.017 195.046C691.823 195.046 691.319 195.214 688.461 196.223C683.25 198.072 681.569 198.408 677.702 198.408H674.172L671.483 197.063C669.129 195.887 668.289 195.214 665.263 192.189C663.414 190.339 661.564 188.658 661.396 188.49C660.22 188.154 661.733 187.818 665.431 187.65C668.961 187.482 669.801 187.65 673.332 188.49C679.888 190.003 686.107 191.012 686.444 190.339C686.78 189.835 686.612 189.667 683.418 189.163C681.737 188.826 678.879 188.154 676.862 187.65C674.845 187.145 672.659 186.473 672.155 186.305C671.482 186.137 669.465 185.969 667.448 185.801L663.918 185.633L666.608 184.624C670.474 183.111 672.995 182.607 676.862 182.775C680.056 182.943 680.224 182.943 683.082 184.288C684.931 185.128 687.957 187.145 690.814 189.331C693.504 191.348 696.025 193.197 696.53 193.365C697.875 194.038 699.219 194.206 699.219 193.87C699.219 193.701 699.051 193.533 698.883 193.533C698.547 193.533 696.362 191.852 690.142 186.809C687.452 184.624 683.754 182.607 681.232 181.766C679.551 181.262 678.543 181.094 675.853 181.094C670.642 181.094 667.28 182.102 661.06 185.464C659.547 186.305 657.362 187.314 656.185 187.818C649.629 190.339 642.401 196.223 638.702 201.77C637.021 204.292 636.853 204.124 638.198 200.426C639.039 198.072 642.401 192.525 645.595 187.818L647.948 184.456L650.47 184.12C655.681 183.279 658.371 181.766 662.573 177.564C672.323 167.309 676.357 153.189 672.491 142.094C671.987 140.749 670.474 137.219 669.297 134.529C667.952 131.84 666.944 129.318 666.944 128.982C666.944 128.814 666.776 128.478 666.439 128.141C666.103 127.805 665.767 128.141 664.927 129.822C662.741 134.193 659.883 138.564 655.345 144.447C649.965 151.508 647.612 155.206 645.763 159.745C643.577 165.292 642.905 170.335 643.914 175.546C644.418 177.9 644.922 179.076 645.931 179.749C646.771 180.253 646.771 179.917 646.099 177.732C645.595 176.387 645.427 174.538 645.258 172.184C645.09 167.982 645.595 165.124 647.612 160.081C649.125 156.215 650.638 153.693 654.672 148.146C659.379 141.758 660.892 139.572 663.582 134.529L665.935 130.159L666.439 131.335C667.784 134.361 670.138 141.085 670.81 143.271C671.651 146.465 671.987 152.012 671.483 155.206C670.978 157.896 669.633 162.434 668.289 165.628C665.935 171.176 659.715 178.404 656.017 180.253C654.336 181.094 650.302 182.102 649.965 181.766C649.965 181.766 650.806 180.253 651.815 178.572C655.008 173.697 658.875 165.796 660.388 160.753C661.901 156.046 664.086 147.978 664.086 146.801C664.086 145.624 663.582 146.128 663.077 147.473C658.875 163.611 655.345 170.671 643.241 187.482C640.215 191.684 639.207 193.365 637.862 195.551L637.021 197.063L636.685 193.365C636.517 191.348 636.013 187.986 635.509 185.969C634.332 180.758 634.332 175.883 635.677 169.999C636.517 166.301 636.517 165.124 636.517 159.913C636.517 153.357 636.349 152.012 634.332 147.473C632.651 143.439 631.306 141.758 627.776 138.059C622.397 132.512 617.858 129.991 608.276 126.965C602.392 125.116 593.315 121.585 592.474 120.745C589.785 122.594 589.28 122.426 588.944 122.762ZM597.685 185.633C601.216 185.633 604.241 185.801 604.41 185.969C604.746 186.137 604.578 187.65 603.569 194.038C601.552 206.813 598.358 229.003 596.509 242.115C595.5 249.175 594.491 256.236 594.155 256.572C593.987 256.74 588.944 256.74 581.548 256.74L569.108 256.572V255.731C569.108 255.227 569.78 249.343 570.453 242.619C572.974 219.925 573.479 215.891 573.983 207.15C574.487 197.4 574.487 197.4 572.806 198.072C571.63 198.576 566.586 198.576 566.586 198.072C566.586 197.904 567.595 191.348 568.267 186.641L568.436 185.633L573.647 185.464C576.505 185.464 581.548 185.464 585.078 185.464C588.608 185.464 594.155 185.633 597.685 185.633ZM608.276 187.818C608.276 187.818 607.603 192.861 606.595 198.913C605.754 204.964 603.569 219.757 601.72 231.693C600.039 243.628 598.358 254.218 598.19 255.059C597.854 256.404 597.349 257.412 596.845 256.908C596.677 256.74 597.349 251.193 598.694 241.947C600.711 229.171 604.41 202.947 605.418 193.533C606.259 187.145 606.091 187.482 607.099 187.65C607.772 187.818 608.108 187.818 608.276 187.818ZM611.638 197.4C609.789 209.335 605.754 237.408 604.746 246.149C604.241 249.68 603.737 253.378 603.569 254.555C603.401 255.731 603.233 256.74 603.233 256.74C603.233 256.908 602.897 256.908 602.56 256.908C601.72 256.908 601.72 256.908 602.056 255.059C602.392 252.537 605.082 233.542 606.427 225.305C607.772 217.068 608.948 208.326 610.461 197.4C611.806 187.65 611.638 188.154 612.478 187.65C612.815 187.482 613.151 187.314 613.319 187.314C613.151 187.65 612.478 192.02 611.638 197.4ZM524.729 188.995C525.738 189.163 527.082 189.163 527.755 188.995C528.427 188.826 529.1 188.826 529.1 188.826C529.268 188.995 524.729 204.46 521.199 216.059C515.988 233.037 509.263 255.731 509.263 256.236C509.263 256.404 508.927 256.404 508.423 256.404C507.919 256.404 507.582 256.236 507.582 255.899C507.582 255.563 509.6 248.335 511.953 239.762C514.307 231.188 516.996 221.943 517.669 219.085C518.509 216.227 520.022 210.344 521.367 205.805C525.233 192.02 525.738 190.171 524.897 191.012C524.561 191.348 523.384 195.214 517.332 216.9C505.061 260.102 506.238 256.404 505.397 256.404C504.893 256.404 504.893 256.236 505.061 255.227C505.229 253.882 509.432 238.753 514.138 222.279C515.988 215.723 518.845 205.805 520.19 200.426C521.703 194.878 522.88 190.339 523.048 190.003C523.048 189.835 523.048 189.667 522.88 189.667C522.712 189.667 521.871 192.02 521.031 194.71C517.669 206.309 512.289 225.305 510.608 231.188C508.423 239.089 504.052 254.386 503.548 255.395C503.212 256.236 502.035 256.572 502.035 255.899C502.035 255.731 502.539 253.882 503.044 251.865C503.716 249.848 505.061 245.141 506.069 241.274C507.246 237.408 509.263 230.012 510.944 224.632C513.298 216.563 519.686 193.533 521.031 188.826C521.367 187.65 521.367 187.482 522.039 187.986C522.712 188.49 523.888 188.826 524.729 188.995ZM610.293 189.499C610.125 190.339 609.621 194.206 608.948 198.072C608.276 201.938 607.435 207.99 606.931 211.352C606.427 214.714 605.418 221.438 604.746 226.313C602.897 239.089 600.711 254.218 600.543 254.723C600.543 254.891 600.375 255.563 600.207 256.068C599.871 257.244 599.366 257.076 599.366 255.899C599.366 255.395 601.216 241.779 603.569 225.809C605.922 209.839 607.94 195.046 608.276 192.861C608.948 187.986 608.948 187.986 609.789 187.986C610.461 188.154 610.461 188.154 610.293 189.499ZM535.487 189.331C535.319 190.507 534.647 211.688 533.975 238.585C533.47 257.749 533.806 256.068 530.781 255.395C525.401 254.386 521.703 250.52 520.022 244.3C519.181 241.274 518.845 234.718 519.35 231.188C519.686 228.667 521.535 221.606 525.738 207.15C528.931 196.223 530.781 192.357 533.975 189.667C534.815 188.995 535.487 188.49 535.487 188.49C535.656 188.322 535.656 188.826 535.487 189.331ZM558.518 199.249C558.518 199.753 558.349 201.266 558.181 202.947C557.845 206.309 556.668 219.421 556.5 223.456C556.332 224.969 555.828 232.869 555.155 240.938C554.483 249.007 554.147 255.899 554.147 256.236C554.147 256.74 553.979 256.908 553.474 256.908C552.802 256.908 552.802 256.908 552.97 252.537C553.138 250.016 553.306 242.619 553.643 236.063C553.811 229.339 554.315 219.253 554.483 213.369C554.819 207.486 554.987 201.938 554.987 200.93C554.987 199.081 554.987 199.081 555.828 198.913C558.349 198.24 558.518 198.24 558.518 199.249ZM561.375 199.081C561.543 199.249 560.199 218.581 558.686 236.904C558.349 242.283 557.845 248.335 557.677 250.352C557.341 255.563 557.341 256.572 556.668 256.572C556.332 256.572 556.164 256.068 556.332 252.874C556.668 247.83 557.677 232.533 558.181 224.8C558.686 217.908 559.526 202.107 559.526 199.753C559.526 198.408 559.526 198.408 560.199 198.576C560.871 198.913 561.375 199.081 561.375 199.081ZM573.142 199.753C572.974 200.089 572.638 203.115 571.966 206.645C570.957 212.865 569.78 224.8 567.931 245.141C567.427 250.856 566.923 255.731 566.755 256.068C566.586 256.908 566.082 256.74 566.082 255.899C566.082 254.723 567.259 241.611 567.763 236.736C568.099 234.382 568.772 225.977 569.444 217.908C570.957 199.417 570.957 199.921 571.966 199.585C572.974 199.081 573.311 199.249 573.142 199.753ZM564.401 200.089C564.569 200.594 563.561 216.059 562.552 224.969C561.88 232.365 560.703 248.839 560.703 252.201C560.703 253.546 560.535 255.059 560.535 255.731C560.367 256.74 560.199 256.908 559.358 256.908C558.181 256.908 558.181 257.076 558.686 252.537C558.854 250.856 559.19 245.645 559.526 240.938C560.703 223.792 562.384 202.947 562.552 201.434C562.72 199.921 562.888 199.753 563.561 199.753C563.897 199.585 564.233 199.753 564.401 200.089ZM567.427 201.266C567.259 202.611 566.082 219.589 564.569 239.93C564.233 244.468 563.897 250.016 563.729 252.369L563.561 256.572H562.552C561.543 256.572 561.543 256.572 561.543 255.059C561.543 250.856 563.056 230.516 564.065 223.119C564.401 220.598 565.914 201.602 565.914 200.426C565.914 199.921 566.082 199.753 566.755 199.753C567.595 199.921 567.595 199.921 567.427 201.266ZM569.78 201.434C569.78 202.275 569.108 210.175 568.436 218.917C567.595 227.658 566.755 237.744 566.586 241.443C565.41 256.236 565.41 256.572 564.905 256.74C564.233 256.908 564.233 256.908 564.737 251.361C565.074 247.662 567.091 223.456 568.267 205.132C568.604 200.426 568.772 199.921 569.276 199.921C569.612 199.921 569.78 200.089 569.78 201.434ZM616.009 208.831C615.672 214.042 615.168 226.818 614.832 241.106C614.664 248.671 614.496 255.395 614.328 255.899L614.159 256.908H609.789H605.418V255.899C605.418 254.723 606.091 254.218 607.603 254.218C608.276 254.218 608.78 254.05 608.948 253.882C609.116 253.714 609.285 250.016 609.453 245.813C609.957 226.65 610.461 220.094 612.647 206.982C612.815 205.973 612.815 205.973 614.328 205.973H615.841L616.009 208.831ZM652.487 210.512H657.698L657.53 215.555C656.858 230.852 654.336 246.149 651.31 253.042C649.629 256.74 647.948 257.412 641.392 257.412C636.013 257.412 634.332 257.076 631.474 255.731C628.953 254.555 625.422 251.361 623.573 248.671C620.716 244.3 618.362 238.417 617.522 233.037C617.185 230.684 617.185 228.499 617.353 223.456C617.522 219.925 617.69 215.555 617.69 213.706V210.512H632.483C640.552 210.344 649.629 210.512 652.487 210.512ZM723.594 231.02C725.275 232.701 725.78 236.063 724.435 238.585C723.258 240.938 720.4 242.956 717.375 243.628C715.694 243.964 716.03 243.46 717.711 242.787C721.241 241.611 723.762 238.585 724.099 235.391C724.267 233.71 724.267 233.542 723.426 232.701C721.745 231.02 719.224 231.02 717.543 232.533C716.366 233.542 715.189 235.559 714.517 237.408L714.181 238.753V237.24C714.181 234.887 715.357 232.701 717.375 231.188C718.887 230.18 719.056 230.18 720.905 230.348C722.418 230.18 723.09 230.348 723.594 231.02ZM722.754 233.206C724.099 234.382 723.762 236.063 721.577 238.753C720.064 240.77 716.534 242.115 715.694 241.106C714.853 239.93 716.03 235.223 717.879 233.71C719.224 232.197 721.409 232.029 722.754 233.206ZM472.953 268.171C499.682 268.339 543.725 268.507 570.957 268.675C598.19 268.843 620.379 268.843 620.547 269.011C620.716 269.011 636.853 269.18 656.353 269.18C676.021 269.18 697.034 269.348 703.086 269.348L714.181 269.516L694.344 279.77C683.418 285.317 665.431 294.731 654.336 300.447C612.31 322.3 565.41 346.171 564.905 346.171C564.569 346.171 536.16 331.546 491.108 308.011C437.652 280.106 439.669 281.115 416.975 269.18L413.949 267.498L419.16 267.667C421.85 267.835 446.225 268.003 472.953 268.171ZM409.074 269.348L410.419 270.02V291.705C410.419 303.641 410.587 342.808 410.587 378.446L410.755 443.502L409.915 444.511C409.41 445.015 408.906 445.519 408.57 445.519C408.402 445.519 408.066 445.687 408.066 445.855C408.066 446.024 407.898 446.192 407.561 446.192C407.225 446.192 407.057 436.105 407.057 357.433C407.057 308.516 407.225 268.675 407.225 268.675C407.729 268.675 408.402 269.011 409.074 269.348ZM431.768 278.761C446.561 286.326 528.427 329.024 557.677 344.489C562.216 346.843 562.72 347.179 562.216 347.515C561.88 347.683 557.341 350.037 552.13 352.727C542.38 357.77 512.289 373.235 497.832 380.8C493.294 383.153 479.677 390.213 467.742 396.265C455.639 402.485 441.518 409.881 436.139 412.571C430.759 415.429 424.372 418.791 421.85 419.968C419.329 421.312 416.135 422.993 414.79 423.666L412.268 425.011V411.394C412.268 403.83 412.268 368.696 412.1 333.059V268.171L418.32 271.365C421.514 273.55 427.566 276.576 431.768 278.761ZM718.719 271.197C719.056 271.365 719.56 272.205 719.896 272.878C720.4 273.886 720.4 280.947 720.4 359.955V445.855L719.056 446.024L717.711 446.192V442.157C717.711 439.972 717.543 437.955 717.543 437.786C717.206 437.282 716.87 392.567 716.534 320.787L716.366 270.692L717.206 270.861C717.711 270.692 718.383 270.861 718.719 271.197Z" fill="#C5C7C8"/>
<path d="M346.373 222.614C340.154 222.783 335.111 222.951 334.942 222.951C334.774 223.119 334.774 223.287 334.942 223.455C335.111 223.623 341.33 223.791 348.895 223.791C356.46 223.791 362.679 223.959 362.679 223.959C362.679 223.959 362.343 226.145 362.007 228.834C361.503 231.524 360.326 239.257 359.485 245.981C358.477 252.705 357.636 258.42 357.468 258.42C356.796 259.093 350.744 255.226 347.55 251.864C344.861 249.175 343.348 247.157 341.162 243.795L339.817 241.61L339.986 243.963C340.154 245.308 340.658 249.007 341.162 252.537C341.835 256.571 342.003 258.757 341.835 259.093C341.498 259.429 341.33 258.925 338.809 244.972C337.632 238.92 336.624 233.205 336.287 232.364C336.119 231.524 335.783 230.347 335.615 229.507C335.447 228.834 335.111 226.985 334.774 225.472C334.102 222.783 334.102 222.783 333.598 223.287C332.925 223.959 332.757 225.304 333.43 227.994C333.934 230.515 333.934 230.683 333.598 230.179C333.43 230.011 332.589 229.675 331.917 229.507C329.395 228.666 325.529 230.515 324.352 233.037C323.343 235.39 323.68 239.089 325.361 242.451C326.369 244.3 327.882 245.981 332.589 250.519C334.942 252.705 337.128 255.058 337.464 255.563C337.8 256.067 338.305 257.58 338.473 258.925C338.641 260.269 339.145 261.614 339.313 261.95C339.986 262.623 350.912 262.791 355.955 262.119L359.485 261.782L359.654 260.774C359.99 259.765 362.343 241.442 363.52 230.683C364.529 221.606 364.697 222.11 360.662 222.11C358.813 222.278 352.425 222.446 346.373 222.614ZM332.757 232.196C333.261 232.533 333.934 233.037 334.27 233.541C334.774 234.214 337.128 249.847 336.792 250.183C336.455 250.52 330.404 245.645 329.227 244.3C327.378 242.114 326.033 239.425 326.033 237.576C326.033 233.205 329.731 230.347 332.757 232.196Z" fill="#C5C7C8"/>
<path d="M826.474 91.4971C825.129 86.1178 824.961 83.4281 825.297 80.4023C825.802 77.3764 826.642 75.3592 828.323 73.8463C830.004 72.1653 832.022 71.4929 834.207 71.661L835.888 71.8291L836.896 70.148C838.241 68.1308 841.267 65.1049 843.452 63.9282C845.47 62.7515 849 61.5748 852.194 61.0705C855.388 60.3981 862.112 60.5662 864.465 61.4067C868.668 62.7515 872.702 65.4412 875.728 69.4756C879.09 73.6782 880.603 77.2083 883.965 88.3031C885.982 95.1953 886.823 97.0445 888.504 99.7341C890.185 102.424 892.202 104.441 896.069 107.131C899.935 109.82 900.944 110.997 902.288 113.855C902.961 115.536 903.129 116.04 903.129 118.73C903.129 122.26 902.456 124.445 900.775 126.967C897.75 131.674 891.866 134.195 886.487 133.018C885.142 132.682 883.965 132.514 883.629 132.346C883.125 132.178 883.125 132.178 883.461 132.682C883.629 133.018 884.301 134.027 884.974 135.036C885.814 136.212 886.151 136.885 885.982 137.389C885.814 137.725 884.974 139.406 884.133 141.087C877.914 152.855 868.164 160.755 861.776 159.242C858.75 158.57 856.733 156.217 856.564 152.855C856.396 151.005 857.069 151.174 857.909 153.191C859.086 156.217 861.103 157.561 864.297 157.057C870.181 156.217 879.09 147.139 883.293 138.061L884.301 135.708L882.957 133.859C878.418 127.807 875.392 120.915 873.711 112.846C872.534 107.299 872.534 106.458 873.375 105.281C874.551 103.769 875.56 101.751 875.56 100.743C875.56 98.3893 874.047 96.0358 872.702 96.0358C872.198 96.0358 871.021 96.8764 869.508 97.885C866.819 99.9022 866.146 100.238 864.633 99.9022C863.457 99.7341 861.271 97.5488 861.271 96.7082C861.271 96.372 861.103 96.2039 860.767 96.5401C860.431 96.7082 858.582 97.3807 856.733 98.0531C853.707 99.0617 852.866 99.2298 850.345 99.2298C845.806 99.2298 841.099 97.5488 838.746 94.8591L837.569 93.5143L837.233 95.0272C837.065 96.0358 837.065 98.2212 837.233 100.07C837.401 102.76 837.569 103.937 838.409 106.122C840.259 111.165 840.931 113.182 842.276 118.225C844.629 126.631 847.151 131.505 849.84 133.018C853.371 135.204 860.095 133.691 866.819 129.32C869.676 127.471 869.676 128.984 867.155 132.514C864.297 136.212 862.28 138.398 861.271 138.902L860.263 139.238V142.096C860.263 144.618 860.095 145.122 859.422 146.299C858.582 147.811 857.909 147.98 858.414 146.803C858.918 145.29 858.75 139.911 858.077 138.061C857.741 137.221 857.405 136.38 857.237 136.38C857.069 136.38 856.228 136.549 855.388 136.717C853.539 137.053 850.849 136.717 849.168 135.876C847.991 135.204 845.638 132.85 845.134 131.674C844.797 130.833 844.797 130.833 843.957 131.505C840.931 133.691 837.905 134.027 834.711 133.018C832.526 132.346 830.004 129.993 828.828 127.639C826.306 122.932 825.97 118.225 827.315 108.644C828.155 101.415 827.987 98.0531 826.474 91.4971ZM856.06 107.299C856.396 105.618 855.22 104.777 853.875 105.45C853.202 105.954 853.202 107.467 853.875 108.307C854.883 109.316 855.724 108.98 856.06 107.299ZM846.983 117.889C847.319 119.066 849.504 119.402 851.521 118.73C853.034 118.225 852.698 117.553 851.017 117.553C848.832 117.553 848.664 117.385 849.168 115.368C849.672 113.182 849.672 111.165 849.168 109.148C848.327 106.626 847.487 105.281 846.983 105.954C846.815 106.122 846.983 106.963 847.319 107.971C847.991 110.493 847.991 113.519 847.319 115.536C846.983 116.544 846.815 117.553 846.983 117.889ZM842.108 108.98C841.099 109.988 842.444 112.174 843.621 111.501C844.293 110.997 844.461 109.652 843.789 109.148C843.284 108.475 842.78 108.475 842.108 108.98ZM855.22 126.631C856.733 125.118 857.405 122.26 856.564 121.419C856.06 120.915 856.228 120.915 853.202 122.428C850.681 123.773 849.84 124.277 850.177 124.613C850.345 124.781 851.353 124.277 852.53 123.773C854.883 122.764 855.22 122.932 854.211 124.445C853.034 126.294 851.353 126.631 850.177 125.118C849.168 123.941 848.327 124.277 849 125.622C850.345 128.48 853.202 128.816 855.22 126.631ZM944.314 191.686C943.642 194.712 941.961 203.453 940.448 210.85C936.245 231.863 923.637 294.229 921.788 302.634C920.612 307.845 920.444 308.181 919.435 305.66C918.09 301.625 915.737 298.936 912.206 297.087C910.357 296.246 909.853 296.078 906.323 295.91C900.944 295.574 898.926 295.742 882.789 298.431C878.586 299.104 870.013 300.281 863.961 301.121C857.909 301.962 851.858 302.802 850.513 302.97C845.638 303.811 842.276 304.147 833.871 304.315L825.297 304.483L824.625 305.324C823.784 306.5 824.121 307.509 825.634 308.181C828.659 309.358 838.577 309.862 858.75 309.862C867.323 309.862 881.612 310.031 890.689 310.367C909.349 310.871 913.383 310.703 916.745 309.358C919.939 308.013 919.771 308.013 919.603 309.862C919.435 312.216 918.931 312.552 915.232 313.056C913.551 313.224 911.534 313.393 910.862 313.393C909.853 313.393 909.685 313.561 909.853 313.897C910.189 314.905 913.383 337.767 919.099 379.961C922.125 402.487 925.318 425.685 926.663 436.107C928.176 446.866 928.176 446.698 927.672 446.698C926.327 446.698 926.159 446.026 925.487 441.151C924.814 435.771 920.443 402.151 917.249 378.616C916.073 369.875 914.392 357.435 913.551 351.048C911.702 337.767 911.03 334.237 908.676 329.362C906.491 324.824 902.457 318.772 903.129 320.957C903.297 321.293 903.465 322.134 903.465 322.974C903.801 324.824 909.517 358.948 909.685 360.125C909.853 360.798 909.685 360.966 909.349 360.966C908.844 360.798 908.34 358.108 905.314 340.121L901.784 319.276L900.775 318.436C900.271 317.931 899.767 317.595 899.599 317.763C899.599 317.763 900.103 320.957 900.775 324.824C901.448 328.69 904.306 345.332 907.163 361.806C910.021 378.28 913.888 400.638 915.737 411.565C917.586 422.323 919.771 434.763 920.443 439.133C921.116 443.504 921.788 447.202 921.62 447.538C921.452 447.875 921.116 448.043 920.78 447.875C919.939 447.707 919.939 447.37 916.409 425.853L914.224 413.246H894.388H874.047V425.349C874.047 431.905 873.879 438.125 873.879 438.965L873.711 440.478L870.685 440.646C867.995 440.646 867.659 440.646 867.323 440.142C867.155 439.806 866.987 433.586 866.819 426.526L866.651 413.414H846.983C836.224 413.414 827.315 413.414 827.315 413.582C827.315 413.918 823.784 435.267 822.944 440.478C821.935 446.53 821.431 447.707 820.759 447.034C820.254 446.53 820.759 442.495 823.616 425.349C824.457 419.97 825.297 414.758 825.465 413.75C825.634 412.573 825.97 410.556 826.306 409.043C826.642 407.53 827.819 399.965 828.996 392.233C830.172 384.5 832.862 367.185 835.047 353.905C839.082 328.858 841.099 315.746 841.099 315.242C841.099 315.074 840.427 315.41 839.586 315.746C836.896 317.259 832.021 322.974 831.181 325.832C831.013 326.505 830.172 332.892 829.164 340.289C825.802 366.849 816.556 435.939 815.716 441.823C815.043 446.53 814.875 446.866 814.371 446.866C814.034 446.866 814.035 446.53 814.035 445.017C814.707 438.125 821.263 386.685 825.297 355.25C827.483 338.272 830.509 314.065 830.509 313.393C830.509 313.056 830.004 312.888 828.491 312.552C823.616 311.712 820.254 309.022 820.254 305.996C820.254 304.819 820.422 304.819 808.319 304.315C797.56 303.979 788.483 304.315 785.457 305.156C784.617 305.324 783.104 305.828 782.095 305.996C781.086 306.164 779.91 306.332 779.573 306.5L778.901 306.668L779.742 309.694C782.095 318.268 783.104 329.699 783.776 355.754C784.112 370.379 784.448 373.91 786.298 382.987C786.97 386.349 787.474 389.543 787.474 389.879C787.474 390.384 787.138 391.056 786.802 391.392C786.129 392.065 786.129 392.065 786.97 393.073C787.474 393.578 789.155 395.259 791.004 396.771C792.854 398.284 794.703 400.134 795.207 400.974C796.048 402.151 796.216 402.487 796.048 404.168C796.048 406.69 795.207 408.371 792.349 412.909C791.004 414.927 789.323 418.121 788.483 419.802C781.254 434.931 778.565 438.965 773.858 442.159C771.673 443.672 770.832 443.672 769.655 442.664C768.479 441.655 768.479 441.487 769.319 437.789C769.655 436.276 770.328 432.577 771 429.551C772.009 424.172 772.009 424.004 772.009 414.59C772.009 406.69 772.009 404.504 771.336 401.31C770.664 397.612 770.664 397.612 769.824 397.276C769.319 397.108 768.479 396.771 768.142 396.267C767.47 395.595 767.302 395.09 767.134 392.905C766.798 388.366 765.453 383.323 763.268 376.935C760.242 368.362 757.72 362.647 752.005 351.216C747.802 342.811 746.625 339.785 744.44 333.061C743.599 330.539 742.927 328.522 742.759 328.354C742.423 328.018 736.875 334.237 733.009 339.112C731.328 341.298 729.815 343.147 729.647 343.315C728.975 343.819 729.143 343.147 729.983 341.466C732.673 336.927 736.707 320.621 738.22 309.358C739.397 300.785 741.078 294.901 743.768 290.867C746.625 286.664 753.518 280.949 758.393 278.595C761.082 277.419 767.974 275.233 772.345 274.393C773.69 274.057 776.548 273.888 778.397 273.72L781.927 273.552L783.272 272.207C784.448 270.863 785.289 269.182 785.793 267.164C785.961 265.988 786.634 266.492 786.634 267.669C786.634 269.686 786.97 270.694 788.651 272.207C790.668 274.225 792.517 275.233 796.384 276.242C801.595 277.587 810 280.613 817.228 283.302C831.685 289.018 840.595 292.044 849.168 294.229C862.784 297.591 876.737 297.255 888.504 293.22C893.211 291.707 896.741 289.858 897.582 288.681C897.918 288.177 898.254 287 898.422 285.656C898.926 281.621 897.918 277.25 894.388 269.182C893.547 267.332 893.379 266.492 893.715 266.324C893.883 266.156 894.219 266.324 894.388 266.66C896.573 270.358 898.422 272.712 903.465 278.427C907.668 283.134 912.879 291.203 912.879 293.052C912.879 293.725 913.215 293.725 914.56 293.22C915.232 293.052 915.737 292.38 915.905 292.044C916.073 291.707 916.577 289.018 916.913 286.328C917.922 279.772 917.922 273.216 916.913 269.518C916.577 268.173 916.241 266.492 916.073 265.82C915.905 265.147 915.232 262.626 914.56 260.104C913.887 257.582 912.206 251.699 911.03 246.824C907.163 231.358 905.314 221.945 904.81 214.38C904.474 210.346 904.474 209.841 903.801 209.337C903.465 209.001 902.961 208.833 902.625 208.833C901.952 208.833 899.935 210.178 899.094 211.186C898.254 212.195 895.396 217.574 890.185 227.828C883.293 241.781 880.435 245.311 876.401 245.311C874.383 245.311 872.534 244.134 871.021 241.781C869.845 240.1 869.845 239.932 866.819 238.923C862.616 237.41 858.414 235.057 852.026 230.182C843.957 224.13 843.452 223.794 843.789 224.298C843.957 224.802 846.478 231.022 846.983 232.367C847.991 234.721 849 238.923 849.336 241.949L849.504 243.63L851.858 243.798C857.741 244.302 868.668 246.992 873.879 249.009C879.426 251.195 883.797 254.052 888.336 258.759C890.857 261.281 891.866 262.794 891.362 263.13C891.194 263.13 890.017 261.953 888.504 260.44C886.991 258.927 884.638 256.91 883.125 255.901C879.931 253.884 874.383 251.195 870.853 250.018C864.97 248.169 856.06 246.32 850.177 245.983C848.496 245.815 843.789 245.479 839.418 244.975C835.215 244.639 828.491 243.966 824.625 243.63C820.759 243.294 815.716 242.789 813.362 242.453C811.009 242.117 805.293 241.949 800.418 241.781C784.448 241.445 775.035 242.789 768.142 246.32C767.302 246.824 766.461 246.992 766.461 246.824C765.957 246.32 768.647 244.302 771.673 242.958C777.892 239.932 784.448 238.923 798.065 238.923C805.293 238.923 807.983 239.091 817.397 239.932C828.996 241.108 833.871 241.613 835.72 241.781C837.065 241.949 837.233 241.613 837.233 239.595C837.233 236.57 837.065 236.065 835.047 235.057C830.172 232.535 824.289 227.156 816.052 218.078C808.991 210.178 806.638 207.992 799.746 202.613C790.836 195.553 788.987 193.703 786.466 188.324C785.793 186.811 784.448 184.626 783.608 183.617C782.095 181.768 779.069 176.389 779.069 175.38C779.069 174.372 779.573 174.876 780.582 176.557C781.086 177.566 781.591 178.238 781.591 178.238C781.591 178.238 781.423 177.398 781.255 176.389C780.918 175.38 780.75 173.531 780.75 172.186C780.75 170.001 780.918 168.992 782.095 165.63C783.44 161.428 786.634 154.704 787.306 154.536C787.979 154.367 787.81 155.544 786.634 158.57C783.776 165.967 782.767 169.497 782.767 172.018C782.767 175.212 783.272 176.557 787.306 184.962C789.66 189.837 790.836 192.022 792.013 193.199C793.358 194.544 796.384 197.234 805.293 204.798C807.983 207.152 813.362 212.363 818.069 217.91C822.776 223.29 827.651 227.828 831.853 231.022C834.879 233.208 839.418 235.897 840.259 235.897C840.763 235.897 841.267 231.695 841.099 229.173C840.763 226.483 840.427 224.802 839.754 222.617C839.25 221.104 838.746 220.6 836.728 218.919C835.384 217.91 833.03 215.725 831.349 214.38C829.668 212.867 825.802 209.673 822.608 207.152C811.177 197.57 805.125 191.518 801.931 185.803C801.091 184.29 799.41 181.6 798.233 179.751C797.056 177.902 795.375 175.044 794.703 173.363C793.022 169.833 793.022 168.656 793.694 162.436C794.367 157.225 794.703 158.066 794.871 164.454L795.039 169.665L795.375 166.303C795.543 164.454 795.711 160.755 795.711 158.234C795.711 155.712 795.711 153.695 795.879 153.695C796.216 153.695 796.888 155.376 797.224 157.561C797.56 160.083 797.392 166.303 796.72 169.833C796.384 171.682 796.384 172.354 796.72 173.195C797.224 174.708 802.772 184.794 804.789 187.484C807.815 192.022 814.371 198.074 822.608 204.462C824.793 206.143 829.164 209.673 832.19 212.195C835.215 214.716 840.09 218.415 842.78 220.6C845.47 222.617 849.84 225.979 852.194 227.996C859.758 234.048 865.138 237.242 869.004 238.083C870.853 238.419 870.853 238.419 872.534 237.578C878.082 234.552 878.754 227.156 874.047 220.096C867.827 210.85 860.095 205.471 843.284 198.915C835.552 195.889 829.5 192.863 824.793 189.837C821.431 187.652 818.909 185.466 818.909 184.794C818.909 184.122 819.246 184.29 820.591 185.298C821.935 186.307 828.491 190.341 828.659 190.173C828.828 190.005 831.349 182.441 831.349 181.936C831.349 181.6 830.34 181.432 825.129 181.432H818.909L819.078 182.104C819.078 182.441 819.078 182.777 818.741 182.945C818.237 183.113 817.901 181.936 817.228 177.902C816.892 175.716 816.22 174.035 814.707 170.842C812.69 166.471 811.513 162.773 811.513 160.755C811.513 158.906 812.017 159.411 812.69 161.764C813.026 162.941 814.371 165.967 815.716 168.488C817.06 171.01 818.069 173.699 818.237 174.372C818.405 175.212 818.741 175.716 820.254 176.893C821.263 177.734 822.608 178.406 823.28 178.574C824.625 178.91 830.509 179.751 830.677 179.583C830.677 179.583 828.659 172.691 826.306 164.454C823.784 156.217 821.263 147.307 820.422 144.786C819.078 140.247 819.078 140.079 818.237 140.079C817.733 140.079 812.017 140.415 805.461 140.919C782.263 142.768 771.336 143.609 770.664 143.273C770.16 143.105 770.16 142.936 770.496 142.6C770.664 142.432 770.832 142.096 770.664 142.096C770.496 142.096 770.496 141.928 770.664 141.76C771 141.424 783.104 140.247 801.931 138.734C807.479 138.23 813.194 137.893 814.707 137.725C818.741 137.389 819.414 137.389 819.75 137.725C819.918 137.893 820.086 138.23 819.918 138.566C819.75 138.734 820.59 141.76 821.767 145.29C822.944 148.82 825.634 157.561 827.819 164.958C830.004 172.354 832.021 178.406 832.021 178.406C832.358 178.742 831.685 175.548 830.34 170.169C826.81 157.393 823.448 145.626 822.272 142.264C820.591 137.557 820.59 137.725 820.927 137.725C822.44 137.725 825.97 148.484 831.013 168.152C832.021 172.018 832.862 175.212 833.03 175.212C833.198 175.212 833.871 173.363 834.543 171.01C836.224 165.294 838.746 159.747 841.267 156.048C842.948 153.695 844.797 151.51 849.672 146.635C853.202 143.105 856.06 140.415 856.228 140.415C856.564 140.751 854.211 144.113 850.681 147.98C848.496 150.333 845.974 153.359 844.965 154.704C841.771 158.906 839.082 164.79 836.56 173.195C835.047 178.07 832.862 184.794 831.685 187.484L831.013 189.165L832.862 188.997C835.215 188.66 836.392 187.988 837.737 185.971C840.259 182.272 841.267 179.079 842.948 170.169C843.789 165.462 844.293 165.462 844.293 170.337C844.293 176.725 842.444 184.29 839.418 190.51C838.409 192.695 837.569 194.376 837.737 194.544C837.737 194.544 840.931 195.889 844.797 197.402C851.858 200.259 856.564 202.445 860.095 204.63L862.112 205.807L862.784 205.134C864.97 202.781 868.332 194.04 872.366 181.432C875.56 171.178 876.064 169.833 878.25 166.303C880.603 162.436 884.301 158.57 884.974 159.242C885.142 159.411 884.47 160.251 883.629 161.428C881.78 163.949 879.426 167.816 878.586 170.169C878.25 171.178 876.737 175.548 875.224 180.087C872.198 189.837 870.181 195.384 867.995 200.091L866.483 203.453L868.5 205.639C873.711 211.354 878.586 221.272 878.586 226.483C878.586 227.324 878.754 229.509 878.922 231.19C879.258 234.048 878.922 239.259 878.418 241.108C878.082 242.117 879.595 240.1 881.612 237.41C883.461 234.721 900.439 201.1 902.456 196.225C908.34 182.272 909.853 169.497 906.659 160.251C904.81 155.04 903.297 153.023 896.741 147.643C890.353 142.432 886.823 138.902 887.327 138.398C887.663 138.061 888.84 138.902 897.918 146.13C903.297 150.333 905.146 152.35 906.827 155.544C908.172 158.234 909.853 163.445 910.357 166.639C910.862 170.505 910.525 176.725 909.517 181.264L909.349 181.936H926.327C941.624 181.936 943.305 181.936 943.81 182.441C944.314 182.945 944.146 183.113 943.137 184.122C941.793 185.466 941.793 185.803 938.43 202.109C936.413 212.027 930.362 241.108 925.15 265.147C922.629 276.746 919.603 290.026 918.762 293.052C917.418 297.591 917.418 297.591 918.426 298.6C918.931 299.104 919.603 299.944 919.939 300.449C920.275 300.953 920.443 301.289 920.443 301.121C920.443 300.617 934.396 230.854 936.581 220.768C939.943 204.966 940.952 199.923 942.465 191.854C943.642 185.466 944.146 184.122 944.986 184.626C945.659 184.794 945.659 185.803 944.314 191.686ZM842.108 237.746C841.771 238.419 840.931 239.427 840.259 240.1C839.586 240.772 839.082 241.277 839.082 241.445C839.082 241.445 840.259 241.613 841.771 241.781L844.293 241.949L844.965 240.268C845.806 237.914 845.806 236.233 844.629 232.871C844.125 231.358 843.621 229.846 843.621 229.846C843.621 229.846 843.452 230.35 843.452 231.022C843.284 233.376 842.78 236.402 842.108 237.746ZM872.702 438.125V426.694C872.702 420.474 872.534 414.59 872.534 413.75C872.534 412.405 872.366 412.237 871.862 412.741C871.358 413.246 870.349 415.935 869.676 418.961C869.004 421.987 868.5 426.526 868.5 432.409V437.957H870.517H872.702V438.125ZM912.206 409.379C912.038 409.043 911.366 408.539 910.525 408.202C909.349 407.698 908.004 407.698 876.401 407.698C836.224 407.698 831.853 407.866 830.509 408.707C829.836 409.043 829.332 409.547 828.996 409.883C828.659 410.556 828.659 410.556 846.815 410.388C856.901 410.388 875.728 410.22 888.672 410.052C912.375 410.052 912.543 410.052 912.206 409.379ZM847.823 406.017H865.978L866.146 401.31C866.314 398.789 866.483 391.056 866.483 384.164C866.651 377.272 866.819 368.194 866.987 363.655C867.155 359.285 867.323 355.586 867.155 355.586C867.155 355.586 864.297 359.116 860.935 363.655C834.207 399.461 829.5 405.849 829.5 406.017C829.668 406.017 837.905 406.017 847.823 406.017ZM912.711 405.849L910.862 403.496C909.853 402.151 905.987 397.108 902.288 392.233C898.59 387.358 891.362 377.776 886.319 371.22C881.276 364.664 876.569 358.612 875.896 357.772L874.72 356.259V381.306V406.353H887.327C894.219 406.353 902.793 406.185 906.323 406.185L912.711 405.849ZM875.056 340.961L875.224 342.474L885.814 328.186L896.405 313.897L894.892 313.729C894.051 313.561 889.681 313.561 885.142 313.561H876.905L876.737 314.905C876.569 315.578 876.401 319.949 876.064 324.487C875.728 329.026 875.392 334.237 875.224 336.086C875.224 337.936 875.056 340.121 875.056 340.961ZM847.823 318.268C849.84 320.957 855.052 327.681 859.254 333.397C863.625 339.112 868.836 345.836 870.853 348.526C872.87 351.216 880.771 361.638 888.504 371.892C906.827 396.435 913.047 404.504 913.215 404.504C913.215 404.504 911.366 393.073 909.013 379.121C906.659 365.168 903.465 347.013 901.952 338.608C900.439 330.203 898.926 321.293 898.59 318.772L897.918 314.233L893.211 320.789C890.521 324.319 886.487 329.867 883.965 333.229C874.72 345.668 875.56 344.492 875.056 347.349C874.888 348.694 874.72 350.207 874.72 350.375C874.72 350.879 873.543 349.535 871.021 346.173C869.172 343.651 868.5 342.474 867.827 340.457C867.491 339.448 866.651 323.647 866.651 317.595V313.729H855.892C850.008 313.729 844.797 313.561 844.461 313.561C843.621 312.72 843.957 313.224 847.823 318.268ZM836.728 354.914C834.543 368.026 831.853 384.5 830.677 391.728C829.5 398.957 828.491 404.84 828.659 405.008C828.659 405.177 837.233 393.746 847.655 379.793C858.077 365.672 867.323 353.401 868.332 352.392C869.34 351.384 870.181 350.375 870.181 350.207C870.181 349.703 869.677 350.039 868.668 351.048L867.659 352.056V349.535V347.013L860.935 338.272C857.237 333.397 851.858 326.336 849 322.47C846.142 318.604 843.621 315.41 843.452 315.41C843.116 315.074 842.276 320.621 836.728 354.914ZM840.259 300.449C840.259 299.44 837.233 296.414 833.534 294.061C828.828 290.867 823.112 288.177 812.858 284.143C801.259 279.604 795.543 277.587 789.492 276.074C781.591 274.057 775.539 274.393 765.117 277.419C758.224 279.268 753.854 281.957 748.474 287.337C745.617 290.194 744.776 291.203 743.768 293.388C742.255 296.414 741.582 299.104 741.414 303.811C741.078 308.854 742.255 318.436 743.936 324.487C746.457 333.901 749.651 341.802 754.022 350.711C763.436 369.707 767.302 379.961 768.815 391.224C768.983 392.569 769.151 394.082 768.983 394.418C768.815 395.09 769.655 395.427 772.681 395.427C776.548 395.427 780.414 393.914 783.608 391.224C785.961 389.207 785.961 389.039 785.289 386.685C784.28 383.491 782.431 375.422 781.927 371.892C781.255 367.354 780.918 360.125 780.582 346.341C779.742 316.587 777.556 304.651 770.832 293.052C769.992 291.707 769.487 290.531 769.487 290.531C769.824 290.194 770.664 290.867 771.841 292.548C774.53 296.078 777.388 299.104 779.573 300.281C781.423 301.457 781.927 301.625 784.28 301.793C785.625 301.962 789.828 301.793 793.694 301.625C799.578 301.289 802.435 301.289 815.211 301.793C830.845 302.298 835.888 302.466 838.409 302.13C840.09 301.289 840.259 301.289 840.259 300.449ZM916.577 240.268C917.418 240.772 918.762 241.445 919.771 241.949L921.452 242.621L923.301 241.949C925.318 241.108 927.672 239.091 928.512 237.242C928.849 236.57 930.362 230.182 931.874 222.785C933.387 215.389 935.741 204.63 936.918 198.747C938.262 192.863 939.271 187.484 939.439 186.643C939.607 185.803 939.775 184.962 940.112 184.626C940.448 183.954 940.448 183.954 936.077 183.785C933.555 183.617 929.521 183.617 927 183.617C918.09 183.785 909.181 183.954 909.013 184.122C908.844 184.29 908.508 186.139 906.827 194.712C906.155 197.906 905.65 201.268 905.482 202.109C905.314 203.958 905.987 213.203 906.659 217.406C908.004 224.971 909.349 231.863 910.021 233.039C911.366 235.057 914.896 239.091 916.577 240.268ZM917.922 263.13C918.931 265.82 919.939 269.182 920.275 270.526C920.612 271.871 920.948 272.88 920.948 272.88C921.284 272.88 921.284 272.376 923.301 263.298C924.31 258.759 925.487 252.876 925.991 250.018C926.495 247.328 927 244.975 927 244.975C927 244.975 923.806 244.807 919.939 244.807C915.4 244.807 912.879 244.807 912.879 244.975C912.879 245.983 916.577 258.927 917.922 263.13ZM780.414 169.833C780.582 167.816 780.918 165.967 781.591 163.781C782.599 160.419 783.104 157.393 782.599 157.393C782.431 157.393 781.759 159.242 780.918 161.428C779.573 165.63 779.237 166.303 779.069 166.135C779.069 165.967 777.22 161.092 775.203 155.04C773.186 148.988 771.336 143.945 771.168 143.945C771 143.945 770.832 143.945 770.832 144.113C770.832 144.449 776.211 162.604 778.229 169.16C779.573 173.699 780.078 174.035 780.414 169.833ZM802.435 153.527C801.931 153.023 801.427 154.367 801.427 156.217C801.427 156.889 801.259 157.73 801.091 158.066C800.923 158.402 800.754 158.402 800.754 157.898C800.754 156.553 797.897 153.023 797.56 153.695C797.392 153.863 797.729 154.536 798.065 155.208C798.737 156.217 799.241 157.898 799.578 161.428C799.578 161.932 799.578 163.109 799.241 164.117C799.073 164.958 798.905 166.639 798.905 167.648C798.905 169.329 799.073 170.169 800.586 173.195C802.772 178.07 803.948 177.902 802.435 173.027C802.099 171.85 801.595 169.833 801.427 168.488C801.091 166.303 801.259 165.63 801.931 162.436C802.94 158.402 803.108 154.199 802.435 153.527ZM805.293 154.536C804.621 153.695 803.612 153.191 803.612 153.695C803.612 153.863 803.78 154.199 804.116 154.704C804.789 155.712 804.957 160.587 804.453 164.286C803.78 168.992 805.125 174.204 807.647 176.389C809.664 178.238 811.513 178.238 812.354 176.557C813.026 175.212 813.026 174.708 811.681 170.842C810.841 167.984 810.504 166.975 810.504 164.79C810.504 163.277 810.672 161.764 810.672 161.092C811.009 159.747 810.168 159.747 809.328 161.26C808.655 162.268 808.655 162.773 808.655 165.294C808.655 167.479 808.823 168.656 809.496 170.673C810.672 174.204 810.841 175.212 810.504 175.716C810.168 176.389 808.655 175.38 807.478 173.699C806.134 171.682 805.293 168.152 805.629 164.958C806.638 156.385 806.638 156.048 805.293 154.536ZM789.828 155.712C789.155 153.359 788.651 153.527 788.651 156.217C788.651 158.066 788.483 158.906 787.474 161.092C786.802 162.604 786.298 164.454 785.961 165.462C785.457 167.648 785.793 171.682 786.634 174.035C787.306 175.885 788.987 178.238 789.323 177.902C789.492 177.734 789.323 176.893 789.155 176.053C788.651 173.027 789.492 168.152 792.013 161.26C792.517 159.747 792.854 158.234 792.854 157.898C792.517 157.225 792.349 157.561 791.677 159.411C791.341 160.251 790.668 161.764 790.164 162.773C789.66 163.781 788.987 165.798 788.483 167.479L787.811 170.337V168.152C787.811 166.639 787.979 165.294 788.651 163.277C790.164 159.074 790.332 157.561 789.828 155.712ZM725.949 342.979C723.763 343.147 721.242 342.474 718.216 340.793C715.694 339.448 712.164 335.918 711.156 333.901L710.315 332.388L712.5 330.035C718.048 324.151 724.772 314.905 729.983 305.996C731.328 303.811 734.858 297.423 737.884 291.875C740.91 286.328 743.936 280.949 744.608 279.772C745.281 278.595 747.13 275.065 748.979 271.703C752.509 264.979 754.526 261.617 757.384 258.087C760.578 254.22 764.78 248.169 764.78 247.664C764.78 247.16 763.772 247.664 762.595 248.841C761.755 249.514 760.074 251.531 758.729 253.044C757.384 254.725 755.535 256.91 754.694 258.087C752.341 260.776 750.66 263.466 747.802 268.677C746.457 271.031 744.44 274.897 743.095 277.25C740.406 281.957 737.38 287.673 731.328 298.768C723.931 312.384 718.384 320.453 710.988 328.354C708.13 331.548 707.962 331.884 709.307 334.573C709.811 335.582 710.315 336.591 710.315 336.759C710.315 337.431 700.565 353.569 696.363 359.789C687.453 373.069 686.445 374.582 686.445 375.254C686.445 376.263 687.285 377.44 688.798 378.28C690.479 379.289 691.992 379.457 694.009 379.121C697.876 378.28 702.078 375.422 709.307 368.53C715.19 362.983 716.703 361.806 720.906 360.125C724.1 358.78 724.772 358.444 725.949 356.595C727.125 354.578 727.125 352.224 726.285 348.694C725.276 344.66 725.276 344.492 726.789 343.987C728.47 343.147 728.302 342.642 725.949 342.979ZM920.612 421.483C910.862 363.823 911.03 364.664 910.357 364.496C910.021 364.496 909.853 364.496 909.853 364.664C909.853 364.832 911.534 374.582 919.603 422.827C921.62 434.595 923.301 444.681 923.301 445.353C923.469 446.026 923.469 446.698 923.469 446.698C923.469 446.698 923.806 446.698 924.142 446.698C924.646 446.698 924.982 446.362 924.814 445.689C924.142 442.664 922.629 434.258 920.612 421.483Z" fill="#231F20"/>
<path d="M116.744 125.284C120.947 128.142 123.805 127.806 127.671 124.107C130.024 121.922 132.042 119.064 135.067 113.517C137.925 108.474 138.261 107.97 140.111 107.297C141.792 106.625 141.792 106.12 140.447 104.944C139.27 104.103 138.43 102.422 138.43 101.414C138.43 101.077 138.934 100.237 139.438 99.5644C140.783 98.0515 142.128 98.0515 143.809 99.7325C145.154 101.245 145.49 101.077 146.498 98.892C146.835 98.2196 147.339 97.3791 147.507 97.3791C147.843 97.211 150.197 98.0515 152.718 99.2282C155.408 100.405 157.929 101.414 158.602 101.582C159.779 101.918 159.779 102.086 159.61 103.095C158.938 106.625 159.779 109.987 162.3 112.508C164.654 114.862 166.839 115.702 170.033 115.534C171.882 115.366 172.218 115.534 172.218 115.87C172.218 116.207 172.554 117.215 173.059 118.56C174.404 122.09 174.235 122.258 171.21 122.594L169.529 122.763L166.503 126.629C162.973 131.336 161.123 133.185 159.106 134.025C155.744 135.37 150.533 133.521 144.986 129.319C144.145 128.646 144.313 129.655 145.322 131.504C145.994 132.681 147.003 134.53 147.675 135.875C149.356 139.069 150.197 139.237 150.869 136.379L151.205 134.866L152.55 135.37C153.223 135.707 154.904 135.875 156.248 136.043C159.274 136.211 160.787 135.707 163.309 133.353C164.99 131.84 169.697 125.284 169.697 124.444C169.697 124.276 170.705 124.107 171.882 123.939C175.58 123.603 175.916 122.763 174.74 118.56C173.899 115.366 173.731 114.357 174.235 114.357C174.908 114.357 177.429 111.668 178.27 109.819C178.942 108.306 179.11 107.633 179.11 105.616C179.11 104.271 178.942 102.758 178.606 102.086C178.27 101.077 178.27 100.573 178.606 98.3877C179.11 95.8662 178.942 93.0084 178.27 92.8403C178.102 92.8403 177.766 93.6808 177.597 94.8576C177.429 96.0343 177.093 97.3791 176.925 97.8834V98.3877L176.253 97.7153C174.572 96.3705 172.218 95.3619 170.033 95.1938C167.007 95.0257 164.654 95.8662 162.3 98.2196L160.451 99.9006L155.072 97.5472C152.214 96.2024 149.692 95.0257 149.692 95.0257C149.692 94.8576 150.533 94.017 151.71 93.1765C153.391 91.8317 154.063 90.9912 154.904 89.3102C156.08 87.1248 156.753 84.099 156.585 83.0904C156.585 82.7542 156.585 82.418 156.585 82.418C157.425 82.418 161.46 84.099 165.83 86.1162C178.438 91.9998 184.153 92.5041 192.054 88.6378C194.576 87.2929 195.753 86.6205 197.265 84.9395C200.796 81.4093 202.14 78.0473 201.3 74.349C200.796 71.8275 199.955 70.6508 197.602 69.4741C195.753 68.4654 195.416 68.4654 193.567 68.6335L191.55 68.8016L191.886 67.4568C192.559 65.2715 191.55 62.2456 189.701 61.0689C188.188 60.2284 184.658 60.3965 182.136 61.5732C181.128 62.0775 180.287 62.4137 180.119 62.2456C180.119 62.2456 180.119 61.7413 180.287 61.237C180.791 60.0603 180.623 57.7069 180.119 56.5302C179.783 54.681 177.093 53 174.74 53C174.235 53 173.395 53.1681 172.722 53.5043C171.21 54.0086 169.865 54.681 163.981 58.5474C156.753 62.9181 156.417 63.0862 146.667 63.0862C138.261 63.0862 136.58 63.4224 132.882 65.2715C125.822 68.8016 122.628 74.8533 122.628 84.9395C122.628 89.8145 124.141 100.069 125.486 103.767C126.158 105.448 127.503 111.164 127.671 113.013C127.839 114.862 127.167 118.056 126.158 119.737C123.468 123.771 117.417 122.594 115.736 117.551C115.399 116.711 115.568 116.375 116.072 115.198C116.576 114.189 116.912 113.685 117.921 113.517C119.266 113.013 120.947 113.349 121.955 114.021C122.628 114.526 122.628 114.694 122.628 115.87C122.46 117.215 121.787 118.056 120.779 117.888C119.938 117.72 119.77 116.543 120.611 116.207C120.947 116.038 121.283 116.038 121.451 116.038C121.619 116.207 121.619 116.038 121.619 115.702C121.619 114.357 119.098 113.853 117.921 114.862C116.912 115.702 116.912 116.711 117.585 118.224C118.257 119.569 119.77 120.577 121.451 120.913C123.805 121.25 126.158 118.728 126.494 115.198C126.83 112.508 125.654 108.978 123.973 107.465C121.283 104.944 117.753 104.944 114.895 107.633C112.542 109.651 111.869 111.5 111.869 115.366C111.533 120.241 112.878 122.594 116.744 125.284ZM164.485 98.5558C166.839 96.8748 169.36 96.5386 172.05 97.3791C173.731 97.8834 175.916 99.5644 175.916 100.405C175.916 100.741 175.412 101.75 174.74 102.926C174.067 104.103 173.563 105.28 173.563 105.448C173.563 106.457 174.572 105.784 175.916 104.103C177.597 101.918 177.766 102.086 177.766 105.112C177.766 107.801 177.261 109.146 175.412 111.164L173.731 112.845L173.563 111.668C173.395 110.995 173.395 109.651 173.395 108.474C173.395 107.129 173.395 106.457 173.227 106.625C172.554 106.793 172.05 108.642 171.882 111.164V113.517L170.537 113.685C168.688 114.021 166.335 113.349 164.654 112.172C159.947 109.146 159.947 101.75 164.485 98.5558ZM371.252 262.96C371.084 260.271 370.916 259.598 370.579 259.262C370.075 258.926 368.226 258.926 360.157 259.094C331.916 259.598 303.506 260.102 303.506 260.102C303.506 260.102 304.011 258.421 304.683 256.404C305.355 254.387 306.196 252.034 306.532 251.193C306.868 250.184 309.222 243.292 311.911 235.896C314.601 228.331 319.476 214.042 323.006 203.956C328.722 186.81 329.226 185.465 328.89 184.12C328.722 182.775 328.554 182.439 327.545 181.935C326.873 181.43 326.2 181.262 325.36 181.262C323.847 181.43 323.847 181.935 325.36 182.439C326.032 182.775 326.873 183.28 327.041 183.784C327.545 184.624 327.545 184.792 324.183 194.374C320.149 206.142 312.248 229.508 307.373 244.637C305.355 250.689 303.674 255.732 303.506 255.9C303.002 256.236 300.985 255.396 300.312 254.555L299.64 253.883L301.153 249.848C301.993 247.663 304.011 241.779 305.692 236.904C307.373 232.029 310.567 222.784 312.92 216.228C315.274 209.672 318.467 200.762 319.98 196.392C321.493 192.021 323.174 187.314 323.511 186.137C324.855 182.607 324.183 182.103 321.325 183.952C320.149 184.624 319.644 185.297 319.308 186.137C317.795 190.844 309.222 215.555 305.019 227.827C299.304 244.301 297.118 250.857 297.623 251.193C297.959 251.361 298.463 251.025 298.463 250.689C298.463 250.521 299.304 248.335 300.144 245.814C300.985 243.292 304.515 233.206 307.877 223.288C314.937 202.443 319.644 188.659 320.317 186.978C320.653 186.305 320.989 185.801 321.325 185.801C321.661 185.801 321.83 185.801 321.83 185.969C321.83 186.137 320.485 189.836 318.804 194.374C317.123 198.913 313.929 208.327 311.575 215.051C309.222 221.943 306.364 230.348 305.019 233.878C303.674 237.409 301.657 243.124 300.481 246.654L298.295 253.042H291.067C284.343 253.042 284.006 253.042 285.687 252.538C286.696 252.37 288.041 252.034 288.713 252.034C289.554 252.034 289.89 251.865 289.89 251.529C289.89 251.025 289.386 251.025 286.528 251.193C283.334 251.361 283.166 251.361 282.494 252.202L281.821 253.042H277.619C274.425 253.042 273.416 252.874 273.92 252.706C274.256 252.538 275.601 252.37 277.114 252.202C280.813 251.865 280.644 251.361 276.778 251.361C273.584 251.193 273.584 251.361 272.575 252.202C271.399 253.21 269.886 253.378 268.877 252.706C268.541 252.37 267.364 252.034 266.188 252.034C261.649 251.529 259.463 250.521 254.757 246.654C251.395 243.965 248.705 242.452 246.688 241.779C246.015 241.611 243.158 241.275 240.468 241.107C235.593 240.771 233.912 240.434 229.877 238.922C227.524 237.913 228.533 239.762 231.054 240.939C233.239 242.115 236.938 243.292 238.283 243.292C239.291 243.292 239.964 243.628 242.989 245.814C244.839 247.159 247.024 249.008 247.864 249.68C248.705 250.353 249.882 251.193 250.554 251.361L251.731 251.697L250.722 252.538C249.377 253.715 248.032 253.715 247.528 252.706C247.36 252.202 246.688 251.865 246.015 251.529C244.502 251.025 241.308 251.361 240.636 252.034C239.795 252.706 240.3 253.21 241.476 252.706C242.653 252.202 244.839 252.37 245.511 252.874C246.015 253.378 245.511 253.378 240.468 253.378C233.744 253.378 233.408 253.378 231.727 255.9C230.886 257.245 230.55 258.085 230.214 259.934L229.877 262.288L219.623 262.624C213.908 262.792 209.033 263.128 208.696 263.128C208.192 263.296 208.024 263.465 208.024 263.801C208.024 264.305 209.369 264.305 219.287 264.473C225.507 264.473 238.955 264.473 249.209 264.305C259.632 264.137 278.963 263.801 292.412 263.633C305.86 263.465 322.502 263.128 329.562 262.96C355.114 262.288 368.562 262.288 368.562 262.624C368.562 262.96 366.713 263.128 340.993 264.305C312.752 265.482 290.731 266.658 264.675 267.835C252.907 268.508 237.61 269.18 230.886 269.348C223.994 269.516 216.429 269.852 214.076 270.021L209.705 270.189L209.537 268.003C209.201 265.146 209.201 264.809 208.36 264.809C207.688 264.809 207.352 265.818 206.847 268.844C206.511 271.365 206.511 271.197 207.015 271.702C207.352 272.038 208.024 272.206 209.369 272.206H211.218V274.391V276.577L207.856 275.568C196.425 271.87 182.472 269.18 174.908 269.18H171.546L173.227 267.331C174.067 266.322 175.244 264.809 175.748 263.969C176.757 262.12 176.757 261.111 175.076 257.917L173.899 255.732L174.572 254.387C175.076 253.378 175.244 252.37 175.412 250.353C175.58 247.831 175.58 247.495 176.253 247.663C176.589 247.663 178.102 247.831 179.615 248.167C182.641 248.503 186.843 248.335 192.727 247.663C197.434 247.159 201.636 246.15 206.511 244.637C212.731 242.62 215.925 241.779 219.623 241.107C225.675 239.93 227.356 239.426 227.356 239.258C227.356 238.417 214.58 239.93 209.537 241.275C200.964 243.628 196.089 244.637 188.524 245.646C185.666 245.982 183.145 246.15 180.791 245.982C177.597 245.814 175.244 245.309 175.244 244.973C175.244 244.805 176.085 243.965 177.093 242.788C182.472 237.072 185.498 230.853 185.666 224.465C185.835 219.254 184.49 215.891 181.128 214.042C179.615 213.202 179.447 213.034 179.447 212.025C179.447 211.353 178.27 207.318 176.757 202.948C175.244 198.577 174.067 194.206 173.899 193.198C173.731 192.189 173.731 189.836 173.899 188.155C174.067 186.474 174.235 183.111 174.235 180.758C174.235 177.06 174.067 175.883 173.395 173.025C171.882 166.805 169.697 163.275 161.796 154.03C154.063 144.952 153.727 144.616 153.391 145.12C152.886 145.793 156.248 150.836 161.46 157.224C166.671 163.78 169.529 168.991 170.537 173.698C171.21 176.724 171.21 180.926 170.873 187.314C170.537 192.861 170.873 194.206 173.899 201.939C176.085 207.486 176.421 208.663 175.244 209.672C174.572 210.176 174.572 210.176 173.395 208.999C172.722 208.327 171.714 206.646 171.21 205.469C170.705 204.292 168.688 199.922 166.671 195.719C162.132 186.305 159.106 179.413 156.417 171.849C155.24 168.655 153.727 164.452 152.886 162.771C149.356 154.87 143.473 148.65 138.261 147.642C136.244 147.137 135.404 147.306 135.236 147.81C135.068 148.146 135.572 148.146 136.412 148.146C138.43 148.146 141.624 149.995 144.313 152.517C148.516 156.719 150.365 160.418 154.736 172.521C158.266 182.439 160.955 188.659 166.839 200.594C170.873 208.663 171.882 212.025 171.882 216.9C171.882 222.447 170.369 226.146 166.167 230.18C160.955 235.391 156.921 237.409 151.373 237.745C145.994 238.081 143.305 236.568 141.455 232.366C139.774 228.835 139.606 227.322 139.438 219.758C139.27 212.698 139.102 210.008 138.261 208.663C137.589 207.654 137.253 207.991 137.253 209.504C137.253 212.361 136.076 212.698 134.059 210.512C133.386 209.672 131.201 207.486 129.184 205.469C123.132 199.249 120.443 195.215 119.098 189.667C117.417 183.111 117.417 175.043 119.098 168.15C120.106 163.948 120.443 160.081 119.938 157.728C119.77 156.719 119.434 155.879 119.266 155.879C119.098 155.879 118.93 157.224 118.93 158.905C118.93 161.426 118.762 162.435 118.089 164.788C116.072 171.512 115.736 172.521 115.399 175.715C114.727 182.439 116.072 190.676 118.762 196.223C120.947 200.426 122.628 202.611 128.848 208.831C134.395 214.379 135.067 215.051 136.412 217.741L137.925 220.598L138.093 224.465C138.261 227.659 138.43 228.835 139.102 230.853C140.111 233.71 141.119 235.559 142.632 237.24C143.977 238.753 144.986 239.258 147.339 239.762C149.02 240.098 149.188 240.266 150.197 241.611L151.205 243.124L148.852 242.956C147.507 242.788 141.287 242.62 135.067 242.452C121.787 242.115 119.098 241.779 115.231 239.93C113.887 239.258 112.206 238.081 111.365 237.409C108.843 235.055 106.994 229.508 106.826 223.792L106.658 220.598L107.667 222.616C108.171 223.792 109.012 225.305 109.348 226.314C110.02 227.827 111.029 228.499 111.029 227.322C111.029 226.482 109.012 219.422 107.162 213.874C103.464 202.611 103.464 202.275 105.818 190.508C108.003 179.918 108.171 178.573 108.339 169.159C108.507 158.4 109.012 155.206 111.869 151.004C113.887 147.978 117.585 144.448 119.602 143.775C121.955 142.935 128.007 142.599 135.74 142.767C142.128 142.935 143.641 142.767 142.296 142.263C141.96 142.094 139.774 141.926 137.085 141.59C132.378 141.086 121.787 141.086 120.611 141.59C120.106 141.758 120.106 141.59 120.106 140.245C120.106 139.405 120.274 138.564 120.443 138.396C121.955 137.051 130.529 136.547 134.731 137.556C138.766 138.396 145.154 141.086 149.188 143.439C151.205 144.616 151.71 144.784 151.71 144.112C151.71 143.439 149.188 141.758 144.817 139.405C139.27 136.547 135.74 135.37 129.856 134.698C128.175 134.53 128.175 134.53 129.016 131C129.856 127.301 130.024 126.125 129.688 126.125C129.52 126.125 128.68 127.638 127.671 129.319C125.318 133.857 124.477 134.698 121.955 135.202C118.425 136.043 117.417 137.051 117.753 140.413C117.921 142.263 117.921 142.263 116.912 142.767C115.399 143.607 111.533 147.474 110.02 149.659C106.994 154.198 106.154 158.232 106.154 166.974C106.154 177.9 105.818 180.758 103.296 192.189C101.279 200.762 101.279 201.939 102.792 207.486C103.464 210.176 104.305 220.766 104.137 224.465L103.969 226.65L101.615 221.775C96.9082 211.689 96.4039 210.512 94.891 207.823L93.2099 204.965V195.719C93.2099 177.228 90.8565 164.956 85.4772 154.87C83.2919 150.836 82.9557 149.659 82.6195 144.448C82.1152 139.405 82.4514 136.211 84.3005 126.461C85.9815 117.383 86.4858 113.853 86.3177 108.81C86.1496 105.616 85.9815 104.103 85.3091 102.086C83.6281 96.3705 80.6022 91.1593 77.5764 88.8059C76.0635 87.6291 72.7014 85.78 72.3652 86.1162C72.3652 85.4438 73.2057 86.6205 75.223 88.3016C79.0893 91.4955 81.9471 96.3705 83.46 102.086C83.7962 103.431 83.7962 103.767 83.46 104.608C82.9557 105.952 82.4514 106.289 81.1066 106.625C78.4169 107.129 73.3738 103.095 71.5247 99.0601C70.0118 95.8662 69.1713 93.1765 69.1713 91.3274C69.1713 89.3102 70.1799 86.4524 71.1885 85.2757C71.8609 84.6033 71.8609 84.4352 71.5247 84.2671C70.8523 83.7628 67.9945 83.9309 66.6497 84.6033C64.6325 85.4438 62.9515 87.1248 62.111 89.3102C61.2704 91.1593 61.2704 91.4955 61.2704 94.8576C61.2704 99.2282 61.6066 100.909 63.6239 108.138C64.4644 111.164 65.3049 114.526 65.6411 115.534C66.3135 118.224 66.8178 126.965 66.4816 129.487C66.3135 130.663 66.3135 131.84 66.3135 132.176C66.3135 132.513 66.1454 132.681 65.8092 132.513C61.9429 131 60.2618 130.495 60.2618 131.168C60.2618 131.672 61.2704 132.344 64.6325 134.362C68.4989 136.715 70.8523 138.564 73.71 141.422C79.7617 147.642 84.8048 155.879 87.1582 162.939C90.1841 172.185 91.8651 183.111 91.697 193.702L91.5289 199.417L89.8479 197.568C88.6712 195.551 88.5031 195.215 87.3263 186.642C85.4772 174.538 81.4428 161.762 76.7359 154.03C73.5419 148.482 69.8437 144.952 66.1454 143.103C64.4644 142.263 63.792 142.094 61.9429 142.094H59.5894L59.4213 137.051C59.2532 132.681 59.0851 131.504 58.7489 131.84C58.7489 131.84 58.5808 134.53 58.4127 137.556L58.2446 143.271L59.0851 143.607C61.1023 144.448 61.6066 146.801 61.6066 158.232C61.6066 166.974 61.4385 171.176 60.4299 176.387C60.0937 178.236 59.7575 179.077 58.917 180.086C56.7317 182.775 55.0506 187.482 54.3782 193.03C53.8739 196.56 53.8739 211.185 54.3782 219.422C54.5463 222.616 54.8825 229.34 55.2187 234.551C55.5549 239.594 55.8912 246.99 56.2274 250.857C56.5636 254.723 56.8998 261.615 57.0679 266.322C57.5722 279.098 58.7489 288.176 61.2704 295.74C63.4558 302.464 67.4902 308.684 72.7014 313.727C80.6022 321.292 93.0418 326.335 107.331 328.184C109.516 328.52 111.701 328.688 112.206 328.688H113.382L113.214 343.818C113.046 352.223 113.046 370.714 113.046 385.171V411.227L112.374 412.235C110.188 415.597 99.5978 419.968 85.4772 423.666C76.2316 426.02 74.0462 427.365 72.1971 431.399C71.5247 432.912 71.1885 435.602 71.5247 435.938C71.5247 435.938 79.5936 436.274 89.1755 436.442C106.322 436.778 148.516 436.61 161.964 436.274L168.352 436.106V434.761C168.352 432.912 167.343 430.559 165.998 428.878C164.317 426.86 161.628 425.684 153.727 423.666C145.49 421.481 140.951 419.968 136.076 417.783C131.369 415.597 129.184 414.421 127.839 412.908L126.83 411.731V391.895C126.83 380.968 126.662 362.477 126.662 350.542L126.494 329.025L127.167 328.856C127.503 328.688 130.193 328.52 132.882 328.352C138.934 328.016 151.542 326.167 156.585 324.99C161.628 323.813 169.529 322.469 175.916 321.796C182.977 320.956 185.162 320.283 186.507 318.77C187.011 318.098 187.684 317.089 188.02 316.417C188.188 315.744 188.524 315.072 188.692 314.904C188.86 314.736 192.727 315.24 197.434 316.081C202.14 316.921 206.847 317.594 208.024 317.762L210.209 317.93L210.041 321.124C209.873 322.805 209.369 336.757 208.865 351.887C208.36 367.184 207.688 386.516 207.352 395.257C207.015 403.83 206.511 415.765 206.343 421.817C206.175 427.869 205.839 435.77 205.839 439.636C205.671 443.502 205.671 446.696 205.671 446.696C205.671 446.696 207.015 446.864 208.696 447.033C211.05 447.201 211.722 447.033 211.89 446.696C212.227 446.36 212.227 446.024 211.89 445.856C211.722 445.688 211.722 445.352 211.89 445.183C212.059 445.015 212.563 435.602 213.067 424.339C213.571 413.076 214.076 402.317 214.244 400.3L214.412 396.77L217.774 396.938C219.623 396.938 221.808 397.106 222.817 397.106H224.666L224.498 399.796C224.33 402.654 223.49 407.697 222.649 413.076C221.977 416.606 222.145 416.774 224.33 417.783L225.675 418.287L225.507 420.304C225.171 423.666 224.666 425.852 223.49 430.054C222.145 434.593 222.145 436.778 222.985 438.796L223.49 439.972L248.873 439.804C263.666 439.636 274.425 439.468 274.593 439.3C275.097 438.796 274.761 435.938 274.257 434.761C273.584 433.248 272.239 432.408 268.037 430.895C263.666 429.382 260.472 427.701 255.429 424.843C251.058 422.322 248.537 420.472 246.52 418.287L245.007 416.606L246.183 416.438L247.36 416.27L248.705 409.882C249.377 406.352 250.386 402.149 250.722 400.468L251.563 397.442H252.739C253.412 397.442 259.463 397.442 266.356 397.61L278.795 397.779L280.14 399.796C280.981 400.972 282.325 403.158 283.166 404.671C284.175 406.184 285.351 408.033 286.024 408.705L287.2 409.882L287.368 414.253C287.537 417.447 287.537 419.464 287.032 421.985C286.528 425.011 286.528 426.188 287.032 427.869C287.2 428.709 291.739 431.903 293.252 432.408C293.924 432.576 296.782 433.08 299.304 433.248C305.019 433.921 308.381 434.593 313.761 436.778C320.989 439.636 326.032 440.813 330.067 440.477C331.748 440.308 332.252 440.14 333.765 439.132C335.614 437.787 335.95 437.115 335.782 435.265C335.614 433.921 334.101 432.24 330.907 430.054C321.325 423.33 307.541 409.882 304.683 404.671L303.843 402.99L304.851 401.813C306.196 400.132 306.364 399.123 305.692 398.283C305.187 397.61 305.355 397.61 328.386 397.61C343.683 397.61 351.752 397.779 351.92 397.947C352.088 398.115 351.92 402.317 351.752 407.36C351.584 412.403 351.248 422.994 351.079 431.063C350.911 439.132 350.743 446.024 350.743 446.36V447.033H354.61C358.476 447.033 359.316 446.864 358.812 445.856C358.644 445.52 358.14 445.352 355.786 445.352H352.929L353.097 443.334C353.265 442.158 353.265 441.149 353.265 441.149C353.265 441.149 354.105 440.981 355.282 440.981L357.299 440.813V442.326C357.299 444.175 357.467 444.847 358.308 444.847C358.812 444.847 358.812 444.511 358.98 442.326C359.148 439.3 360.325 406.688 360.661 388.365C360.829 381.304 361.166 371.386 361.334 366.343C362.006 343.986 363.183 310.197 363.687 290.697C364.023 281.788 364.191 273.214 364.36 271.702L364.528 268.844H367.049C370.243 268.844 371.42 268.508 371.756 267.331C371.42 266.658 371.42 264.809 371.252 262.96ZM248.705 247.327C247.528 246.318 246.015 244.805 245.343 244.301L243.83 242.956L245.175 243.124C246.015 243.292 247.192 243.628 248.201 243.965C249.041 244.301 251.226 245.814 253.076 247.159C256.27 249.512 260.64 252.034 261.817 252.034C262.153 252.034 262.321 252.202 262.153 252.538C261.985 252.874 261.481 253.042 260.304 253.042C258.959 253.042 258.623 252.874 258.455 252.37C258.287 251.697 256.606 250.857 253.076 249.848C250.89 249.344 250.554 249.008 248.705 247.327ZM252.067 252.706C252.739 252.37 255.429 252.37 255.429 252.706C255.429 252.874 254.588 253.042 253.412 253.042C252.235 253.042 251.731 252.874 252.067 252.706ZM300.985 258.758L299.64 259.934L296.11 260.102C284.679 260.775 238.114 261.615 236.601 261.279C233.912 260.607 233.071 257.749 234.92 255.564L235.761 254.555L248.873 254.387C256.101 254.219 270.054 254.219 280.14 254.219H298.127L298.799 255.396C299.304 256.236 299.808 256.572 300.817 256.909C301.489 257.077 302.162 257.245 302.162 257.413C302.33 257.413 301.825 258.085 300.985 258.758ZM78.0807 133.185C77.2402 136.715 76.2316 137.219 73.2057 136.211C71.8609 135.707 71.1885 135.202 70.6842 134.362C69.1713 132.176 69.0032 130.832 69.0032 125.116C69.0032 118.224 68.4989 115.534 66.1454 106.793C63.2877 96.8748 62.9515 92.6722 64.4644 89.4783C65.1368 87.7972 66.8178 86.2843 68.3308 85.78C69.0032 85.6119 69.5075 85.2757 69.5075 85.2757C69.5075 85.2757 69.1713 86.1162 68.667 87.1248C67.8264 88.8059 67.6583 89.3102 67.8264 91.6636C67.8264 93.1765 67.9945 95.3619 68.1626 96.5386C68.8351 100.237 69.8437 103.263 74.8868 114.021C75.8954 116.375 76.5678 118.56 77.5764 122.594C78.585 128.478 78.7531 130.495 78.0807 133.185ZM81.6109 127.974L80.7703 124.612C79.5936 120.073 77.4083 113.685 76.0635 110.827C75.3911 109.482 75.0549 108.474 75.0549 108.474C75.0549 108.474 75.7273 108.81 76.3997 109.314C77.2402 109.987 78.2488 110.155 79.4255 110.323C80.9384 110.491 81.4428 110.323 82.6195 109.651L84.1324 108.474L83.9643 111.668C83.7962 114.526 83.1238 118.728 81.9471 125.788L81.6109 127.974ZM171.714 265.146C170.201 267.835 164.317 272.038 160.619 273.046C155.576 274.391 148.852 272.71 140.951 268.339C139.606 267.499 137.925 266.658 137.421 266.322L136.58 265.65L137.253 265.314C140.279 264.137 150.365 262.288 156.585 261.615C158.266 261.447 161.628 261.279 163.981 261.447C167.848 261.447 168.688 261.615 170.201 262.288C171.882 263.128 172.218 263.969 171.714 265.146ZM156.753 242.115C157.761 242.115 161.628 239.93 163.813 238.249C168.016 234.887 171.714 229.34 173.395 223.96C173.899 222.279 174.067 220.766 174.235 217.741L174.404 213.706H175.748C176.421 213.706 177.766 214.042 178.606 214.379C181.632 215.891 182.977 218.245 182.977 222.447C182.977 225.978 182.304 228.331 180.287 232.534C178.942 235.223 178.438 236.064 176.757 237.745C172.891 241.443 168.352 242.956 161.628 242.956C159.442 242.956 157.425 242.788 156.921 242.62C156.585 242.284 156.417 242.115 156.753 242.115ZM95.8996 213.538C96.0677 213.538 96.2358 213.706 96.4039 214.042C96.572 214.379 97.2444 216.06 98.0849 217.741C98.9254 219.422 100.606 223.288 101.783 226.146C102.96 229.003 104.641 233.038 105.65 235.055C107.331 238.922 108.843 242.788 108.675 242.956C108.339 243.292 106.322 242.284 105.313 241.275C104.473 240.434 103.969 239.426 102.287 233.542C101.279 229.844 99.2616 223.96 97.9168 220.094C96.572 216.564 95.7315 213.538 95.8996 213.538ZM61.2704 143.607L62.6153 143.775C63.2877 143.944 64.8006 144.448 65.8092 144.952C71.8609 148.146 78.9212 159.913 81.1066 170.504C81.779 174.034 81.779 178.573 81.1066 179.917C79.9298 182.103 78.585 181.935 74.5505 178.741C70.348 175.379 64.9687 172.521 63.1196 172.521C62.7834 172.521 62.4472 172.521 62.4472 172.521C62.4472 172.521 62.6153 170.84 62.9515 168.991C63.4558 164.956 63.6239 154.534 63.1196 150.836C62.7834 147.642 62.2791 145.456 61.6066 144.448L61.2704 143.607ZM153.391 425.684C159.779 427.365 161.628 428.037 163.309 429.55C164.317 430.39 164.485 430.727 164.485 431.567C164.485 432.24 164.485 432.576 164.317 432.576C164.149 432.576 163.645 432.24 163.141 431.735C162.132 430.895 157.929 428.709 155.912 428.037C154.063 427.365 150.533 426.86 150.029 427.196C149.356 427.533 149.524 427.701 151.878 428.373C154.063 429.046 157.593 430.895 158.434 431.735C159.106 432.408 159.106 432.576 158.77 433.248C158.602 433.584 158.098 434.257 157.593 434.593C156.921 435.097 153.559 435.097 117.585 435.097C78.9212 435.097 78.4169 435.097 76.904 434.425C76.0635 434.089 75.223 433.584 75.0549 433.248C72.7014 430.727 75.7273 428.373 83.7962 426.188C95.2272 423.162 99.934 421.481 106.322 418.119C110.02 416.27 112.71 414.084 113.55 412.572C113.887 411.899 114.055 409.882 114.055 402.149C114.055 396.938 114.223 385.171 114.391 375.925C114.559 366.848 114.727 355.921 114.727 351.718C114.727 343.818 115.063 340.792 116.24 337.934C116.912 336.085 118.762 333.395 119.938 332.05L120.779 331.21L120.947 335.581C121.115 338.102 121.115 349.533 121.115 361.3C121.115 373.067 121.283 389.541 121.283 398.283L121.451 413.916L123.132 415.766C128.68 421.649 137.757 426.02 144.986 426.692C147.171 426.86 147.339 426.86 147.339 426.188C147.339 425.684 147.171 425.515 146.498 425.515C145.49 425.515 141.287 424.507 138.598 423.666C136.076 422.826 129.688 419.632 128.343 418.455C126.662 417.11 124.309 413.412 123.637 411.059C122.964 409.041 122.964 408.705 122.964 369.537C122.964 332.723 122.964 330.033 123.468 329.697C123.805 329.529 123.973 329.361 124.141 329.361C124.141 329.361 124.309 342.137 124.477 357.602C124.645 373.067 124.981 391.559 124.981 398.955L125.149 412.235L125.822 413.244C128.511 417.11 138.598 421.649 153.391 425.684ZM185.162 316.249C184.658 317.93 181.296 319.106 174.572 319.947C169.697 320.451 160.451 321.964 155.576 322.805C147.171 324.318 124.477 326.167 118.089 325.831C105.313 324.99 98.253 323.645 90.3522 320.788C83.2919 318.098 78.0807 314.904 73.5419 310.365C68.8351 305.658 66.3135 301.624 64.1282 295.572C61.9429 289.184 60.0937 276.24 60.0937 266.658C60.0937 264.473 59.7575 256.909 59.2532 250.016C58.917 243.124 58.4127 234.551 58.0765 231.021C57.9084 227.491 57.5722 222.447 57.4041 219.758C56.5636 200.762 56.5636 194.879 57.5722 188.827C58.4127 184.12 58.7489 182.775 60.2618 181.262C61.7747 179.749 62.2791 179.581 64.8006 180.254C66.8178 180.758 70.8523 182.607 73.2057 184.288C80.4341 189.163 84.9729 194.711 90.016 204.965C92.8737 210.848 94.5548 215.387 98.9254 230.853C100.775 237.072 102.456 242.956 102.792 243.797C103.296 244.973 103.296 245.309 103.128 245.478C101.783 245.982 97.2444 248.503 96.2358 249.344C95.2272 250.184 94.891 250.353 94.2186 250.184C93.0418 249.848 91.3608 248.671 90.6884 247.831C90.016 246.99 90.016 246.99 89.8479 252.538C89.6798 257.077 89.6798 258.253 90.016 259.094C90.5203 260.271 91.1927 260.607 91.1927 259.598C91.1927 258.253 93.2099 255.059 95.3953 252.874C98.7573 249.344 103.296 247.327 110.861 245.646C117.753 244.133 122.46 243.797 134.227 243.797C145.49 243.797 151.373 244.133 163.309 245.309C171.041 246.15 171.714 246.318 172.386 248.167C173.395 250.521 172.723 252.706 170.369 255.227C168.016 257.749 165.326 258.421 156.417 259.094C147.339 259.766 139.27 261.447 127.503 265.314C108.339 271.533 103.464 272.038 97.4125 268.508C95.7315 267.499 91.8651 264.473 91.697 263.969C91.697 263.801 91.3608 263.801 91.0246 263.801C90.016 264.137 91.0246 266.827 93.5461 270.357C96.4039 274.223 98.9254 275.736 102.624 275.904C105.145 275.904 107.162 275.232 108.003 273.887C108.339 273.383 109.012 273.046 110.693 272.71C111.869 272.542 114.055 272.038 115.568 271.533C118.257 270.693 118.425 270.693 118.593 271.365C119.938 273.887 124.981 277.753 129.184 279.77C134.395 282.124 139.102 283.301 150.533 284.982C163.645 286.999 170.201 289.016 175.58 293.051C178.438 295.236 181.464 299.438 183.145 303.977C183.817 306.667 185.498 315.072 185.162 316.249ZM208.36 445.52C206.511 445.52 206.343 445.52 206.343 444.679C206.343 444.175 206.511 443.166 206.511 442.326L206.679 440.813H208.36H210.041L210.209 443.166L210.377 445.52H208.36ZM213.74 359.451C213.235 370.21 212.563 386.348 212.227 395.425C211.89 404.503 211.218 418.119 210.882 425.515L210.377 438.964H208.528H206.679L206.847 436.274C207.015 432.744 208.192 407.697 208.696 391.054C209.033 383.658 209.537 367.52 210.041 355.249C210.546 342.809 211.218 327.007 211.386 319.947C212.227 296.917 213.067 274.895 213.235 274.895C213.403 274.727 217.102 272.542 217.102 272.542C217.102 272.542 217.102 275.232 216.933 278.426C216.597 287.503 215.925 304.818 215.084 323.309C214.916 332.555 214.076 348.861 213.74 359.451ZM214.244 390.214C214.244 389.542 214.58 381.473 215.084 372.395C216.093 352.895 216.933 331.882 217.27 324.822C217.438 319.947 217.438 319.779 218.11 319.947C218.446 320.115 220.296 320.451 222.313 320.788C224.33 321.124 226.179 321.46 226.683 321.46H227.524L227.02 323.645C226.347 327.512 225.843 338.606 226.179 343.649C227.188 364.83 227.02 366.511 225.002 387.86L224.666 391.559H219.455H214.244V390.214ZM247.864 436.778C271.735 436.778 272.575 436.778 272.407 437.283C272.239 437.787 271.735 437.955 267.532 438.123C265.011 438.291 260.136 438.291 256.774 438.291C253.412 438.291 247.528 438.459 243.662 438.627C239.795 438.796 233.912 438.964 230.382 439.132L223.994 439.3L223.658 438.459C222.817 436.778 221.136 436.778 247.864 436.778ZM226.852 416.606L227.02 415.261L228.533 414.925C229.373 414.757 230.382 414.589 230.718 414.421C231.895 414.253 235.425 414.253 237.61 414.589C240.3 414.925 242.149 415.429 242.149 415.766C242.149 416.102 236.938 418.455 234.752 418.959C232.567 419.464 228.028 419.968 227.188 419.8C226.515 419.632 226.515 418.959 226.852 416.606ZM315.946 433.416C323.511 436.778 325.864 437.451 329.898 437.451C332.924 437.451 333.092 437.451 332.42 437.955C331.579 438.627 329.898 438.627 326.536 437.955C323.006 437.115 318.636 435.77 313.088 433.584C307.709 431.399 305.86 431.063 299.304 430.39C294.429 429.886 291.739 429.214 289.722 428.037C288.881 427.533 288.713 427.196 288.713 426.356V425.347L289.89 426.188C290.562 426.524 291.907 427.196 292.916 427.533C295.269 428.373 298.799 429.046 303.17 429.382C307.205 429.718 308.718 430.222 315.946 433.416ZM304.515 407.865C304.851 408.201 304.851 409.041 304.515 410.05C303.843 411.731 299.976 412.908 296.446 412.572C294.093 412.403 290.731 411.395 289.386 410.554C288.545 410.05 288.545 410.05 290.562 409.882C292.748 409.714 297.623 407.36 300.481 405.343L302.162 404.166L303.17 406.016C303.843 406.856 304.347 407.697 304.515 407.865ZM350.407 394.753L349.735 396.098L332.252 395.929C322.67 395.761 292.58 395.761 265.347 395.761H215.925L215.589 394.416C215.421 393.576 215.252 392.904 215.252 392.904C215.252 392.904 221.808 392.904 229.541 392.904C237.442 393.072 259.8 393.072 279.3 393.24C298.799 393.408 322.838 393.408 332.924 393.408H351.247L350.407 394.753ZM253.748 386.852C255.597 379.119 256.606 374.076 257.11 371.05C257.446 369.369 257.614 367.688 257.782 367.016L257.951 366.007L259.127 367.52C259.8 368.361 263.666 374.076 267.869 380.128L275.433 391.391H264.17C257.951 391.391 252.907 391.391 252.907 391.391C252.739 391.391 253.244 389.205 253.748 386.852ZM352.256 384.835L352.088 391.727H327.209H302.33L301.657 390.214C301.321 389.373 299.808 385.003 298.127 380.296C293.084 365.167 287.368 350.878 279.804 334.068C278.459 331.042 276.442 326.503 275.265 324.15C274.256 321.796 272.575 318.266 271.735 316.417C267.701 307.339 260.976 297.421 257.446 295.068C253.244 292.378 251.563 291.37 249.377 290.193C244.67 287.839 235.425 284.141 227.356 281.451C222.985 279.939 219.287 278.594 219.287 278.594C219.287 278.594 219.287 277.081 219.287 275.232L219.455 271.87L229.709 271.702C235.425 271.533 244.502 271.365 250.05 271.197C255.597 271.029 270.39 270.693 282.998 270.357C295.606 270.021 315.274 269.684 326.705 269.348C338.136 269.012 349.23 268.844 351.416 268.676H355.45V272.038C355.45 276.072 354.778 300.783 354.105 318.77C353.769 325.831 353.433 342.137 353.097 354.744C352.592 367.52 352.256 381.136 352.256 384.835ZM361.502 279.77C361.334 285.15 360.997 295.068 360.829 301.96C360.661 308.852 360.325 318.938 360.157 324.654C359.989 330.369 359.653 339.951 359.485 346.171C358.812 370.21 358.476 380.632 358.14 393.576C357.972 400.972 357.467 413.412 357.299 421.481C357.131 429.55 356.963 436.778 356.795 437.787L356.627 439.468H354.778H352.76L352.929 437.283C353.265 433.584 353.601 420.136 354.273 397.106C354.61 385.171 355.114 371.555 355.282 366.848C355.954 349.533 356.459 330.369 356.795 318.098C357.299 298.094 357.972 275.232 358.14 273.214L358.308 271.365L359.989 270.693C360.829 270.357 361.67 270.021 361.67 270.189C361.67 270.021 361.67 274.391 361.502 279.77ZM158.434 127.974C159.442 127.638 161.123 126.125 161.123 125.62C160.955 125.116 156.417 121.082 155.912 121.082C155.744 121.082 155.408 121.418 155.24 121.586C154.736 122.594 154.904 125.116 155.408 126.293C156.08 127.469 157.257 128.31 158.434 127.974ZM157.929 123.435C158.77 124.107 159.442 124.948 159.442 124.948C159.61 125.284 158.098 126.125 157.593 125.957C157.089 125.788 156.417 124.107 156.417 122.763C156.417 122.258 156.585 122.258 157.929 123.435ZM199.115 214.715C201.3 214.547 206.007 214.21 209.537 213.874C214.412 213.37 226.683 212.698 229.877 212.698C230.045 212.698 230.214 212.866 230.214 213.034C230.214 213.37 228.701 213.538 224.666 214.042C202.813 216.228 197.265 217.236 193.903 219.422C193.063 219.926 193.063 219.926 197.938 220.935C200.628 221.439 204.326 222.279 206.007 222.616C210.714 223.624 215.252 224.128 223.658 224.465C237.274 225.137 239.964 225.641 245.511 229.34C247.696 230.684 248.705 231.189 250.89 231.693C254.084 232.366 258.455 234.551 260.136 236.064C261.817 237.745 260.808 237.745 257.614 236.232C254.757 234.887 250.89 233.374 250.722 233.542C250.554 233.71 261.481 239.93 266.356 242.284C270.726 244.469 271.735 245.309 270.222 245.309C269.213 245.309 258.791 240.771 254.084 238.249C251.395 236.904 247.528 234.551 245.343 233.038C236.602 227.154 237.442 227.322 223.658 227.154C210.714 226.818 211.722 226.986 194.744 222.616C192.727 222.111 190.541 221.607 189.701 221.607C188.188 221.607 187.347 220.935 187.516 220.094C188.188 218.077 188.188 216.9 187.852 215.891C187.347 214.21 185.835 212.529 184.322 211.857C183.649 211.521 182.977 211.185 182.809 211.016C182.472 210.68 184.322 210.848 186.003 211.353C187.852 211.857 190.037 213.538 190.709 215.051C191.214 215.891 191.214 215.891 193.063 215.723C194.24 215.219 196.929 214.883 199.115 214.715ZM232.567 213.034C231.895 212.698 232.399 211.857 233.239 211.689C233.576 211.689 235.929 211.521 238.451 211.689C242.317 211.689 243.83 212.025 248.201 212.866C252.403 213.706 254.252 214.042 257.278 214.042L261.144 214.21L264.675 216.9C266.524 218.413 268.373 219.926 268.541 220.262C269.045 221.271 269.213 236.4 268.709 236.4C268.373 236.4 268.037 235.391 267.364 232.702C267.028 231.021 267.196 224.297 267.532 222.279C267.7 221.607 267.532 221.271 266.356 220.094C265.515 219.422 264.002 217.909 262.657 216.9L260.472 215.051L258.287 215.555C254.757 216.396 250.89 216.06 242.149 214.21C239.459 213.706 236.77 213.202 235.257 213.202C234.08 213.202 232.735 213.034 232.567 213.034ZM264.507 228.667C264.002 224.465 263.666 223.456 262.657 222.279C261.144 220.766 259.463 220.094 257.11 220.094C255.429 220.094 254.757 220.262 254.084 220.766C253.58 221.103 252.739 222.111 252.235 222.952C251.563 224.297 251.563 224.465 252.067 225.81C252.739 227.491 253.244 227.995 256.438 230.012C258.959 231.693 262.321 234.887 262.657 235.896C262.826 236.4 262.994 236.4 263.33 236.4C264.843 235.896 265.515 235.896 266.356 236.568C267.196 237.24 268.037 237.409 268.037 236.904C268.037 236.736 267.869 236.568 267.532 236.4C266.188 235.728 264.843 231.861 264.507 228.667ZM264.17 234.719C264.002 234.719 263.33 234.215 262.826 233.71C261.649 232.534 260.976 230.684 260.64 226.986C260.472 225.473 260.304 224.801 259.968 224.801C259.295 224.801 259.127 226.146 259.295 228.499L259.463 230.684L258.791 230.18C258.119 229.844 258.119 229.508 258.119 227.827C258.119 226.146 258.119 225.978 257.11 225.473C256.606 225.137 255.597 224.801 254.925 224.801C253.412 224.633 253.244 224.128 254.42 222.952C255.261 222.111 255.597 221.943 256.942 221.943C257.782 221.943 258.959 222.111 259.632 222.447C260.976 222.952 262.321 224.633 262.321 225.81C262.321 227.491 263.162 231.525 264.002 233.206C264.17 233.878 264.338 234.719 264.17 234.719ZM270.39 246.318C272.071 246.15 272.239 246.486 271.063 247.159C269.718 247.999 267.196 247.831 264.002 246.654C260.976 245.646 260.976 245.814 264.002 248.167C265.851 249.68 266.188 250.353 265.179 250.353C264.675 250.353 259.295 246.822 256.942 244.805C254.252 242.62 252.235 240.603 252.235 240.098C252.235 239.426 253.244 239.762 255.429 241.275C258.959 243.965 267.7 246.654 270.39 246.318ZM168.184 438.291C167.848 439.636 167.175 439.972 165.326 439.972H163.645V441.149C163.645 444.847 158.77 447.705 154.399 446.528C152.382 446.024 150.197 443.839 149.692 441.821L149.356 440.477H138.43C127.671 440.477 127.503 440.645 127.503 441.149C127.503 442.998 125.318 445.688 122.964 446.865C122.124 447.201 120.947 447.369 119.434 447.369C117.585 447.369 117.081 447.201 115.568 446.36C113.718 445.183 111.869 442.83 111.869 441.485V440.645H101.111C95.2272 440.645 90.1841 440.645 90.016 440.477C89.6798 440.308 89.5117 440.645 89.5117 441.149C89.1755 445.352 83.6281 448.209 79.2574 446.36C76.7359 445.352 75.223 442.998 75.223 440.645C75.223 440.14 74.8868 440.14 73.71 440.14C71.8609 440.14 70.8523 439.468 70.8523 438.123C70.8523 437.115 71.3566 436.946 71.6928 437.787C71.8609 438.123 72.1971 438.459 72.3652 438.627C72.7014 438.796 77.2402 438.796 82.6195 438.796C95.2272 438.627 143.809 438.627 156.753 438.796H166.671L167.343 437.955C168.184 436.946 168.352 437.115 168.184 438.291ZM167.007 106.457C166.167 105.952 166.503 104.439 167.343 103.599C168.352 102.758 168.856 102.758 169.36 103.431C169.697 103.767 169.697 104.103 169.192 104.944C168.52 106.457 167.848 106.961 167.007 106.457ZM74.5505 132.008C74.2143 132.344 73.71 132.513 73.2057 132.513C72.5333 132.513 72.1971 132.344 72.1971 131.672C71.8609 130.495 72.3652 129.319 73.0376 128.982C73.8781 128.646 73.8781 128.646 74.5505 128.982C75.223 129.487 75.223 131.168 74.5505 132.008ZM289.05 256.404H295.942L295.774 257.245L295.606 258.085L284.679 258.421C278.627 258.59 273.584 258.59 273.248 258.59C273.08 258.421 272.744 258.085 272.744 257.581V256.74L277.282 256.572C279.972 256.572 285.183 256.572 289.05 256.404ZM252.571 257.077C253.916 258.085 252.067 259.598 250.386 258.926C249.545 258.59 249.209 257.917 249.545 257.077C249.714 256.572 251.731 256.572 252.571 257.077ZM247.024 257.245C247.192 257.413 247.36 257.917 247.36 258.253C247.192 258.926 247.192 258.926 243.326 259.094C239.291 259.262 238.619 258.926 238.619 257.917C238.619 257.581 238.787 257.245 239.123 257.245C240.3 256.909 246.688 257.077 247.024 257.245Z" fill="#231F20"/>
</svg>
