<svg width="1000" height="500" viewBox="0 0 1000 500" fill="none" xmlns="http://www.w3.org/2000/svg">
<path d="M776.085 160.211L777.774 159.197L774.734 155.988C771.863 152.949 771.188 151.766 771.863 151.766C772.539 151.766 785.036 163.419 795.507 173.552L802.093 179.97L802.938 177.943C808.173 166.628 818.306 146.362 822.19 139.776C825.568 134.034 829.115 131.669 842.456 126.265C845.327 125.083 849.212 123.732 851.07 123.056L854.447 122.043L853.096 120.185C852.421 119.172 851.745 117.99 851.745 117.483C851.745 116.639 852.589 115.456 853.265 115.456C854.109 115.456 854.109 114.95 853.265 112.754C852.758 111.572 852.421 110.221 852.421 109.883C852.421 109.377 852.252 109.377 851.407 109.377C849.718 109.545 847.016 108.532 845.327 107.181C842.288 104.479 841.105 100.932 840.599 94.1771C840.43 91.9816 840.261 89.955 840.092 89.7861C839.923 89.6172 839.079 89.2794 838.234 89.1105C837.39 88.9417 836.208 88.6039 835.701 88.0972C834.857 87.4217 834.688 87.0839 834.519 85.9018C834.35 84.3818 834.519 84.2129 838.91 77.1198C842.794 71.04 843.301 69.3512 843.301 64.2847V60.2315L841.443 59.387C836.039 57.1916 832.155 49.7607 833.337 43.512C834.519 36.4189 840.599 31.5213 849.55 30.1702C852.589 29.6635 859.514 30.3391 862.891 31.5213C868.296 33.2101 874.207 37.6011 876.74 41.3165C877.078 41.8232 877.415 42.1609 877.584 41.992C878.091 41.6543 877.922 38.6144 877.415 37.4322C876.74 36.25 876.909 35.9122 877.922 36.4189C879.104 37.0944 879.78 38.9521 879.611 41.1476L879.442 43.1742L882.482 43.0053C885.353 42.8365 885.691 42.8365 887.717 43.8498C890.082 45.0319 891.602 46.7208 893.121 49.9296C894.304 52.2939 894.641 54.1517 894.979 57.1916C895.148 59.7248 894.641 65.8046 893.966 68.6756C893.121 71.8844 890.082 77.7953 885.353 84.7196C880.455 91.9816 877.753 96.5414 876.571 99.2436C876.233 100.257 875.727 101.101 875.727 101.101C875.727 101.101 875.22 100.932 874.713 100.595C873.193 99.7502 870.153 93.5015 869.647 90.1238C869.14 86.7462 869.647 85.2262 871.336 84.8885C872.011 84.7196 872.856 84.3818 873.362 84.044C876.064 82.0174 876.571 75.9376 874.038 75.9376C873.024 75.9376 870.998 77.1198 870.998 77.6265C870.998 78.1331 869.816 78.1331 869.478 77.6265C869.309 77.4576 869.478 76.4443 869.647 75.431C869.816 74.4177 869.984 72.8977 870.153 72.2222L870.322 71.04H868.296C866.607 71.04 866.1 70.8711 865.594 70.1956C864.58 69.1823 863.905 66.3113 864.411 64.7913C864.58 64.1158 864.749 63.6091 864.749 63.6091C864.749 63.6091 863.736 63.9469 862.385 64.4536C859.176 65.8046 857.994 65.9735 856.812 65.298C855.629 64.6224 854.785 63.1025 854.278 60.4003C854.109 59.2182 853.941 58.2049 853.941 58.2049C853.941 58.2049 852.421 58.5426 850.732 58.8804C848.874 59.387 846.847 59.7248 846.172 59.7248H845.327V63.778C845.327 69.8578 844.821 71.2089 839.585 79.4842C837.897 82.0174 836.714 84.5507 836.714 85.0573C836.714 85.7329 836.883 85.9018 838.066 86.2395C840.261 86.7462 841.781 87.5906 842.119 88.6039C842.288 89.1105 842.456 90.6305 842.456 92.4882C842.456 101.101 845.159 106.168 850.225 107.012C851.745 107.181 855.292 106.506 858.5 105.323C861.709 104.141 862.216 103.972 862.385 104.648C862.554 105.323 859.683 108.025 856.98 109.714L854.954 110.897L855.46 112.923C855.629 113.599 855.798 114.274 855.798 114.443C855.798 114.443 857.825 113.936 860.358 113.261C862.722 112.585 866.269 111.572 867.958 111.234C871.673 110.559 880.117 109.377 880.455 109.714C880.624 109.883 880.455 110.221 879.949 110.559C879.442 111.065 878.091 111.403 874.713 112.079C872.18 112.585 868.633 113.261 866.776 113.768C863.229 114.612 854.447 117.483 854.447 117.652C854.447 117.652 854.954 118.665 855.629 119.847C856.305 121.03 856.812 122.212 856.812 122.381C856.812 122.887 855.292 123.563 851.576 124.745C845.328 126.772 837.052 130.318 832.155 133.02C829.284 134.709 825.568 137.58 825.568 138.425C825.568 138.593 826.244 139.1 827.088 139.269C833.337 141.127 840.261 146.7 844.99 153.624C846.341 155.651 849.381 162.068 850.225 164.77C851.07 167.472 851.407 169.837 850.901 169.837C850.732 169.837 850.394 169.668 850.394 169.33C846.679 155.651 836.714 143.829 826.413 141.127C824.386 140.62 824.386 140.62 823.879 141.296C822.697 142.984 808.511 170.85 804.964 178.619C797.533 194.325 797.871 193.818 797.196 193.818C796.013 193.818 795.676 192.129 795.845 188.414C796.014 186.556 796.182 184.53 796.52 183.685C796.858 182.503 797.027 182.334 797.871 182.334C798.716 182.334 798.884 182.503 799.391 183.516L799.898 184.699L800.404 183.685C800.742 183.179 800.911 182.503 800.911 182.334C800.911 182.165 796.013 177.437 790.271 171.526L779.632 161.055L777.943 161.562C773.383 162.913 769.161 171.357 768.823 179.801C768.823 181.152 768.823 183.01 768.823 184.192V186.219L776.254 194.325C784.023 202.769 805.64 226.244 808.004 229.115L809.355 230.635L811.889 228.102C819.488 220.333 828.439 208.849 834.857 199.054C836.208 197.027 839.417 191.623 842.119 186.894C849.212 174.566 848.874 175.072 849.718 175.241C850.394 175.241 850.563 175.41 850.732 176.93C850.732 177.774 850.732 179.463 850.394 180.477C849.887 183.01 847.523 188.752 846.679 189.596C845.834 190.61 844.483 190.441 843.976 189.427L843.639 188.583L843.301 189.427C843.132 189.934 842.625 191.285 842.288 192.298C841.95 193.312 839.079 200.574 835.87 208.342C829.959 222.866 829.452 224.555 828.777 228.946C827.764 235.533 825.399 242.795 822.697 247.692C821.008 250.563 818.644 253.434 817.968 253.434C817.293 253.434 817.293 253.265 818.813 251.07C822.022 246.341 824.724 239.079 826.075 231.31C826.919 226.751 827.426 213.24 826.75 213.915C826.581 214.084 824.893 216.111 823.035 218.138C817.462 224.893 809.862 232.155 808.68 232.155C808.342 232.155 804.795 228.439 795.507 218.138C785.88 207.498 768.148 187.401 762.912 181.321C761.055 179.125 760.379 177.943 761.055 177.943C761.223 177.943 762.575 179.463 764.263 181.152L767.303 184.361L767.134 182.165C766.628 177.437 768.317 169.499 770.681 165.446C772.37 163.419 774.228 161.393 776.085 160.211ZM885.691 40.9787C885.86 40.8099 885.86 40.3032 885.691 39.9654C885.353 39.2899 883.664 39.2899 882.313 39.9654C881.131 40.641 880.455 41.6543 880.962 42.1609C881.469 42.4987 885.353 41.4854 885.691 40.9787ZM849.55 70.5334C848.705 71.2089 848.367 73.7421 849.212 74.5866C850.056 75.431 850.225 75.2621 851.07 74.0799C852.421 71.7155 851.407 69.1823 849.55 70.5334ZM856.305 91.306C856.136 91.4749 855.967 92.1504 855.798 92.826C855.629 94.177 854.109 95.8659 853.434 95.697C852.758 95.5281 852.083 96.0348 852.421 96.5414C852.589 96.8792 853.096 97.217 853.434 97.3858C855.292 98.0614 857.825 95.8659 858.163 93.1637C858.332 91.4749 857.318 90.2927 856.305 91.306ZM759.028 172.032C759.366 171.863 759.366 172.37 759.366 173.552C759.366 175.241 759.872 176.086 760.886 175.748C761.223 175.579 761.392 174.903 761.392 172.37C761.392 168.317 762.237 164.939 764.263 160.886C765.446 158.353 766.29 157.339 768.148 155.313C770.512 152.949 770.681 152.611 769.668 152.611C768.992 152.611 767.134 149.571 764.601 144.335C763.419 141.971 761.392 138.087 760.21 136.06C758.859 134.034 757.677 131.838 757.339 131.163C757.001 130.487 756.664 130.149 756.495 130.149C755.65 130.149 756.326 131.838 759.197 137.073C760.886 140.113 762.912 144.335 764.094 146.362C765.108 148.389 766.459 150.922 767.134 151.766C768.317 153.455 768.485 153.793 767.81 153.793C766.628 153.793 759.872 159.366 758.521 161.562C758.184 162.068 757.677 163.25 757.339 164.264L756.664 166.121L754.468 164.77C753.286 163.926 751.09 162.913 749.908 162.237C748.557 161.562 746.531 160.717 745.517 160.211C742.646 158.691 734.371 155.313 734.033 155.482C733.527 155.82 734.709 156.326 739.606 158.691C742.14 159.873 745.348 161.562 746.7 162.237C748.051 163.082 750.077 164.095 750.922 164.601C753.117 165.784 759.197 169.499 759.197 169.837C759.197 170.006 758.184 170.175 757.001 170.175C753.624 170.512 724.745 174.397 724.576 174.566C724.407 174.734 723.562 174.903 722.887 175.072L721.367 175.41L719.509 171.526C718.496 169.33 717.483 167.304 717.314 166.797C717.145 166.29 714.274 159.366 710.896 151.597C707.519 143.829 702.959 132.851 700.763 127.616L696.71 117.821H698.737C702.959 117.652 707.35 116.976 718.834 114.781C725.42 113.43 730.824 112.416 730.824 112.416C730.824 112.416 731.162 111.403 731.331 110.39L731.669 108.363L738.593 106.843C742.477 105.999 745.686 105.492 745.855 105.492C746.024 105.661 747.206 109.883 748.726 115.119C750.246 120.354 752.104 126.772 752.948 129.474C755.144 136.567 754.806 138.931 751.766 140.958C750.753 141.633 750.246 141.802 747.713 141.802C746.024 141.802 742.14 141.296 738.424 140.62C731.162 139.269 731.5 139.269 731.5 139.776C731.5 140.282 732.513 140.62 738.931 141.802C742.14 142.478 747.713 143.66 751.428 144.673C757.846 146.362 760.21 146.7 760.21 146.024C760.21 145.855 759.872 145.687 759.366 145.518C758.69 145.349 758.521 145.011 758.352 143.998C758.184 143.322 756.833 138.087 755.313 132.682C744.842 96.0348 745.517 97.8925 743.153 98.3991C741.971 98.568 741.971 98.568 741.971 97.8925C741.971 97.0481 741.126 95.1904 740.62 95.1904C740.451 95.1904 740.451 95.8659 740.451 97.0481C740.789 99.0747 741.295 98.9058 734.878 100.088C732.344 100.595 726.096 101.777 720.86 102.79C715.625 103.803 711.065 104.648 710.558 104.817C710.052 104.986 710.727 104.648 712.078 104.141C713.429 103.635 714.612 103.128 714.949 102.79C715.794 102.115 722.887 99.9191 728.629 98.568C736.904 96.7103 739.1 96.0348 739.1 95.5281C739.1 95.1904 738.931 95.0215 738.931 95.0215C738.762 95.0215 736.735 95.3592 734.371 95.8659C720.691 98.3991 703.972 103.128 696.71 106.506C694.683 107.519 694.177 108.025 694.346 108.87C694.514 109.377 694.852 109.377 697.048 109.208C699.75 109.039 714.105 106.506 732.851 102.79C738.931 101.608 744.166 100.595 744.166 100.595C744.335 100.595 745.348 103.972 745.348 104.141C745.348 104.141 743.322 104.648 740.789 105.154C733.527 106.674 730.487 107.35 730.318 107.688C730.149 107.857 729.98 108.701 729.98 109.714L729.811 111.403L718.665 113.599C705.999 116.132 698.905 117.314 698.399 116.807C698.23 116.639 697.554 115.287 696.879 113.936C695.697 111.065 695.359 110.559 694.852 111.065C694.514 111.403 694.683 111.91 695.359 113.43C696.203 115.287 696.203 115.456 695.697 115.794C695.359 115.963 695.19 116.639 695.021 117.145C695.021 117.821 699.074 127.785 707.519 147.544L720.016 176.93H721.536C722.38 176.93 728.122 176.254 734.202 175.579C740.282 174.903 748.388 173.89 752.104 173.383C755.481 172.539 758.69 172.201 759.028 172.032ZM933.485 177.606C930.783 167.135 922.338 150.078 911.023 131.838C904.774 121.705 899.708 115.625 896.33 113.768C894.641 112.923 891.095 112.416 889.068 112.585L887.211 112.754L886.366 111.403C885.184 109.377 884.677 109.208 884.846 111.234C885.015 112.079 885.184 113.261 885.522 113.768L886.028 114.781L889.237 114.612C892.953 114.443 894.81 114.95 897.175 116.639C903.592 121.367 921.663 151.597 928.925 169.668C933.147 180.308 934.667 189.09 932.978 194.494C932.303 196.689 932.64 197.534 933.485 196.352C935.342 193.649 935.342 184.868 933.485 177.606ZM930.782 198.378C930.614 198.378 929.431 199.391 928.08 200.574C924.196 203.951 920.143 205.64 917.272 204.965C916.427 204.796 915.245 203.614 914.232 202.263C913.725 201.587 912.543 195.169 910.685 182.165C907.139 158.859 904.099 145.011 900.721 137.411C900.046 135.722 900.046 135.554 900.384 135.216C901.566 134.371 900.721 132.176 897.175 126.265C894.979 122.718 893.797 121.198 892.615 120.692C891.433 120.016 891.433 120.016 891.433 120.523C891.433 120.692 891.939 121.874 892.615 123.056C893.966 125.589 898.695 137.242 899.877 141.127C902.072 148.22 904.774 161.055 907.477 179.125C911.699 205.809 914.401 217.293 919.805 228.777C921.325 232.324 923.858 236.208 925.209 237.559C926.729 239.079 927.236 238.572 926.054 237.053C923.521 233.506 920.143 225.568 917.778 217.631C917.103 215.267 916.596 213.24 916.427 212.902C916.427 212.564 917.441 211.382 919.805 209.693C925.378 205.471 932.134 198.378 930.782 198.378ZM749.57 150.077C750.922 149.74 751.259 149.233 749.908 149.233C748.388 149.233 743.491 147.375 736.735 144.335C733.189 142.647 730.149 141.296 729.811 141.296C729.642 141.296 729.473 141.464 729.473 141.633C729.642 142.309 742.815 148.726 745.686 149.571C747.544 150.077 748.726 150.077 749.57 150.077ZM744.842 152.273C743.322 151.429 740.113 149.74 737.58 148.558C735.047 147.375 732.176 145.855 731.5 145.518C729.98 144.673 729.473 144.335 729.473 144.842C729.473 145.687 731.162 147.038 734.033 148.558C735.722 149.571 737.58 150.415 738.086 150.584C738.593 150.753 738.762 150.922 738.762 150.922C738.762 150.922 737.242 150.584 735.553 150.077C732.344 149.064 731.162 148.895 731.162 149.402C731.162 150.246 737.242 152.442 744.335 154.3C749.233 155.651 749.571 154.975 744.842 152.273ZM731.669 152.442C731.669 152.949 734.709 154.3 739.944 156.326C743.997 157.846 745.348 158.184 745.517 157.508C745.517 157.339 744.504 156.833 736.904 153.624C733.189 152.273 731.669 151.935 731.669 152.442ZM766.29 175.748C766.797 174.903 766.797 174.734 766.29 173.89C765.952 173.215 765.446 172.877 764.77 172.877C763.926 172.877 763.588 172.877 763.419 173.721C762.912 174.903 762.912 175.241 763.588 176.086C764.263 177.268 765.614 177.099 766.29 175.748ZM914.908 241.275C909.334 242.457 903.93 244.146 889.237 249.55C868.802 256.981 861.878 258.839 848.536 260.865C844.145 261.541 831.31 261.372 826.919 260.696C822.022 259.852 818.644 258.838 817.631 257.656C816.617 256.643 816.617 256.136 817.293 255.292C817.968 254.448 817.968 254.11 817.293 254.11C816.617 254.11 815.435 255.799 815.435 256.643C815.435 257.994 818.982 260.358 822.359 261.372C823.204 261.541 823.71 261.878 823.71 262.216C822.528 265.594 800.742 338.045 793.649 361.689C790.947 370.977 786.556 385.332 784.023 393.776C779.801 407.625 778.112 413.367 771.694 435.828C770.512 439.882 769.668 443.428 769.668 443.597C770.005 444.273 770.343 443.935 771.019 442.415C772.032 439.544 781.658 408.638 785.712 395.128C787.907 387.866 792.129 374.017 795.169 364.391C798.209 354.764 805.302 331.29 811.044 312.375C816.786 293.291 822.359 275.22 823.373 272.011C824.386 268.803 825.399 265.425 825.737 264.243C826.244 262.385 826.244 262.385 827.257 262.554C837.728 264.749 850.394 263.905 865.425 259.852C872.18 258.163 878.091 256.136 890.251 251.408C901.566 247.186 911.023 243.977 911.361 244.315C911.53 244.483 911.53 247.354 911.53 250.732C911.53 257.319 910.854 264.918 909.672 276.065C907.814 291.095 907.477 293.966 906.97 294.811C906.632 295.486 906.294 297.513 905.957 303.93C902.748 365.573 902.579 369.119 901.397 397.154C900.89 407.963 900.384 419.953 900.215 424.175C899.708 434.477 899.708 445.624 900.046 445.793C900.721 445.961 901.059 442.753 903.423 399.687C905.112 368.106 905.45 362.026 906.463 342.436C908.659 294.473 908.659 295.148 909.334 292.446C910.685 287.211 911.868 279.273 913.05 266.945C913.894 259.345 913.725 259.683 914.739 259.683C916.765 259.683 923.352 255.292 926.223 252.083C928.925 249.043 929.769 245.328 928.418 243.132C926.56 240.937 920.818 240.092 914.908 241.275ZM874.713 302.41C871.504 306.464 871.167 306.97 871.673 307.646C872.011 308.152 872.18 308.152 873.024 307.646C873.531 307.308 874.882 306.126 875.895 304.944C880.117 300.553 882.82 295.655 885.184 288.731C886.873 283.496 887.548 280.118 887.717 274.714C887.886 270.66 887.886 269.985 887.211 267.789C886.535 265.594 886.028 265.087 885.522 265.594C885.353 265.763 885.353 267.62 885.522 269.647C885.691 274.207 885.353 278.091 884.002 283.495C882.144 291.095 879.442 296.5 874.713 302.41ZM894.81 443.597C896.161 443.259 896.33 442.415 895.148 442.753C894.81 442.753 890.082 442.922 884.677 442.753C874.038 442.753 873.531 442.584 870.829 440.726C869.647 439.882 867.958 436.504 866.776 432.282C865.762 428.904 866.1 432.113 863.736 391.074C862.891 376.044 862.047 360.844 861.878 357.129L861.54 350.542L862.554 346.658C863.905 341.76 865.256 335.681 866.945 327.405C867.62 323.859 868.633 319.13 869.309 316.766C870.829 310.686 870.829 310.686 870.153 310.686C869.816 310.686 869.309 311.53 868.633 312.543C868.127 313.557 866.438 316.934 865.087 319.974C863.736 323.014 859.851 330.952 856.643 337.876C848.705 354.764 834.857 384.15 821.853 412.354C812.226 433.464 810.875 435.828 810.2 435.828C809.693 435.828 808.68 435.997 807.835 436.166C804.289 437.011 796.013 437.855 789.765 438.024C783.516 438.193 780.307 438.024 776.592 437.011C775.072 436.673 775.747 437.517 777.605 438.362C780.476 439.713 783.178 439.882 791.285 439.713C799.053 439.544 806.315 438.699 808.68 437.686C809.355 437.348 810.031 437.18 810.031 437.18C810.031 437.18 809.524 438.531 808.68 440.388L807.329 443.597L805.302 444.273C800.911 445.624 796.52 446.13 787.738 446.13C780.307 446.13 779.125 445.961 775.41 445.286C773.214 444.779 771.357 444.61 771.188 444.779C770.85 445.117 771.863 445.624 773.89 446.299L775.916 446.806L773.721 448.832C768.485 453.73 760.041 458.459 746.531 464.032C745.18 464.539 743.828 465.383 743.66 465.721C743.153 466.734 743.66 468.93 744.504 469.267C745.011 469.605 752.442 469.605 773.214 469.436C788.583 469.267 801.418 469.098 801.418 469.098C801.418 469.098 801.587 464.032 801.587 457.952V446.975L802.938 446.637C804.458 446.299 805.64 445.793 807.329 445.117C807.835 444.948 808.511 444.61 808.849 444.442C809.186 444.273 810.031 443.09 810.706 441.57C815.604 431.269 851.914 352.4 855.967 343.618C857.318 340.747 858.5 338.383 858.5 338.383C858.5 338.383 858.838 343.787 859.345 350.204C861.54 387.528 865.087 443.935 865.425 446.975C865.762 449.508 866.269 448.495 866.269 445.286C866.269 442.753 866.269 442.246 866.776 442.922C867.113 443.428 867.958 443.597 870.66 443.766C875.895 444.104 893.121 444.104 894.81 443.597ZM911.192 463.019C905.619 460.654 899.032 457.446 896.499 455.926C894.641 454.743 892.615 453.055 892.615 452.548C892.615 452.379 893.459 452.041 894.304 451.872C896.668 451.366 898.695 450.184 898.864 449.339C899.032 448.495 898.695 448.495 896.499 449.339C893.966 450.352 888.393 450.69 879.273 450.521C874.713 450.352 870.322 450.184 869.647 450.015C867.789 449.508 867.451 449.508 867.282 450.015C867.113 450.521 869.14 451.703 870.829 451.872C872.18 452.041 872.18 452.21 872.011 452.717C871.842 453.055 870.998 456.939 870.153 461.161C869.309 465.383 868.465 469.098 868.296 469.436C868.127 469.774 868.296 470.281 868.633 470.45C868.971 470.787 872.349 470.956 891.77 470.787C904.268 470.787 915.752 470.618 917.441 470.45C920.312 470.281 920.481 470.112 920.818 469.436C921.494 467.916 919.805 466.734 911.192 463.019Z" fill="#231F20"/>
<path d="M166.246 69.6876C164.219 66.4788 166.921 62.5945 173.339 59.048C178.068 56.3458 177.899 56.8525 177.899 50.266V44.524L178.912 42.4974C180.263 39.6263 183.472 36.2487 186.343 34.8976C189.552 33.2088 191.578 32.7021 195.8 32.5332C201.711 32.1955 205.764 33.3777 207.791 35.742L208.467 36.5864L209.649 35.2354C211.338 33.3777 213.871 31.6888 216.404 30.8444C218.937 30 222.146 29.8311 224.173 30.3378C227.044 31.1822 229.239 34.2221 229.239 37.4309C229.239 38.2753 228.901 40.133 228.733 41.3152L227.888 43.6796L229.577 43.8484C232.617 44.1862 234.812 45.7062 235.15 48.2394C235.319 49.7594 234.475 52.2926 232.786 54.8259L231.604 56.6836L232.786 57.6969C234.981 59.5546 235.319 62.2567 233.461 66.3099C232.955 67.661 231.941 69.3499 231.435 70.0254C230.59 71.3765 230.421 71.5453 230.928 72.052C231.097 72.3898 231.435 73.0653 231.435 73.7408C231.435 75.9363 228.901 78.3007 226.537 78.3007H225.693L225.862 82.6917C226.03 86.576 226.03 87.2515 225.186 89.6159C223.666 95.0201 219.613 100.087 215.56 102.113L213.533 103.127V106.673V110.22L212.013 110.051C210.155 109.713 207.96 108.531 204.92 105.998C201.373 102.958 199.685 101.1 199.854 100.256C200.022 99.4111 200.529 99.4111 203.907 100.593C205.427 101.1 207.791 101.438 209.142 101.607C211.506 101.775 211.844 101.775 213.533 100.931C217.08 99.2422 220.964 94.6824 222.653 90.1225C223.328 88.4337 223.328 87.5893 223.328 79.9895C223.328 73.0653 223.497 71.0387 224.004 67.1544C224.679 62.7634 224.679 61.0746 224.173 58.7102C224.004 58.2035 223.328 57.6969 221.471 57.0214C217.586 55.5014 214.546 53.3059 212.858 50.7727C212.351 50.0971 212.351 50.0971 212.182 51.4482C211.506 57.528 203.569 64.9589 196.307 66.3099L194.111 66.6477L192.423 70.1943L190.734 73.7408L189.721 73.5719C189.214 73.4031 188.538 73.2342 188.201 73.2342C187.356 73.0653 186.005 74.2475 185.836 75.4297C185.498 77.1185 186.343 78.6384 188.201 79.314C190.903 80.3273 191.24 80.4962 191.578 82.0161C191.916 83.705 191.578 86.576 190.058 94.3446C188.707 101.269 188.369 102.282 187.694 102.282C187.356 102.282 187.187 101.775 187.018 100.762C187.018 99.58 186.681 99.2422 185.836 98.3978C183.641 96.3712 181.952 92.9935 181.445 89.7848C180.939 86.4071 181.276 86.576 177.899 86.576C174.521 86.576 173.17 86.0693 171.481 84.2116C168.779 81.5095 168.948 77.2874 171.988 73.5719L172.832 72.3898L171.143 72.2209C168.779 71.8831 166.921 71.0387 166.246 69.6876ZM204.92 71.0387C205.596 71.0387 206.778 69.5187 206.778 68.6743C206.778 67.661 205.764 67.1544 204.92 67.8299C203.4 68.8432 203.4 71.0387 204.92 71.0387ZM215.729 76.7807C215.56 75.9363 215.391 73.5719 215.391 71.8831C215.391 70.0254 215.222 68.6743 215.053 68.6743C214.884 68.6743 214.546 68.8432 214.377 69.181C214.04 69.5187 213.871 70.8698 213.871 73.2342L213.702 76.7807H212.013C209.818 76.7807 209.649 77.4563 211.844 78.4696C215.222 79.9895 216.235 79.4829 215.729 76.7807ZM220.964 70.1943C220.795 69.0121 219.444 68.8432 218.6 69.8565C217.755 71.0387 218.262 72.2209 219.444 72.2209C220.626 72.3898 221.133 71.5453 220.964 70.1943ZM203.907 86.576C204.751 88.9403 207.284 90.1225 209.649 89.447C211.338 88.9403 212.689 87.927 212.351 87.0826C212.013 86.4071 211.675 86.4071 210.155 87.2515C207.622 88.4337 205.596 87.0826 205.089 84.2116C204.751 81.8472 204.582 81.5095 203.907 82.185C203.569 82.3539 203.569 85.5627 203.907 86.576ZM627.973 343.786L625.609 343.954L625.778 356.114C625.947 362.869 626.116 374.691 626.284 382.291C626.453 390.06 626.622 396.477 626.622 396.477C626.791 396.646 628.818 396.477 631.182 396.308C637.093 395.802 645.368 396.139 648.239 396.815C650.941 397.659 653.644 399.179 655.332 401.037C658.372 404.415 659.217 409.481 658.203 421.134L658.035 423.33L659.217 424.005C660.399 424.681 661.074 425.694 661.412 426.876C661.581 427.552 661.581 427.552 660.737 427.721C660.061 427.721 659.723 427.552 659.217 426.876C658.372 425.694 656.852 425.019 654.15 425.019C651.448 425.019 649.928 425.694 649.084 427.045C648.746 427.552 648.408 427.89 647.902 427.89C647.226 427.89 647.226 427.721 647.226 426.876C647.226 425.019 649.421 423.33 652.461 422.992L653.812 422.823L653.981 418.094C654.319 408.975 652.968 404.584 648.746 402.726C647.057 401.882 646.719 401.882 640.133 401.713C634.222 401.544 627.129 402.05 626.622 402.388C626.622 402.388 626.622 407.455 626.791 413.366L627.129 424.174L628.48 424.681C630.338 425.356 631.351 426.032 632.195 427.552C632.871 428.734 633.209 430.254 632.702 430.592C632.533 430.592 632.026 430.761 631.689 430.929C630.844 431.098 630.844 431.098 630.844 430.254C630.844 426.201 622.4 425.356 619.867 429.241C619.191 430.254 619.022 430.423 618.347 430.254C618.009 430.254 617.502 429.916 617.502 429.747C617.502 428.903 619.022 426.707 620.205 425.863L621.725 424.85L621.556 422.316C621.387 420.965 621.387 415.899 621.387 411.001V402.219H615.983C610.072 402.219 605.005 402.895 602.81 404.077C599.601 405.766 598.419 408.299 598.25 414.379C598.25 416.743 598.25 419.783 598.419 421.303L598.756 424.174L599.939 424.512C601.627 424.85 603.147 425.863 603.823 427.045C604.498 428.227 604.498 429.241 603.823 429.241C603.654 429.241 603.147 429.241 602.81 429.41C602.472 429.578 602.303 429.41 602.303 428.734C602.303 425.356 593.352 425.187 592.001 428.565C591.663 429.578 590.65 429.747 590.481 428.903C590.143 427.552 591.494 425.863 593.521 425.019L594.703 424.512L594.365 422.148C594.028 419.108 594.365 410.832 594.872 408.806C595.885 405.09 598.419 402.05 601.459 400.362C604.33 398.842 611.423 397.828 618.009 397.828H621.556L621.387 388.877C621.218 383.98 621.049 371.82 621.049 362.025L620.88 344.123L612.267 344.292C607.538 344.461 596.561 344.799 587.779 345.306C572.579 345.981 571.735 346.15 569.371 346.825C567.513 347.501 566.837 347.501 566.5 347.332C565.655 346.488 568.02 345.474 578.49 341.928C588.455 338.55 593.183 336.524 601.121 332.639C616.489 325.04 622.907 320.817 629.493 314.062C634.729 308.658 637.093 304.774 638.275 298.863C638.951 295.823 639.288 291.263 638.951 289.743L638.782 288.561L636.08 289.743C632.533 291.094 627.298 292.445 621.556 293.458C615.476 294.472 602.303 294.472 595.548 293.627C590.819 292.952 585.246 291.938 581.699 290.925C579.841 290.418 579.504 290.418 578.153 290.756C575.788 291.432 570.384 292.107 567.344 292.107C565.824 292.107 564.304 292.276 564.304 292.445C563.798 293.289 551.638 297.005 539.985 300.045L535.425 301.227V306.8C535.425 309.84 535.425 312.373 535.425 312.373C535.594 312.373 536.776 311.698 538.465 311.022C542.012 309.333 549.105 306.125 552.482 304.942C553.833 304.436 556.873 303.085 558.9 301.902C563.629 299.369 570.384 296.16 572.073 295.654C573.593 295.316 575.113 295.147 575.113 295.485C575.113 295.654 574.437 295.992 573.593 296.16C570.215 297.005 565.993 299.538 566.669 300.383C566.837 300.551 569.54 300.045 572.748 299.369C579.504 298.018 583.219 297.512 584.232 298.018C585.077 298.356 584.908 299.031 584.064 299.031C581.868 299.2 571.397 301.565 567.344 302.747C556.198 305.956 547.585 309.333 539.141 313.555L535.087 315.582L534.918 324.533C534.75 329.43 534.75 341.252 534.75 350.879C534.918 369.287 534.918 369.794 536.607 376.38C537.789 380.771 540.66 387.358 543.194 391.073C543.869 392.086 546.065 394.62 547.922 396.815C554.34 403.908 556.873 407.455 555.691 407.455C555.522 407.455 554.509 406.441 553.496 405.09C552.482 403.908 548.091 399.179 543.7 394.62C539.478 390.229 535.594 386.175 535.425 385.669C534.75 384.993 534.75 385.162 534.75 398.166C534.75 405.428 534.581 420.628 534.581 431.943C534.412 448.662 534.243 452.378 533.905 452.378C533.567 452.378 533.398 439.036 533.398 373.002V293.627H531.71H530.021V295.823C530.021 297.005 530.021 299.369 529.852 301.058C529.852 302.747 529.683 334.497 529.514 371.82C529.345 444.947 529.176 451.871 528.501 451.871C528.163 451.871 527.994 451.027 527.994 446.805V441.738L504.182 441.569C491.009 441.4 474.289 441.231 466.858 441.231L453.348 441.063L453.517 448.325C453.685 455.08 453.517 455.586 453.01 456.262C452.503 456.938 451.997 457.106 450.814 457.275C448.112 457.613 445.917 456.262 446.761 454.911C447.099 454.573 447.775 454.404 449.463 454.404H451.828V450.351C451.828 448.156 451.997 445.285 451.997 444.102L452.166 441.907L450.983 442.92C448.957 444.778 448.281 446.636 448.281 449.507C448.281 452.884 447.943 454.067 447.437 453.898C446.761 453.729 446.592 451.364 446.423 439.88C446.423 433.294 446.423 429.916 446.761 429.747C447.437 429.241 448.112 430.254 448.112 432.112C448.112 433.632 448.112 433.801 448.788 433.463C449.126 433.294 450.139 432.449 451.152 431.605C452.166 430.761 453.01 430.085 453.179 430.085C453.348 430.085 453.517 430.761 453.517 431.943V433.801L457.57 433.969C459.765 434.138 462.299 434.138 463.143 434.138H464.663L462.974 433.463C461.961 433.125 459.428 431.943 457.232 430.929C454.023 429.41 452.166 428.734 447.268 427.552C438.824 425.525 434.264 423.499 432.237 421.134C430.211 418.77 429.197 415.73 429.873 414.041L430.211 413.197L432.913 414.041C437.473 415.392 441.019 415.899 445.579 415.899C450.308 415.899 455.712 415.054 458.921 413.703C459.934 413.366 461.623 412.69 462.636 412.183C463.65 411.846 464.663 411.339 464.663 411.339C464.663 411.17 464.494 410.832 464.156 410.663C463.143 409.481 463.987 409.481 466.014 410.663C468.885 412.352 473.951 414.379 477.667 415.054C482.058 415.899 487.969 416.574 489.32 416.068C490.333 415.73 490.333 415.73 490.84 413.366C491.178 412.015 491.515 410.663 491.515 410.157L491.684 409.312L486.787 409.144C483.747 408.975 480.876 408.637 479.018 408.299C473.952 407.286 469.054 404.921 467.872 403.064C467.365 402.219 467.534 401.713 468.378 402.219C471.418 404.415 474.965 405.766 480.031 406.779C483.747 407.455 491.684 407.961 492.022 407.455C492.191 407.286 492.866 405.259 493.542 403.064C495.231 397.322 497.933 391.073 502.324 382.291C505.195 376.549 506.546 373.34 507.897 368.949C510.261 361.518 511.613 356.452 511.95 352.23C513.132 340.07 513.639 336.524 514.821 333.484C516.848 327.742 521.914 321.324 526.981 317.946L528.501 316.933V310.178C528.501 304.942 528.501 303.422 528.163 303.591C527.994 303.591 525.63 304.267 522.928 305.111C505.026 310.178 490.502 319.129 483.747 329.093C481.551 332.47 479.525 336.524 477.667 342.097C475.809 347.501 474.458 354.087 472.263 367.767C470.405 379.927 469.054 386.344 466.352 396.815C463.987 406.104 463.481 407.961 462.974 407.961C462.13 407.961 462.805 403.233 465.507 389.553C466.521 384.487 468.041 375.873 468.885 370.638C473.107 342.603 477.16 331.457 485.942 322.337C490.84 317.271 496.075 313.724 504.688 309.333C510.768 306.293 514.99 304.605 522.252 302.578L528.163 300.889L528.332 297.512L528.501 294.134H490.671H453.179V346.15C453.179 399.686 453.01 412.69 452.503 412.69C451.828 412.859 451.828 407.455 451.659 369.963C451.659 349.021 451.49 323.351 451.49 312.88V293.965H449.97H448.45L448.281 330.95C447.943 383.98 447.606 412.859 447.099 413.366C446.761 413.703 446.592 413.703 446.423 413.366C446.255 413.197 446.086 394.113 446.255 353.581L446.423 294.134H332.427H217.924L217.755 297.68C217.586 299.707 217.417 308.658 217.08 317.946C216.404 338.55 215.391 371.82 214.04 409.481C213.364 430.592 213.026 438.191 212.689 438.36C212.351 438.867 211.338 438.529 211.169 438.023C211.169 437.854 211.169 435.658 211.338 433.125C212.182 416.068 215.391 309.84 215.391 297.343V294.134H188.369H161.517L161.348 298.694C161.179 301.227 161.179 314.062 161.179 327.404L161.348 351.048L164.557 342.266C169.961 327.066 177.73 306.462 178.405 305.111C178.743 304.436 179.587 304.605 179.925 305.449C180.094 305.787 179.756 309.164 178.405 317.44C177.223 324.195 176.379 330.275 176.379 332.639C176.21 335.341 176.548 343.279 177.392 358.31C179.081 390.397 179.756 404.077 180.094 415.392L180.432 425.525H184.992C187.525 425.525 193.267 425.356 197.658 425.187C202.049 425.019 205.764 425.019 205.933 425.019C206.271 425.356 205.427 425.694 204.076 425.863C203.4 426.032 198.671 426.37 193.436 426.707C188.201 427.045 183.641 427.552 183.472 427.721C183.134 427.89 182.459 428.565 181.783 429.41L180.601 430.761V433.969C180.601 435.827 180.77 437.178 180.939 437.347C181.107 437.516 186.512 437.516 193.098 437.516C205.933 437.516 210.831 437.685 210.493 438.36C210.493 438.529 209.818 438.698 209.142 438.867C208.467 438.867 207.96 439.036 207.96 439.205C207.96 439.543 209.649 442.076 211.338 444.271C213.364 446.973 215.897 448.662 222.484 451.871C225.355 453.222 229.577 455.418 232.11 456.6C237.515 459.302 240.892 461.497 241.737 462.848C242.243 463.862 242.243 463.862 241.737 464.537L241.23 465.213L212.013 464.706C195.969 464.537 182.627 464.368 182.121 464.368C180.601 464.368 180.601 464.2 182.29 451.533C183.134 444.947 183.978 439.374 184.147 439.205C184.316 439.036 183.641 439.036 182.29 439.036C180.77 439.205 180.094 439.205 179.925 438.867C179.25 438.023 177.561 409.481 174.69 350.879C174.014 338.55 173.508 327.066 173.339 325.715L173.17 323.013L169.961 332.47C168.103 337.706 165.57 345.306 164.05 349.359L161.348 356.621L161.179 410.157C161.01 439.711 161.01 463.862 161.01 463.862C160.504 464.368 160.335 463.355 160.166 459.809C159.997 454.573 159.659 418.601 159.49 356.79C159.321 330.782 159.321 306.125 159.153 302.24L158.984 295.147L157.802 295.823C155.099 297.512 155.099 297.343 155.268 302.409C155.437 304.942 155.437 330.613 155.606 359.492C155.606 388.371 155.775 424.343 155.775 439.374L155.944 466.733H158.815C161.179 466.733 161.686 466.902 161.686 467.239C162.024 469.097 154.762 470.955 153.748 469.435C153.579 469.266 153.411 462.68 153.411 454.911V440.725H142.771H132.131L131.793 444.609C131.287 449.676 129.767 460.822 129.598 461.16C129.429 461.329 92.7813 462.342 83.8305 462.342C77.7507 462.342 77.4129 462.173 77.7507 460.653C78.0885 459.471 78.764 458.964 83.3239 456.262C91.4303 451.533 96.4968 447.649 100.381 443.089C101.394 441.738 102.239 440.725 102.239 440.725C102.239 440.725 95.4835 440.556 87.3771 440.387L72.6842 440.556L72.5153 453.222C72.5153 460.146 72.3464 466.057 72.1776 466.226C71.502 466.902 71.3331 464.706 71.3331 454.067V442.582L70.6576 443.258C69.6443 444.102 67.6177 447.311 66.9422 448.831C66.4355 450.013 66.2666 451.533 66.0977 458.964C65.9289 463.862 65.76 467.915 65.76 468.084C65.5911 468.253 65.4222 468.253 65.2533 467.915C64.9156 467.408 64.9156 395.464 65.2533 331.795C65.4222 308.996 65.2533 292.952 65.0844 292.783C65.0844 292.276 65.0844 291.601 65.0844 291.094C65.2533 290.587 65.2533 287.885 65.2533 285.014C65.2533 280.623 65.4222 279.948 65.76 279.779C66.0977 279.61 78.4262 279.441 94.8079 279.441C110.514 279.441 123.518 279.272 123.518 279.103C123.687 278.934 126.22 266.606 126.22 265.93C126.22 265.761 125.545 265.424 124.363 265.255C120.478 264.748 117.438 263.566 115.074 261.539C111.527 258.499 110.176 251.913 112.541 249.38C113.047 248.873 113.385 248.366 113.385 248.366C113.385 248.198 114.398 246.846 115.581 245.158C118.789 240.767 120.309 238.402 122.336 235.025C123.856 232.322 123.856 231.985 123.518 231.647C123.18 231.309 123.011 231.14 123.349 230.803C123.518 230.634 124.363 230.634 125.883 230.971C128.922 231.647 136.86 231.478 142.095 230.465C154.593 228.269 168.948 223.372 181.783 217.123C186.681 214.759 193.943 210.705 194.787 209.861C194.956 209.692 194.449 209.017 193.774 208.172C189.383 203.443 186.849 196.688 186.681 189.595C186.681 187.568 186.849 185.373 187.018 184.528C187.187 183.684 187.356 183.008 187.356 183.008C187.018 182.671 156.45 193.648 143.953 198.546C140.575 199.897 138.38 200.403 138.38 199.897C138.38 198.884 139.224 197.701 141.926 195.506C145.304 192.635 146.317 192.297 146.317 194.155V195.168L147.5 194.661C148.175 194.493 148.682 194.155 148.851 193.986C149.02 193.817 150.371 189.764 152.059 184.866C156.45 172.031 161.348 157.676 161.517 157.507C161.855 157.169 162.361 157.845 162.361 158.52C162.361 159.365 160.841 164.938 159.321 169.667C157.802 174.564 156.788 178.111 155.944 181.151C155.606 182.671 154.762 185.711 153.917 187.906C153.242 190.102 152.735 191.959 152.735 192.128C152.735 192.128 155.268 191.284 158.139 190.27C171.481 185.035 187.863 179.293 189.552 179.293C190.396 179.293 190.565 180.137 190.227 181.826L190.058 183.177L192.254 181.826C195.125 180.137 197.827 178.449 205.089 173.213L211 168.991L211.169 155.649C211.338 148.218 211.506 141.294 211.675 140.112C211.844 138.254 212.013 138.085 212.52 138.085C213.195 138.085 213.195 138.254 213.026 154.636C213.026 163.756 212.858 172.538 212.858 174.058V177.098L217.249 177.942C219.613 178.449 225.017 179.462 229.239 180.137C235.826 181.151 237.008 181.489 237.852 182.164C238.866 183.008 239.203 183.853 238.697 184.36C238.528 184.528 238.021 184.191 237.346 183.515C236.332 182.502 236.163 182.502 232.279 181.995C230.084 181.826 225.862 181.32 222.991 180.813C213.871 179.462 209.142 178.28 209.142 177.098C209.142 176.591 209.311 176.422 210.324 176.422H211.506L211.338 174.227C211.169 173.044 211 172.031 211 172.031C211 172.031 210.155 172.2 209.142 172.707C207.453 173.382 200.867 178.28 196.138 182.164C193.436 184.528 192.085 188.413 192.085 194.155C192.085 197.532 192.76 201.248 193.605 203.106C193.943 203.612 194.618 204.794 195.294 205.639L196.476 207.159L197.32 206.483C198.84 205.301 203.569 203.274 207.284 202.261C210.493 201.417 211.844 201.248 216.573 201.079C222.653 200.91 221.977 201.079 227.382 198.039C229.746 196.688 230.59 196.519 230.59 197.195C230.59 197.364 230.253 197.532 229.746 197.701C229.239 197.87 227.719 198.884 226.199 199.897C224.679 200.91 222.822 201.923 222.146 202.092C221.133 202.43 214.884 203.106 213.026 203.106C212.689 203.106 212.689 204.963 212.689 210.874V218.643L223.666 218.474C229.746 218.305 242.243 218.305 251.701 218.305H268.758L268.589 201.586C268.589 192.466 268.42 173.213 268.251 158.858L268.082 132.85L242.581 133.019C217.249 133.188 212.689 133.188 212.689 132.343C212.689 132.175 213.702 131.668 214.884 131.33C217.249 130.655 226.706 128.797 229.07 128.459C229.915 128.29 230.759 128.121 231.097 127.952C231.773 127.615 229.746 125.25 227.55 123.561C224.848 121.704 222.484 120.69 219.106 120.015C217.417 119.677 216.235 119.339 216.235 119.17C216.235 118.664 218.768 118.326 221.133 118.664C226.537 119.508 230.928 122.042 233.292 125.419C234.306 126.77 234.475 127.446 234.644 129.304L234.812 131.499L275.176 131.33L315.539 131.161L315.708 166.796C315.876 186.386 315.877 206.146 316.045 210.874C316.045 215.434 316.045 219.318 315.877 219.487C315.708 219.656 297.637 219.825 275.682 219.825C253.727 219.825 233.461 219.994 230.759 219.994H225.693V223.203C225.693 227.087 226.368 231.816 227.55 236.713C228.057 238.74 228.564 240.767 228.733 241.273L228.901 242.118L228.057 241.442C226.537 240.091 224.511 233.336 223.835 227.763L223.666 225.736L220.795 224.216C219.275 223.372 216.404 221.852 214.546 221.007L211.169 219.15V211.043V202.937L210.155 203.106C207.791 203.612 202.049 205.47 201.036 206.145C200.36 206.652 199.854 207.328 199.516 208.172C199.009 209.861 198.502 210.199 194.956 212.563C182.121 221.007 161.348 228.945 144.122 231.816C139.562 232.66 129.936 232.829 127.909 232.154C126.896 231.816 126.727 231.816 126.727 232.154C126.727 233.336 124.025 237.727 120.647 241.949L116.932 246.678L118.789 246.509C121.492 246.171 126.727 247.184 139.562 250.393C156.45 254.615 167.935 256.473 178.068 256.811C190.903 257.317 204.076 255.797 213.195 252.757C218.768 250.9 221.977 249.042 226.875 245.158C228.564 243.807 229.07 243.469 229.408 243.807C229.915 244.313 224.679 249.38 222.146 251.069L220.288 252.251L220.12 262.89C219.951 268.801 219.782 274.712 219.782 275.894L219.613 278.259L254.234 278.09C273.149 277.921 294.597 277.921 301.859 277.921H315.032L313.512 276.739C312.668 276.063 311.654 275.05 311.317 274.374C310.472 273.023 309.459 269.815 308.783 266.268C307.939 261.877 307.939 251.406 308.952 242.962C309.966 234.349 310.303 233.336 313.85 232.491C316.552 231.816 324.152 231.478 328.881 231.647C333.272 231.816 333.44 231.816 333.44 232.491C333.44 233.167 333.44 233.167 324.658 233.167C318.41 233.167 315.37 233.336 314.019 233.674C312.499 234.011 312.161 234.18 312.668 234.349C313.005 234.518 314.357 234.518 316.721 234.349C318.579 234.18 323.476 234.011 327.698 234.011C334.454 234.011 335.129 234.011 334.96 233.505C334.454 232.154 334.454 230.127 334.96 228.945C335.636 227.256 336.48 226.918 339.858 226.749C345.262 226.412 345.769 225.736 345.6 217.461C345.431 212.056 345.6 212.056 346.276 210.199C346.782 209.185 347.795 207.834 348.64 206.99C350.666 205.132 354.72 203.106 358.097 202.43C360.8 201.923 360.968 201.923 366.373 202.599L371.946 203.274L374.141 202.599C376.337 201.923 378.363 200.403 378.363 199.39C378.363 199.221 378.026 198.546 377.35 198.039C375.661 196.519 375.83 196.35 381.066 195.168C388.496 193.479 391.874 192.128 394.407 189.595C396.096 187.906 396.941 186.048 396.941 183.853C396.941 180.813 395.252 178.449 392.212 176.929C390.354 176.084 389.847 175.915 386.639 175.915C383.599 175.915 383.092 175.746 383.092 175.409C383.092 175.071 384.105 173.382 385.625 171.524C386.976 169.667 388.834 166.796 389.679 165.107C391.199 162.236 391.199 162.067 391.199 159.196C391.199 156.832 391.03 155.987 390.523 154.805C388.159 150.076 382.417 147.543 374.986 148.05C371.27 148.218 368.568 148.894 365.022 150.414C355.226 154.467 349.147 161.56 346.107 172.538C344.08 179.631 343.405 185.373 343.405 194.999C343.405 207.834 342.56 209.523 334.623 212.901C331.92 214.083 331.245 214.59 329.894 215.941C327.529 218.643 326.854 220.501 326.854 225.229C326.854 227.425 326.685 229.114 326.516 229.114C325.672 229.114 325.334 223.709 326.01 221.007C327.192 216.279 329.556 213.914 334.285 212.056C338 210.536 340.196 209.017 340.871 206.99C341.716 204.794 342.053 202.261 342.391 193.648C342.729 184.36 343.236 180.137 345.093 173.551C348.302 161.898 353.875 154.805 363.502 150.245C367.893 148.05 370.595 147.374 375.155 147.205C383.261 146.867 388.834 149.401 391.199 154.298C392.212 156.156 392.212 156.663 392.212 159.196C392.212 161.898 392.212 162.236 390.861 164.769C389.51 167.64 387.821 170.173 385.457 173.213L384.105 174.902L386.808 174.733C391.199 174.564 394.576 175.915 396.603 179.124C397.616 180.644 397.785 180.982 397.954 183.177C398.123 185.204 397.954 185.711 397.278 187.231C395.252 191.284 390.185 194.155 381.066 196.181C379.714 196.519 378.532 196.857 378.363 196.857C378.363 196.857 378.532 197.364 378.701 197.87C379.039 198.377 379.039 199.221 379.039 199.728C378.532 201.586 374.648 203.612 371.439 203.612C370.426 203.612 367.724 203.443 365.359 203.106C359.786 202.43 357.591 202.768 353.369 204.794C349.822 206.483 347.964 208.341 346.951 210.874C346.444 212.394 346.276 213.239 346.444 217.967C346.444 222.696 346.444 223.372 345.938 224.554C344.924 226.58 344.08 226.918 340.365 227.256C336.818 227.425 335.974 227.931 335.636 229.789C335.467 230.971 336.143 232.998 337.156 233.842C338 234.518 342.053 235.531 343.236 235.362C344.08 235.193 344.08 235.193 343.573 234.856C343.236 234.687 341.885 234.349 340.702 234.349C338.338 234.18 336.987 233.336 337.325 232.66C337.831 231.985 344.756 233.167 345.6 234.18C345.938 234.518 346.107 235.362 346.107 238.064C346.107 241.442 346.107 241.442 346.782 240.936C349.653 238.402 354.382 238.571 355.564 241.273C356.746 243.975 355.902 247.691 353.2 250.562C352.186 251.744 345.938 257.317 345.431 257.486C345.431 257.486 345.093 259.006 344.924 261.033C344.249 265.424 342.898 271.335 341.716 274.374C341.209 275.557 340.871 276.908 340.702 277.245C340.533 277.752 343.067 277.752 408.762 277.583C526.981 277.245 536.776 277.245 537.789 277.583L538.803 277.921V284.676C538.803 288.392 538.634 291.769 538.634 292.107C538.465 292.614 538.296 292.783 537.452 292.783H536.607V295.147V297.512L537.452 297.343C538.634 297.005 547.416 294.809 553.327 293.121C559.238 291.601 563.122 290.25 563.122 289.912C563.122 289.743 562.784 289.236 562.278 288.898C560.082 286.872 559.407 283.325 559.913 277.752C560.082 275.726 560.42 272.855 560.589 270.997C560.758 269.308 560.926 267.957 560.926 267.957C560.926 267.957 559.913 268.632 558.9 269.308C553.158 273.361 544.545 276.063 536.776 276.063C530.359 276.063 526.812 274.881 523.097 271.672C520.226 268.97 518.875 266.099 518.875 261.877V260.019L517.355 261.37C516.51 262.215 515.159 263.904 514.146 265.086C512.288 267.619 511.612 267.788 510.599 266.606C509.248 265.086 509.417 262.215 511.106 259.006C511.444 258.162 511.781 257.486 511.612 257.317C511.444 257.317 510.599 257.148 509.755 256.979C508.741 256.811 507.39 256.304 506.208 255.628C505.195 254.953 503.675 254.277 502.831 253.94C501.311 253.264 499.453 253.095 499.453 253.602C499.453 254.108 495.062 258.499 494.218 259.006C491.853 260.019 491.515 259.006 493.711 257.486C494.555 256.811 496.075 254.953 497.764 252.757C499.115 250.731 500.804 248.873 501.311 248.535C502.662 247.691 504.35 247.86 507.39 249.042C508.91 249.549 510.599 250.224 511.106 250.393C512.457 250.731 512.626 251.406 511.444 251.406C510.937 251.406 509.248 251.069 507.559 250.562C504.519 249.717 502.662 249.549 502.324 250.055C502.155 250.224 502.493 250.562 502.999 250.731C503.506 250.9 505.026 251.913 506.377 252.757C508.573 254.108 509.079 254.277 510.43 254.277C512.457 254.277 514.315 253.433 514.99 252.082C516.003 250.393 516.172 250.055 516.679 250.562C517.355 251.237 516.172 254.953 514.146 257.993C511.781 261.539 511.106 263.228 511.444 265.086L511.612 266.606L513.808 263.397C514.99 261.539 517.355 258.668 518.875 256.979C522.083 253.433 523.603 250.9 523.941 248.704C524.279 246.678 524.785 246.846 525.123 248.873C525.461 250.731 525.123 252.251 523.265 257.317C521.577 262.215 521.07 265.255 521.914 267.112C523.603 270.659 530.359 273.699 536.776 273.699C540.154 273.699 542.349 273.192 545.389 272.01C555.691 267.788 562.278 259.344 562.278 250.393C562.278 248.366 562.615 247.86 563.291 249.042C563.966 250.393 563.629 260.188 562.278 271.672C561.433 278.597 561.433 282.988 561.94 284.845C562.953 287.716 564.98 289.236 568.357 289.574C570.553 289.743 577.646 289.236 577.984 288.73C578.153 288.561 577.646 288.223 576.97 288.054C575.45 287.547 570.215 285.014 569.708 284.339C568.864 283.494 569.54 283.494 571.228 284.339C578.153 287.378 586.259 289.405 596.054 290.756C601.796 291.601 615.138 291.601 620.542 290.756C632.026 289.236 639.964 286.365 644.355 282.481C646.382 280.623 647.395 279.103 647.733 277.245C647.902 276.063 647.901 276.063 647.395 276.232C642.328 278.259 634.391 280.116 628.311 280.792C624.258 281.299 615.983 280.961 612.774 280.285C606.525 278.934 601.796 276.401 599.094 273.023C597.405 270.828 596.054 267.45 595.885 264.579L595.717 262.215L593.859 261.877C589.468 260.864 583.557 258.162 580.01 255.628C577.984 254.108 572.579 251.069 567.344 248.535C562.784 246.171 561.602 245.495 562.615 245.495C564.473 245.495 577.139 251.406 581.024 254.108C585.921 257.655 588.961 258.162 592.17 256.304C595.379 254.446 597.405 250.731 598.081 246.171C598.419 242.793 598.25 241.273 597.236 240.26C596.223 239.247 595.716 239.247 595.041 240.26C594.534 240.936 594.534 241.104 595.041 242.118C595.716 243.469 595.379 243.807 594.197 243.3C593.014 242.624 592.339 240.767 593.014 239.584C594.534 236.713 597.912 237.896 599.094 241.78C599.77 243.975 599.601 246.846 598.25 255.459C596.899 264.41 596.899 265.424 598.588 268.97C599.601 270.997 600.445 272.179 601.627 273.361C606.187 277.752 615.307 280.117 625.44 279.272C641.653 277.921 654.826 272.517 660.399 264.579C664.621 258.668 666.31 252.757 665.128 247.353C663.945 241.949 658.541 227.425 654.319 218.474C649.928 209.354 643.679 199.221 638.444 192.973C635.066 189.088 627.298 181.32 624.764 179.631L622.907 178.449L622.062 179.293C620.542 180.644 616.151 183.853 612.605 186.217C608.552 188.919 601.459 192.466 597.405 193.817C581.868 199.052 569.54 195.844 564.473 185.542C563.798 184.36 563.46 183.008 563.46 182.502C563.46 181.657 563.122 181.657 562.953 182.502C562.953 182.671 562.615 183.346 562.278 183.853C560.42 187.231 556.536 198.208 555.016 204.626C553.833 209.185 552.989 217.63 552.989 224.047C552.989 226.918 552.651 227.425 551.976 226.074C551.638 225.567 551.638 223.541 551.638 218.474C551.638 211.043 551.976 208.003 553.496 203.443L554.34 200.91L552.989 199.728C550.456 197.532 549.274 194.493 550.287 192.635C550.625 192.128 550.287 191.79 548.936 190.439C544.714 186.555 541.167 180.644 539.647 174.733C538.972 172.031 538.803 170.849 538.803 167.133C538.803 163.08 538.803 162.574 539.478 161.054C540.323 159.027 541.167 158.351 543.194 157.507C544.038 157.169 544.714 156.663 544.545 156.663C542.687 153.285 541.167 148.725 540.154 144.165C539.647 141.463 539.478 139.943 539.478 134.539C539.478 128.966 539.647 127.615 540.154 124.744C542.518 113.766 547.922 105.322 555.522 100.256C559.744 97.5534 563.798 96.3712 568.526 96.3712C573.086 96.3712 577.477 97.7223 580.348 99.7489C580.855 100.256 581.361 100.424 581.361 100.256C581.361 99.58 584.401 96.8779 585.921 96.2023C587.948 95.189 591.157 95.189 593.352 96.0334C600.445 98.7356 606.863 108.869 609.565 121.535C610.072 124.237 610.24 125.926 610.24 130.148V135.383L611.929 135.214C616.32 134.877 620.542 138.761 623.582 146.023C625.609 151.089 626.622 156.156 626.622 162.574C626.622 167.302 626.116 171.187 624.933 174.227C624.427 175.409 624.258 176.422 624.258 176.591C624.427 176.76 664.621 175.24 666.141 174.902C666.985 174.733 667.154 174.902 667.999 176.084C670.194 179.969 675.261 197.701 677.118 208.51C678.807 218.981 680.158 236.207 680.496 252.251C680.834 272.348 679.145 286.365 674.247 302.409C669.856 317.271 663.439 327.235 655.163 332.808C645.368 339.057 635.066 343.11 627.973 343.786ZM590.312 129.304C590.143 131.499 590.65 132.681 592.001 133.863C595.548 137.072 600.952 134.539 600.783 129.81C600.783 127.784 600.107 126.77 598.25 125.757C594.365 123.561 590.65 125.25 590.312 129.304ZM575.788 125.588L577.139 125.926C579.504 126.601 581.193 127.784 582.206 129.641L583.219 131.33L585.752 130.486C588.117 129.81 588.286 129.641 588.454 128.628C588.792 127.277 589.974 125.081 590.819 124.575C591.494 124.068 591.326 124.068 589.637 123.561C585.583 122.379 582.544 120.522 579.673 117.144C578.828 116.299 577.984 115.117 577.646 114.611L576.97 113.766V116.299C576.97 117.819 576.633 120.353 576.295 122.042L575.788 125.588ZM575.113 127.784C574.437 130.148 572.748 133.863 571.566 135.89C570.046 138.761 570.046 138.93 572.073 140.112C575.619 141.97 580.179 140.281 581.699 136.565C583.05 133.188 581.193 129.135 577.646 127.615C576.295 127.108 575.282 127.108 575.113 127.784ZM568.695 134.201C568.695 136.228 569.033 137.241 569.54 136.565C570.553 135.214 573.762 128.459 573.762 127.615C573.762 127.277 572.917 127.446 572.073 127.952C569.708 129.472 568.695 131.668 568.695 134.201ZM620.205 178.28C620.542 177.773 616.658 176.084 613.956 175.578C612.605 175.24 609.565 174.733 607.201 174.395C601.459 173.551 600.952 173.382 599.601 171.355C597.912 168.991 595.885 165.613 595.379 163.756L594.872 162.067L592.17 161.898C588.286 161.56 585.246 160.716 585.246 159.871C585.246 159.365 585.583 159.196 587.948 159.027C591.157 158.858 593.859 157.676 595.885 155.818C599.263 152.609 599.939 148.894 598.925 138.592L598.756 136.565L596.73 136.734C594.197 136.903 592.508 136.397 590.988 134.877C590.481 134.37 589.806 133.357 589.468 132.681L588.961 131.499L587.103 132.006C586.09 132.343 584.908 132.512 584.739 132.512C584.401 132.512 584.232 132.85 584.232 134.032C584.232 135.721 583.557 137.579 582.375 139.099C580.348 141.801 576.126 142.814 572.748 141.463C571.904 141.125 570.891 140.45 570.553 140.112C570.046 139.605 570.046 139.605 569.202 140.788C568.188 142.476 567.851 145.685 568.526 147.881C568.864 148.725 569.708 150.245 570.891 151.765C574.944 156.832 577.308 161.054 578.321 164.769C579.166 168.147 580.348 175.915 580.348 178.111C580.348 182.502 579.673 184.697 578.997 181.826C578.659 180.137 577.646 178.28 576.802 177.773C574.775 176.76 565.149 178.449 564.304 180.137C564.135 180.475 563.966 181.489 563.966 182.333C563.966 184.36 565.317 186.724 568.188 189.426C572.242 193.141 576.464 194.83 582.881 194.83C591.157 194.83 600.107 191.79 610.24 185.542C613.449 183.515 619.698 178.955 620.205 178.28ZM344.08 255.966L345.938 254.446C350.667 250.393 352.524 247.691 352.524 244.989C352.524 243.807 352.355 243.3 351.849 242.793C350.835 242.118 349.147 242.118 347.458 242.793C346.444 243.3 345.938 243.638 345.431 245.158C344.756 246.678 344.587 247.353 344.418 251.406L344.08 255.966ZM122.167 303.085C121.492 307.138 119.465 319.973 117.607 331.626C115.75 343.279 112.541 363.207 110.514 375.873C107.136 397.322 102.07 426.37 101.394 428.734L101.057 429.747L104.097 429.916C107.812 430.254 121.66 431.436 129.26 432.281C132.3 432.618 134.833 432.787 134.833 432.787C134.833 432.787 135.34 431.605 135.847 430.085C137.029 427.045 136.86 426.539 134.833 425.187C133.651 424.343 132.3 424.005 122.843 422.148C109.163 419.445 108.656 419.445 108.488 418.939C108.319 418.432 107.643 418.432 122.336 420.965C134.664 423.161 137.704 423.667 137.873 423.161C138.042 422.992 138.718 420.459 139.562 417.419C141.082 412.015 146.486 393.1 150.202 380.264C153.242 369.963 153.073 371.314 153.242 329.262V293.458H138.38H123.518L123.349 294.472C123.518 295.316 122.843 299.031 122.167 303.085ZM72.5153 432.956H77.4129C80.1151 432.956 87.7148 433.125 94.3013 433.125L106.461 433.294L106.63 432.281L106.799 431.267L103.59 430.929C101.732 430.761 100.212 430.423 100.043 430.254C99.7056 430.085 99.8744 429.41 100.381 427.89C100.719 426.539 102.07 419.277 103.252 410.495C104.434 402.05 106.799 386.175 108.656 375.029C110.345 363.883 113.385 344.461 115.412 332.133C117.269 319.635 119.465 305.956 120.14 301.734C120.816 297.512 121.323 293.965 121.323 293.965C121.323 293.965 110.514 293.796 97.3412 293.796H73.3597L73.1909 304.605C73.1909 310.516 73.022 338.888 73.022 367.598C73.022 396.308 72.8531 422.654 72.6842 426.37L72.5153 432.956ZM67.4488 430.929C69.1376 429.41 70.9954 426.37 71.1642 425.019C71.3331 424.343 71.3331 394.788 71.3331 359.492L71.1642 295.316L69.3065 296.329L67.2799 297.005L67.111 333.146C66.9422 353.074 66.7733 383.473 66.7733 400.53L66.6044 431.774L67.4488 430.929ZM150.54 435.658L148.682 435.489C147.668 435.32 140.744 435.152 133.313 435.152C125.883 434.983 113.385 434.814 105.616 434.645C69.6443 433.969 70.1509 433.969 69.4754 434.476C68.7999 435.152 69.1376 437.347 69.8132 438.191C70.4887 438.867 78.9329 439.036 115.75 439.205C147.162 439.205 144.797 439.374 148.682 437.009L150.54 435.658ZM153.411 405.428C153.411 389.891 153.242 377.393 153.242 377.562C151.384 383.811 148.006 394.957 146.655 399.517C144.46 407.117 138.38 426.37 137.367 429.241C136.86 430.423 136.522 431.774 136.353 432.449L136.184 433.632L144.629 433.801C149.357 433.969 153.073 433.969 153.242 433.801C153.411 433.801 153.411 420.965 153.411 405.428ZM216.404 260.526L213.533 261.202C206.44 263.059 198.84 263.735 189.045 263.397C174.521 263.059 161.517 260.864 148.513 256.979C145.304 255.966 140.575 254.615 137.873 253.94C135.171 253.264 132.976 252.757 132.807 252.757C132.3 252.757 131.962 253.095 131.962 253.771C131.962 254.108 130.78 260.019 129.26 266.775L126.558 279.103H170.974C195.463 279.103 215.56 278.934 215.56 278.934C215.56 278.765 215.729 274.543 215.897 269.646L216.404 260.526ZM337.156 277.583C340.027 272.01 342.222 258.668 342.729 243.131L342.898 237.727L341.716 237.896C335.467 239.078 322.632 238.909 314.863 237.558C313.343 237.22 311.654 236.882 311.148 236.713L310.134 236.376V238.402C310.134 239.584 309.966 243.131 309.628 246.171C309.121 253.433 309.459 263.904 310.134 267.281C311.654 274.037 312.499 275.388 316.383 277.414L319.085 278.765H327.867H336.649L337.156 277.583ZM525.968 439.88L524.617 439.205C523.941 438.867 521.577 438.023 519.55 437.347L515.666 436.165L498.271 435.827C478.005 435.489 478.005 435.489 476.316 435.996C475.471 436.165 474.458 436.165 472.938 435.996C471.756 435.827 469.054 435.489 466.858 435.32C464.663 435.152 459.428 434.983 455.205 434.814L447.437 434.645V436.84V439.036H465.17C474.965 439.036 492.529 439.205 504.182 439.205L525.968 439.88ZM527.994 376.38L525.63 373.002C524.448 371.145 522.59 368.105 521.577 366.416C520.563 364.727 519.043 361.856 518.199 359.998L516.679 356.79L515.835 358.647C515.328 359.661 514.315 362.025 513.47 363.883C511.612 368.274 509.924 371.651 504.519 381.784C499.622 391.073 497.764 395.126 495.906 400.699C494.218 405.597 491.515 414.548 491.178 416.237L491.009 417.588L489.151 417.757C488.138 417.925 486.111 417.925 484.76 417.925C483.24 417.925 482.227 418.094 482.058 418.432C481.551 419.108 481.045 421.472 480.538 426.707C480.2 429.41 479.862 432.112 479.525 432.618C479.356 433.294 479.187 433.801 479.187 433.801C479.356 433.969 485.604 434.138 493.373 434.138C501.142 434.307 511.95 434.476 517.523 434.645L527.656 434.814V405.597L527.994 376.38ZM527.994 345.474C527.994 327.235 527.825 320.48 527.656 320.48C526.812 320.48 521.408 326.391 519.719 329.43C517.017 333.821 516.172 336.524 516.172 341.083C516.172 345.306 517.017 348.514 519.043 354.087C520.901 358.985 526.643 369.794 527.656 370.3C527.994 370.469 527.994 360.336 527.994 345.474ZM618.854 401.544L617.165 401.037C616.151 400.699 613.618 400.53 611.254 400.362C607.876 400.193 606.694 400.362 605.005 400.868C600.276 402.219 597.912 404.415 596.392 408.468C595.379 411.17 595.21 418.432 595.885 420.459C597.068 423.668 597.236 423.33 597.236 416.574C597.236 410.663 597.236 409.988 597.912 408.468C598.25 407.455 598.925 406.273 599.263 405.597C600.952 403.064 606.525 401.544 614.294 401.544H618.854ZM624.258 398.166C624.258 398.166 624.427 396.477 624.764 394.451C625.271 391.242 625.271 389.384 624.933 374.86C624.596 356.621 624.258 351.048 623.413 348.177C622.062 343.11 622.062 343.448 622.231 362.363C622.231 372.158 622.4 388.54 622.569 399.01C622.738 417.25 622.738 417.925 623.413 419.614C623.92 421.134 625.778 423.33 626.116 422.992C626.116 422.992 626.116 419.445 625.947 415.223L625.609 407.624L624.427 403.57C623.413 400.193 623.245 399.517 623.582 399.01C623.92 398.504 623.92 398.504 623.92 399.179C623.92 400.024 624.764 400.699 625.609 400.53C625.947 400.362 630.338 400.362 635.235 400.362C642.835 400.362 644.355 400.362 646.382 400.868C650.941 402.05 652.799 403.57 654.319 407.455C655.332 409.988 655.67 415.392 655.163 419.277C654.995 420.628 654.826 422.148 654.826 422.654L654.995 423.499L655.67 422.823C656.008 422.485 656.683 420.965 657.19 419.614C657.866 417.588 658.035 416.574 658.035 413.872C658.035 407.624 657.021 404.246 654.488 401.713C651.279 398.504 647.733 397.491 639.288 397.491C636.249 397.491 631.689 397.659 629.155 397.997C626.453 398.166 624.258 398.335 624.258 398.166ZM119.296 229.283C120.985 229.789 120.816 229.114 118.958 227.425C114.061 223.034 111.696 212.056 113.216 199.728C114.061 192.635 116.425 181.657 118.958 173.382C124.531 154.805 137.198 133.019 148.682 122.042C152.228 118.664 152.566 118.495 155.944 120.353C158.815 121.704 161.517 124.406 162.868 126.77C165.232 131.161 166.415 139.605 165.232 144.841C164.388 148.725 165.063 148.894 166.246 145.01C167.935 139.774 166.921 129.81 164.388 125.081C163.206 122.886 159.828 119.677 157.295 118.157L155.099 116.975L155.775 116.468C157.633 115.117 161.855 112.922 164.895 111.908C167.428 111.064 169.117 110.726 171.819 110.557C175.197 110.22 176.21 110.389 181.107 111.064C182.459 111.233 182.627 111.233 182.459 110.895C182.29 110.22 179.756 109.037 177.73 108.7C175.365 108.193 169.286 108.362 166.752 108.869C157.802 110.726 148.513 116.975 140.744 126.264C129.598 139.605 119.972 157.169 115.074 173.889C111.19 187.231 108.994 200.91 109.839 208.51C111.19 219.15 114.905 227.763 119.296 229.283ZM209.48 118.495C204.076 119.508 199.516 118.833 195.125 116.637C192.929 115.624 191.916 114.78 189.721 112.584C187.018 109.713 187.018 109.882 186.681 110.22C186.343 110.726 188.369 113.597 190.227 115.455C193.943 119.002 198.84 120.69 204.582 120.69C210.662 120.69 214.209 119.508 212.52 118.157C212.351 118.157 211.506 118.157 209.48 118.495ZM242.581 189.426C242.581 188.919 240.217 187.568 238.19 186.893C237.177 186.555 236.67 186.217 236.839 186.217C238.021 186.217 237.177 185.373 235.826 185.373C234.981 185.373 230.421 184.866 225.693 184.528C214.04 183.515 210.493 183.346 210.493 183.684C210.493 183.853 210.662 184.191 210.831 184.191C211.169 184.36 226.03 186.217 229.915 186.386C233.63 186.555 237.683 187.568 240.217 188.751C242.412 189.764 242.581 189.764 242.581 189.426ZM239.71 191.284C241.061 191.115 242.243 190.946 242.243 190.777C242.581 190.439 241.737 190.27 238.528 190.102C236.67 190.102 232.617 189.764 229.577 189.426C224.173 188.919 213.195 188.244 210.662 188.244C209.987 188.244 209.311 188.413 209.142 188.582C208.635 189.257 208.635 189.257 224.848 190.608C232.955 191.284 233.63 191.284 234.644 192.128C235.995 193.141 237.683 193.141 237.346 192.297C237.346 191.79 237.515 191.622 239.71 191.284ZM232.11 193.648C230.928 193.648 225.355 193.817 219.782 193.986C214.377 194.155 209.818 194.155 209.649 194.155C209.311 194.324 209.649 195.168 210.324 195.337C214.04 196.012 216.066 196.688 216.235 197.026C216.742 197.701 218.768 197.532 222.146 196.857C223.666 196.519 226.199 196.012 227.719 195.844C229.239 195.675 230.759 195.506 231.435 195.337C232.617 194.999 234.475 194.155 234.475 193.817C234.306 193.648 233.292 193.479 232.11 193.648ZM564.98 208.341C564.642 205.808 564.473 205.132 564.135 205.132C563.966 205.132 563.797 205.808 563.797 206.483C563.797 208.679 562.953 214.927 562.278 216.785C561.602 219.15 560.251 222.527 558.731 225.398C557.549 227.763 557.549 227.763 556.198 227.931C555.522 228.1 554.678 228.269 554.34 228.438C553.496 228.945 554.509 229.114 557.38 228.607C562.784 227.931 566.5 228.269 572.579 230.127L575.282 230.971L581.193 236.713C588.286 243.469 590.988 245.326 593.859 245.495C595.885 245.664 596.392 245.158 594.534 244.82C592.508 244.482 589.974 242.455 583.219 236.038C579.841 232.829 576.464 229.789 575.957 229.451C573.762 228.269 567.682 227.087 564.135 227.087H562.278L562.784 225.567C564.135 222.865 565.317 210.874 564.98 208.341ZM359.955 207.497C359.955 208.003 369.75 208.172 399.136 208.172C415.856 208.172 429.704 208.172 430.042 208.172C430.211 208.172 430.548 209.017 430.717 210.03C431.224 212.732 439.668 249.042 443.552 264.748L444.904 270.49H443.721C443.046 270.49 429.704 270.659 413.829 270.997C397.954 271.166 384.443 271.335 383.768 271.335H382.417L381.403 268.464C380.897 266.944 376.337 254.615 371.439 241.104C360.968 212.056 359.28 207.665 358.773 207.497C358.604 207.497 358.435 207.665 358.435 208.003C358.435 209.017 365.359 229.451 375.661 258.499C380.559 272.179 380.559 272.348 380.39 274.712L380.221 277.245L381.741 277.077C382.585 276.908 393.563 276.739 405.891 276.57C418.389 276.401 432.744 276.063 437.979 276.063L447.268 275.894V273.699C447.268 272.01 446.423 268.295 444.397 259.513C438.993 237.389 431.731 207.834 431.224 206.99L430.886 206.145H417.376C409.945 206.145 396.096 206.314 386.47 206.483C367.555 206.821 359.955 207.159 359.955 207.497ZM440.681 239.416C444.735 255.797 448.112 269.815 448.281 270.321L448.45 271.335L475.64 271.503L502.831 271.672L503.168 273.868C503.506 276.401 504.013 277.245 504.857 276.57C505.533 275.894 505.195 271.841 504.182 270.659L503.506 269.815L487.124 269.983C478.174 270.152 466.014 270.152 460.103 270.321H449.463L448.957 268.801C448.788 267.957 445.241 254.277 441.188 238.402C437.135 222.527 433.757 209.017 433.588 208.172C433.082 206.314 432.575 206.314 432.744 208.172C433.251 208.848 436.628 222.865 440.681 239.416ZM614.125 234.349L608.045 234.518C600.107 234.856 595.717 235.7 595.717 237.051C595.717 237.389 595.885 237.389 596.561 237.051C599.263 235.7 610.747 235.531 616.489 236.882C622.738 238.233 625.947 239.753 633.209 244.482C639.288 248.535 640.133 249.042 641.146 249.042C642.159 249.042 643.004 248.198 643.004 247.184C643.004 246.171 641.991 244.482 640.977 243.807C639.964 243.131 637.093 242.455 635.573 242.455C633.884 242.455 634.053 243.3 635.911 243.807C637.937 244.313 639.795 245.495 640.471 246.34C641.315 247.353 640.977 247.86 639.795 247.522C638.444 247.184 633.715 243.975 633.378 243.131C633.209 242.455 634.222 241.273 634.729 241.273C634.897 241.273 635.573 241.104 636.249 240.767C637.093 240.429 637.6 240.26 638.613 240.598C639.626 240.767 639.795 240.767 639.795 240.429C639.795 239.247 634.391 239.078 632.195 240.091C631.182 240.598 631.182 240.598 629.662 239.416C626.791 237.051 621.725 229.114 619.867 224.216C618.685 221.176 618.347 220.501 617.84 220.332C617.502 220.163 617.502 220.669 617.671 222.527C618.178 227.763 617.502 230.802 615.476 232.829L614.125 234.349ZM406.567 234.687C405.554 231.985 402.007 230.296 399.643 231.309C394.238 233.505 396.265 241.442 402.176 241.442C405.554 241.442 407.918 237.896 406.567 234.687ZM565.317 234.349C562.615 234.011 560.589 234.18 560.251 234.687C560.082 234.856 559.238 235.025 558.393 235.025C556.873 235.025 556.029 235.362 556.536 235.7C556.704 235.869 558.562 235.7 560.758 235.531C564.135 235.193 565.149 235.362 568.357 235.869C570.384 236.207 572.748 236.713 573.593 237.051C575.45 237.558 575.957 237.558 575.957 237.22C575.957 236.713 566.331 231.985 564.304 231.309C562.446 230.802 555.353 230.634 555.353 231.14C555.353 231.647 556.029 231.816 559.407 232.154C561.771 232.322 563.629 232.66 565.655 233.505C567.175 234.011 568.357 234.518 568.357 234.518C568.188 234.687 566.837 234.518 565.317 234.349ZM517.692 240.936C520.226 239.584 522.759 239.753 530.19 241.611C542.18 244.651 546.065 244.144 549.442 238.74C551.131 236.207 550.625 236.207 547.922 238.74C546.234 240.26 545.727 240.598 544.207 240.936C541.674 241.442 538.127 240.936 530.865 239.078C525.968 237.727 524.785 237.558 522.759 237.727C519.888 237.896 517.017 238.909 516.172 240.091C515.328 241.611 516.003 241.949 517.692 240.936ZM556.873 238.74C560.251 239.078 566.5 240.598 570.722 241.78C574.775 242.962 576.126 243.3 576.126 242.793C576.126 242.455 569.371 240.091 565.149 238.909C561.771 238.064 557.042 237.558 555.86 237.896C554.509 238.064 555.016 238.571 556.873 238.74ZM482.396 252.42C484.085 251.406 485.267 250.731 485.098 251.069C484.929 251.406 484.929 252.082 484.929 252.588C484.929 253.433 484.76 253.771 483.747 254.277C482.565 254.953 481.551 255.122 480.031 254.784C479.018 254.446 478.849 254.953 480.031 255.797C481.045 256.473 482.733 256.473 483.916 255.797L484.929 255.291L485.267 258.162C485.604 260.526 485.773 261.202 486.449 261.877C487.462 262.89 487.8 262.553 488.138 259.682C488.475 256.473 489.489 253.433 491.178 249.886C492.698 246.846 494.893 244.144 496.244 243.807C496.751 243.638 496.751 243.975 495.569 246.34C494.893 247.86 493.204 251.069 492.022 253.433C490.84 255.797 489.827 257.993 489.827 258.162C489.827 258.331 489.827 258.331 490.164 258.331C490.333 258.331 491.178 257.148 492.022 255.797C498.44 244.313 499.96 242.118 501.479 242.118C501.817 242.118 502.831 242.455 503.675 242.793C506.377 243.975 509.248 244.651 513.301 244.989C517.355 245.326 519.212 245.158 518.875 244.482C518.706 243.975 517.692 243.807 513.977 243.131C511.106 242.624 507.559 241.78 504.182 240.429C501.986 239.584 501.648 239.584 499.96 240.429C499.284 240.767 498.44 241.273 498.271 241.611C498.102 241.949 497.426 242.118 496.92 242.118C494.386 242.118 491.853 244.482 489.995 248.198C488.813 250.731 487.124 256.135 487.124 257.993C487.124 258.499 486.956 259.344 486.787 259.682C486.618 260.019 486.449 258.837 486.449 256.473C486.449 250.9 487.631 247.015 489.489 246.678C490.333 246.509 490.502 245.495 489.827 245.158C488.982 244.82 487.631 245.664 486.111 247.522C485.267 248.535 483.24 250.224 481.551 251.406C479.862 252.588 478.511 253.771 478.511 253.771C478.511 254.784 479.525 254.277 482.396 252.42ZM571.228 246.846C577.308 248.873 578.153 249.042 578.153 248.366C578.153 247.691 568.188 243.975 562.446 242.455C559.069 241.611 556.367 241.442 556.704 242.118C556.704 242.287 558.731 242.962 561.095 243.638C563.46 244.313 568.02 245.664 571.228 246.846ZM523.265 263.228C522.59 264.41 522.421 264.917 523.097 264.917C524.448 264.917 526.136 261.539 526.981 257.317C528.163 250.9 526.812 245.495 523.097 243.638C521.577 242.793 520.732 242.624 520.226 242.962C520.057 243.131 520.732 243.638 521.745 244.313C524.617 246.34 525.63 249.211 525.292 254.784C525.292 258.162 524.448 261.37 523.265 263.228ZM454.192 273.023C451.828 273.361 452.841 275.05 455.205 275.05C456.725 275.05 457.57 274.374 457.063 273.53C456.725 272.855 456.05 272.855 454.192 273.023ZM460.61 273.192C459.934 273.699 459.934 273.699 460.61 274.206C460.947 274.543 461.623 274.712 462.974 274.712C465.001 274.712 465.676 274.206 465.17 273.361C464.663 272.686 461.623 272.517 460.61 273.192ZM585.077 421.472C582.375 417.925 580.01 413.534 579.841 411.508C579.673 410.326 579.841 410.157 581.868 408.299C583.219 406.948 583.895 406.104 583.895 405.597C583.895 405.259 583.219 403.233 582.206 401.206C579.504 394.957 576.295 385.669 574.775 380.096C571.904 369.118 567.006 358.31 562.446 353.412C561.602 352.399 560.926 351.554 560.926 351.554C560.926 351.385 561.433 351.216 561.94 351.048C562.446 350.879 563.122 350.372 563.46 350.034C563.966 349.359 563.966 349.359 563.46 349.021C562.784 348.514 558.393 348.345 557.549 348.852C556.704 349.359 556.873 350.034 557.718 350.372C558.731 350.71 561.095 353.412 562.953 356.114C566.669 361.856 571.06 371.989 572.917 379.927C574.268 385.162 576.126 390.904 577.646 394.788C578.153 395.971 578.49 397.153 578.49 397.322C578.49 397.828 574.775 401.375 572.917 402.726C569.033 405.428 560.42 408.637 557.211 408.637C556.198 408.637 555.86 408.806 556.029 408.975C556.367 409.481 561.095 409.144 564.304 408.13C570.046 406.441 574.437 404.246 577.646 401.206L579.673 399.348L580.179 400.53C581.193 402.557 581.868 405.09 581.699 405.597C581.361 406.779 575.113 410.326 571.06 411.677C568.02 412.69 564.473 413.534 561.94 413.703C558.562 414.041 558.224 415.054 561.602 415.054H562.615L562.278 417.081C561.94 420.121 561.433 421.472 559.575 425.019C556.198 431.774 551.807 437.347 544.376 444.609C540.829 448.156 540.66 448.324 541.167 449C542.012 450.182 543.363 450.52 546.571 450.52C551.976 450.52 556.873 448.325 565.149 442.414C569.371 439.374 570.722 438.698 573.762 437.516C579.841 435.152 583.05 433.463 585.246 431.267C586.935 429.747 587.272 429.072 587.61 427.721C587.779 426.876 587.948 425.863 587.779 425.356C587.779 425.019 586.597 423.33 585.077 421.472ZM652.799 427.214C650.941 427.721 649.253 429.747 649.253 431.774C649.253 433.969 651.617 436.334 653.981 436.334C655.67 436.334 657.359 435.152 658.203 433.632C658.879 431.943 658.879 431.267 658.372 429.747C657.528 427.89 654.995 426.707 652.799 427.214ZM599.939 428.227C598.756 427.383 596.223 427.214 594.872 428.227C593.521 429.072 592.677 431.267 593.183 432.956C594.197 436.84 599.601 437.347 601.29 433.969C602.134 431.774 601.627 429.578 599.939 428.227ZM627.298 429.241C625.271 428.227 624.427 428.227 622.738 429.072C620.374 430.254 619.36 433.463 620.88 435.658C622.062 437.516 623.582 438.191 625.271 438.023C628.649 437.685 630.675 434.476 629.493 431.267C628.987 430.254 628.649 429.916 627.298 429.241ZM527.656 453.729C527.488 454.235 527.825 455.08 528.501 455.418C529.345 455.755 533.736 455.755 534.581 455.418C535.256 455.08 535.425 454.067 534.75 453.56C533.905 453.222 527.825 453.391 527.656 453.729ZM66.2666 468.422C64.5778 469.604 66.0977 471.293 68.4621 470.955C70.9954 470.617 73.022 469.266 72.3464 468.253C72.1776 467.577 67.111 467.746 66.2666 468.422ZM594.365 129.472C594.028 128.797 593.014 128.628 592.508 129.135C592.001 129.641 592.001 131.161 592.677 131.668C593.69 132.512 595.21 130.823 594.365 129.472ZM577.646 134.201C577.646 133.188 577.477 133.188 576.633 133.019C575.957 133.019 575.619 133.019 575.45 133.357C575.113 134.201 575.45 135.214 576.126 135.552C576.97 136.228 577.646 135.383 577.646 134.201ZM588.454 143.321C588.792 143.152 589.974 142.814 591.157 142.308C592.677 141.632 593.014 141.294 593.183 140.788C593.183 140.112 593.014 139.774 591.494 139.099C590.481 138.592 589.637 137.748 589.299 137.41C588.792 136.565 588.454 136.565 588.286 137.241C588.117 137.748 589.637 140.281 590.143 140.281C590.819 140.281 590.481 140.788 589.13 141.632C587.61 142.476 587.272 143.659 588.454 143.321ZM584.401 146.53C584.57 146.361 586.597 146.361 588.961 146.361H593.352V147.543C593.352 149.738 590.481 151.258 587.61 150.583C585.415 149.738 583.388 147.374 584.401 146.53ZM585.921 147.205L587.272 147.881C588.961 148.725 590.312 148.725 591.326 147.881L592.17 147.205H589.13H585.921Z" fill="#231F20"/>
</svg>
